M48
; DRILL file {KiCad 7.0.8} date 2024 May 16, Thursday 20:38:30
; FORMAT={-:-/ absolute / inch / decimal}
; #@! TF.CreationDate,2024-05-16T20:38:30+02:00
; #@! TF.GenerationSoftware,Kicad,Pcbnew,7.0.8
; #@! TF.FileFunction,Plated,1,2,PTH
FMAT,2
INCH
; #@! TA.AperFunction,Plated,PTH,ComponentDrill
T1C0.0079
; #@! TA.AperFunction,Plated,PTH,ViaDrill
T2C0.0157
; #@! TA.AperFunction,Plated,PTH,ComponentDrill
T3C0.0315
; #@! TA.AperFunction,Plated,PTH,ComponentDrill
T4C0.0402
%
G90
G05
T1
X4.9345Y-5.5145
X4.9345Y-5.5617
X4.9345Y-5.609
X4.9345Y-5.6562
X4.9817Y-5.5145
X4.9817Y-5.5617
X4.9817Y-5.609
X4.9817Y-5.6562
X5.029Y-5.5145
X5.029Y-5.5617
X5.029Y-5.609
X5.029Y-5.6562
X5.0762Y-5.5145
X5.0762Y-5.5617
X5.0762Y-5.609
X5.0762Y-5.6562
T2
X4.202Y-4.902
X4.23Y-4.785
X4.248Y-5.95
X4.2499Y-5.9093
X4.252Y-5.87
X4.252Y-5.992
X4.252Y-6.072
X4.252Y-6.112
X4.254Y-6.032
X4.27Y-5.816
X4.278Y-4.66
X4.3Y-4.545
X4.314Y-5.742
X4.338Y-5.788
X4.37Y-4.78
X4.37Y-5.62
X4.3758Y-4.9102
X4.4159Y-4.6613
X4.4259Y-5.609
X4.43Y-5.5699
X4.44Y-4.545
X4.456Y-5.698
X4.496Y-4.904
X4.4961Y-5.5335
X4.51Y-4.785
X4.5655Y-4.6759
X4.5717Y-5.522
X4.58Y-4.545
X4.618Y-5.418
X4.62Y-4.918
X4.628Y-5.466
X4.65Y-4.78
X4.6536Y-5.3896
X4.696Y-5.078
X4.7098Y-4.6702
X4.72Y-4.545
X4.754Y-5.394
X4.774Y-4.9018
X4.79Y-4.785
X4.7992Y-5.1555
X4.852Y-4.664
X4.86Y-4.545
X4.8611Y-5.0383
X4.888Y-5.114
X4.8938Y-4.8958
X4.93Y-4.785
X4.9329Y-4.9003
X4.968Y-5.008
X4.968Y-5.208
X4.9745Y-4.6608
X5.0Y-4.55
X5.007Y-6.168
X5.03Y-4.894
X5.034Y-5.0031
X5.052Y-5.128
X5.07Y-4.785
X5.116Y-5.006
X5.1308Y-4.6652
X5.135Y-4.545
X5.136Y-5.154
X5.1811Y-4.8976
X5.21Y-4.785
X5.2149Y-4.9909
X5.218Y-5.214
X5.258Y-5.876
X5.268Y-6.194
X5.2708Y-4.6692
X5.2788Y-5.2468
X5.28Y-4.545
X5.3425Y-4.9055
X5.36Y-4.785
X5.378Y-5.022
X5.384Y-5.062
X5.3844Y-5.5837
X5.3898Y-4.9055
X5.39Y-5.304
X5.39Y-5.392
X5.3925Y-5.184
X5.394Y-5.344
X5.422Y-4.666
X5.425Y-4.545
X5.438Y-5.614
X5.456Y-5.738
X5.48Y-5.614
X5.56Y-5.614
X5.57Y-4.956
X5.57Y-5.462
X5.576Y-5.142
X5.592Y-5.812
X5.608Y-4.61
X5.64Y-5.61
X5.656Y-4.198
X5.6717Y-5.6333
X5.674Y-5.6726
X5.684Y-5.846
X5.69Y-4.412
X5.6938Y-4.9718
X5.696Y-5.716
X5.746Y-5.3725
X5.75Y-4.956
X5.7549Y-5.152
X5.792Y-5.116
X5.812Y-5.1775
X5.85Y-4.754
X5.876Y-5.654
X5.9515Y-5.686
X5.98Y-6.192
X6.002Y-4.284
X6.022Y-5.176
X6.044Y-4.61
X6.052Y-5.106
X6.084Y-4.4
X6.088Y-4.176
X6.088Y-5.172
X6.092Y-4.568
X6.13Y-5.91
X6.1702Y-5.9102
X6.1713Y-4.5059
X6.1935Y-4.675
X6.2103Y-5.9103
X6.222Y-4.707
X6.2497Y-5.9113
X6.2524Y-4.7355
X6.285Y-4.765
X6.2887Y-5.9161
X6.29Y-5.9554
X6.2904Y-5.9954
X6.2907Y-6.0354
X6.2918Y-6.0748
X6.3173Y-4.7935
X6.3459Y-4.822
X6.3807Y-4.8506
X6.4128Y-4.8791
X6.572Y-5.34
X6.586Y-5.094
X6.616Y-5.368
X6.622Y-5.128
X6.654Y-5.008
X6.664Y-5.43
X6.89Y-5.474
X6.898Y-5.176
X7.048Y-5.194
X7.202Y-5.262
X7.486Y-5.158
X7.488Y-5.436
X7.52Y-5.364
T3
X5.78Y-5.46
X5.78Y-5.56
X5.78Y-5.66
X5.78Y-5.76
X6.08Y-5.46
X6.08Y-5.56
X6.08Y-5.66
X6.08Y-5.76
T4
X4.4035Y-4.2319
X4.4035Y-4.35
X4.5216Y-4.2319
X4.5216Y-4.35
X4.6397Y-4.2319
X4.6397Y-4.35
X4.7578Y-4.2319
X4.7578Y-4.35
X4.8759Y-4.2319
X4.8759Y-4.35
X4.9941Y-4.2319
X4.9941Y-4.35
X5.1122Y-4.2319
X5.1122Y-4.35
X5.2303Y-4.2319
X5.2303Y-4.35
X5.3484Y-4.2319
X5.3484Y-4.35
X5.4665Y-4.2319
X5.4665Y-4.35
X6.396Y-4.236
X6.396Y-4.3541
X6.5141Y-4.236
X6.5141Y-4.3541
X6.6322Y-4.236
X6.6322Y-4.3541
X6.7503Y-4.236
X6.7503Y-4.3541
X6.8684Y-4.236
X6.8684Y-4.3541
X6.976Y-6.1664
X6.976Y-6.2845
X6.9866Y-4.236
X6.9866Y-4.3541
X7.1047Y-4.236
X7.1047Y-4.3541
X7.2228Y-4.236
X7.2228Y-4.3541
X7.2438Y-4.8409
X7.2438Y-4.9591
X7.314Y-6.1664
X7.314Y-6.2845
X7.3409Y-4.236
X7.3409Y-4.3541
X7.3619Y-4.8409
X7.3619Y-4.9591
X7.459Y-4.236
X7.459Y-4.3541
T0
M30
