%TF.GenerationSoftware,KiCad,Pcbnew,7.0.8*%
%TF.CreationDate,2024-05-16T20:38:27+02:00*%
%TF.ProjectId,FTCMS_V2,4654434d-535f-4563-922e-6b696361645f,rev?*%
%TF.SameCoordinates,Original*%
%TF.FileFunction,Paste,Top*%
%TF.FilePolarity,Positive*%
%FSLAX46Y46*%
G04 Gerber Fmt 4.6, Leading zero omitted, Abs format (unit mm)*
G04 Created by KiCad (PCBNEW 7.0.8) date 2024-05-16 20:38:27*
%MOMM*%
%LPD*%
G01*
G04 APERTURE LIST*
G04 Aperture macros list*
%AMRoundRect*
0 Rectangle with rounded corners*
0 $1 Rounding radius*
0 $2 $3 $4 $5 $6 $7 $8 $9 X,Y pos of 4 corners*
0 Add a 4 corners polygon primitive as box body*
4,1,4,$2,$3,$4,$5,$6,$7,$8,$9,$2,$3,0*
0 Add four circle primitives for the rounded corners*
1,1,$1+$1,$2,$3*
1,1,$1+$1,$4,$5*
1,1,$1+$1,$6,$7*
1,1,$1+$1,$8,$9*
0 Add four rect primitives between the rounded corners*
20,1,$1+$1,$2,$3,$4,$5,0*
20,1,$1+$1,$4,$5,$6,$7,0*
20,1,$1+$1,$6,$7,$8,$9,0*
20,1,$1+$1,$8,$9,$2,$3,0*%
%AMFreePoly0*
4,1,48,0.193769,0.277084,0.210256,0.277084,0.223594,0.267393,0.239272,0.262299,0.248962,0.248962,0.262299,0.239272,0.267393,0.223594,0.277084,0.210256,0.277084,0.193769,0.282178,0.178092,0.282178,-0.091864,0.279582,-0.099852,0.280896,-0.108146,0.269831,-0.129862,0.262299,-0.153044,0.255505,-0.157980,0.251692,-0.165464,0.165464,-0.251692,0.157980,-0.255505,0.153044,-0.262299,
0.129864,-0.269830,0.108147,-0.280896,0.099852,-0.279582,0.091864,-0.282178,-0.178092,-0.282178,-0.193769,-0.277084,-0.210256,-0.277084,-0.223594,-0.267393,-0.239272,-0.262299,-0.248962,-0.248962,-0.262299,-0.239272,-0.267393,-0.223594,-0.277084,-0.210256,-0.277084,-0.193769,-0.282178,-0.178092,-0.282178,0.178092,-0.277084,0.193769,-0.277084,0.210256,-0.267393,0.223594,-0.262299,0.239272,
-0.248962,0.248962,-0.239272,0.262299,-0.223594,0.267393,-0.210256,0.277084,-0.193769,0.277084,-0.178092,0.282178,0.178092,0.282178,0.193769,0.277084,0.193769,0.277084,$1*%
%AMFreePoly1*
4,1,16,0.154497,0.483735,0.203876,0.463282,0.261726,0.405432,0.282179,0.356053,0.282179,-0.356053,0.261724,-0.405432,0.203876,-0.463283,0.154497,-0.483736,-0.212347,-0.483736,-0.261726,-0.463283,-0.282179,-0.413904,-0.282179,0.413904,-0.261726,0.463283,-0.212347,0.483736,0.154497,0.483736,0.154497,0.483735,0.154497,0.483735,$1*%
%AMFreePoly2*
4,1,48,0.099852,0.279582,0.108147,0.280896,0.129864,0.269830,0.153044,0.262299,0.157980,0.255505,0.165464,0.251692,0.251692,0.165464,0.255505,0.157980,0.262299,0.153044,0.269831,0.129862,0.280896,0.108146,0.279582,0.099852,0.282178,0.091864,0.282178,-0.178092,0.277084,-0.193769,0.277084,-0.210256,0.267393,-0.223594,0.262299,-0.239272,0.248962,-0.248962,0.239272,-0.262299,
0.223594,-0.267393,0.210256,-0.277084,0.193769,-0.277084,0.178092,-0.282178,-0.178092,-0.282178,-0.193769,-0.277084,-0.210256,-0.277084,-0.223594,-0.267393,-0.239272,-0.262299,-0.248962,-0.248962,-0.262299,-0.239272,-0.267393,-0.223594,-0.277084,-0.210256,-0.277084,-0.193769,-0.282178,-0.178092,-0.282178,0.178092,-0.277084,0.193769,-0.277084,0.210256,-0.267393,0.223594,-0.262299,0.239272,
-0.248962,0.248962,-0.239272,0.262299,-0.223594,0.267393,-0.210256,0.277084,-0.193769,0.277084,-0.178092,0.282178,0.091864,0.282178,0.099852,0.279582,0.099852,0.279582,$1*%
%AMFreePoly3*
4,1,15,0.463283,0.261726,0.483736,0.212347,0.483736,-0.154497,0.463281,-0.203876,0.405432,-0.261726,0.356052,-0.282179,-0.356053,-0.282179,-0.405432,-0.261724,-0.463283,-0.203876,-0.483736,-0.154497,-0.483736,0.212347,-0.463283,0.261726,-0.413904,0.282179,0.413904,0.282179,0.463283,0.261726,0.463283,0.261726,$1*%
%AMFreePoly4*
4,1,15,0.405432,0.261726,0.463283,0.203876,0.483736,0.154497,0.483736,-0.212347,0.463283,-0.261726,0.413904,-0.282179,-0.413904,-0.282179,-0.463283,-0.261726,-0.483736,-0.212347,-0.483736,0.154497,-0.463281,0.203876,-0.405432,0.261726,-0.356053,0.282179,0.356053,0.282179,0.405432,0.261726,0.405432,0.261726,$1*%
%AMFreePoly5*
4,1,48,0.193769,0.277084,0.210256,0.277084,0.223594,0.267393,0.239272,0.262299,0.248962,0.248962,0.262299,0.239272,0.267393,0.223594,0.277084,0.210256,0.277084,0.193769,0.282178,0.178092,0.282178,-0.178092,0.277084,-0.193769,0.277084,-0.210256,0.267393,-0.223594,0.262299,-0.239272,0.248962,-0.248962,0.239272,-0.262299,0.223594,-0.267393,0.210256,-0.277084,0.193769,-0.277084,
0.178092,-0.282178,-0.091864,-0.282178,-0.099852,-0.279582,-0.108146,-0.280896,-0.129862,-0.269831,-0.153044,-0.262299,-0.157980,-0.255505,-0.165464,-0.251692,-0.251692,-0.165464,-0.255505,-0.157980,-0.262299,-0.153044,-0.269830,-0.129864,-0.280896,-0.108147,-0.279582,-0.099852,-0.282178,-0.091864,-0.282178,0.178092,-0.277084,0.193769,-0.277084,0.210256,-0.267393,0.223594,-0.262299,0.239272,
-0.248962,0.248962,-0.239272,0.262299,-0.223594,0.267393,-0.210256,0.277084,-0.193769,0.277084,-0.178092,0.282178,0.178092,0.282178,0.193769,0.277084,0.193769,0.277084,$1*%
%AMFreePoly6*
4,1,15,0.261726,0.463283,0.282179,0.413904,0.282179,-0.413904,0.261726,-0.463283,0.212347,-0.483736,-0.154498,-0.483736,-0.203876,-0.463281,-0.261726,-0.405432,-0.282179,-0.356053,-0.282179,0.356053,-0.261724,0.405432,-0.203876,0.463283,-0.154497,0.483736,0.212347,0.483736,0.261726,0.463283,0.261726,0.463283,$1*%
%AMFreePoly7*
4,1,48,0.193769,0.277084,0.210256,0.277084,0.223594,0.267393,0.239272,0.262299,0.248962,0.248962,0.262299,0.239272,0.267393,0.223594,0.277084,0.210256,0.277084,0.193769,0.282178,0.178092,0.282178,-0.178092,0.277084,-0.193769,0.277084,-0.210256,0.267393,-0.223594,0.262299,-0.239272,0.248962,-0.248962,0.239272,-0.262299,0.223594,-0.267393,0.210256,-0.277084,0.193769,-0.277084,
0.178092,-0.282178,-0.178092,-0.282178,-0.193769,-0.277084,-0.210256,-0.277084,-0.223594,-0.267393,-0.239272,-0.262299,-0.248962,-0.248962,-0.262299,-0.239272,-0.267393,-0.223594,-0.277084,-0.210256,-0.277084,-0.193769,-0.282178,-0.178092,-0.282178,0.091864,-0.279582,0.099852,-0.280896,0.108147,-0.269830,0.129864,-0.262299,0.153044,-0.255505,0.157980,-0.251692,0.165464,-0.165464,0.251692,
-0.157980,0.255505,-0.153044,0.262299,-0.129862,0.269831,-0.108146,0.280896,-0.099852,0.279582,-0.091864,0.282178,0.178092,0.282178,0.193769,0.277084,0.193769,0.277084,$1*%
G04 Aperture macros list end*
%ADD10RoundRect,0.237500X-0.237500X0.300000X-0.237500X-0.300000X0.237500X-0.300000X0.237500X0.300000X0*%
%ADD11RoundRect,0.250000X0.650000X-0.412500X0.650000X0.412500X-0.650000X0.412500X-0.650000X-0.412500X0*%
%ADD12RoundRect,0.250000X-0.412500X-0.650000X0.412500X-0.650000X0.412500X0.650000X-0.412500X0.650000X0*%
%ADD13RoundRect,0.237500X-0.300000X-0.237500X0.300000X-0.237500X0.300000X0.237500X-0.300000X0.237500X0*%
%ADD14RoundRect,0.250000X0.625000X-0.400000X0.625000X0.400000X-0.625000X0.400000X-0.625000X-0.400000X0*%
%ADD15RoundRect,0.250000X-0.650000X0.412500X-0.650000X-0.412500X0.650000X-0.412500X0.650000X0.412500X0*%
%ADD16RoundRect,0.250000X-0.625000X0.400000X-0.625000X-0.400000X0.625000X-0.400000X0.625000X0.400000X0*%
%ADD17RoundRect,0.237500X0.300000X0.237500X-0.300000X0.237500X-0.300000X-0.237500X0.300000X-0.237500X0*%
%ADD18RoundRect,0.250000X-0.400000X-0.625000X0.400000X-0.625000X0.400000X0.625000X-0.400000X0.625000X0*%
%ADD19RoundRect,0.150000X-0.512500X-0.150000X0.512500X-0.150000X0.512500X0.150000X-0.512500X0.150000X0*%
%ADD20R,1.500000X2.000000*%
%ADD21R,3.800000X2.000000*%
%ADD22FreePoly0,270.000000*%
%ADD23FreePoly1,270.000000*%
%ADD24FreePoly2,270.000000*%
%ADD25FreePoly3,270.000000*%
%ADD26RoundRect,0.241868X-0.241867X0.241867X-0.241867X-0.241867X0.241867X-0.241867X0.241867X0.241867X0*%
%ADD27FreePoly4,270.000000*%
%ADD28FreePoly5,270.000000*%
%ADD29FreePoly6,270.000000*%
%ADD30FreePoly7,270.000000*%
%ADD31RoundRect,0.075000X-0.075000X0.700000X-0.075000X-0.700000X0.075000X-0.700000X0.075000X0.700000X0*%
%ADD32RoundRect,0.075000X-0.700000X0.075000X-0.700000X-0.075000X0.700000X-0.075000X0.700000X0.075000X0*%
%ADD33R,0.760000X2.120000*%
%ADD34R,0.761000X2.120000*%
%ADD35RoundRect,0.250000X0.400000X0.625000X-0.400000X0.625000X-0.400000X-0.625000X0.400000X-0.625000X0*%
%ADD36RoundRect,0.250001X-0.462499X-0.624999X0.462499X-0.624999X0.462499X0.624999X-0.462499X0.624999X0*%
G04 APERTURE END LIST*
D10*
%TO.C,C7*%
X110896400Y-143967200D03*
X110896400Y-145692200D03*
%TD*%
%TO.C,C4*%
X113944400Y-150264200D03*
X113944400Y-151989200D03*
%TD*%
D11*
%TO.C,C24*%
X181102000Y-137706500D03*
X181102000Y-134581500D03*
%TD*%
D12*
%TO.C,C22*%
X138493100Y-141020800D03*
X141618100Y-141020800D03*
%TD*%
D13*
%TO.C,C3*%
X118771500Y-151892000D03*
X120496500Y-151892000D03*
%TD*%
D14*
%TO.C,RT7*%
X179348000Y-116840000D03*
X179348000Y-113740000D03*
%TD*%
D15*
%TO.C,C31*%
X173075600Y-147891100D03*
X173075600Y-151016100D03*
%TD*%
D14*
%TO.C,R30*%
X184912000Y-137744800D03*
X184912000Y-134644800D03*
%TD*%
D16*
%TO.C,R10B1*%
X123444000Y-113919000D03*
X123444000Y-117019000D03*
%TD*%
D10*
%TO.C,C8*%
X113944400Y-141781700D03*
X113944400Y-143506700D03*
%TD*%
D17*
%TO.C,C12*%
X120650000Y-131318000D03*
X118925000Y-131318000D03*
%TD*%
D14*
%TO.C,R31*%
X171500800Y-137694000D03*
X171500800Y-134594000D03*
%TD*%
D16*
%TO.C,R9B1*%
X121666000Y-119989000D03*
X121666000Y-123089000D03*
%TD*%
%TO.C,R2B1*%
X109220000Y-113919000D03*
X109220000Y-117019000D03*
%TD*%
D17*
%TO.C,C19*%
X135382000Y-128270000D03*
X133657000Y-128270000D03*
%TD*%
D10*
%TO.C,C11*%
X110896400Y-135585200D03*
X110896400Y-137310200D03*
%TD*%
D12*
%TO.C,C23*%
X140232600Y-145643600D03*
X143357600Y-145643600D03*
%TD*%
D16*
%TO.C,R6B1*%
X116332000Y-113919000D03*
X116332000Y-117019000D03*
%TD*%
D15*
%TO.C,C29*%
X193446400Y-147586300D03*
X193446400Y-150711300D03*
%TD*%
D14*
%TO.C,RT1*%
X160068000Y-116814000D03*
X160068000Y-113714000D03*
%TD*%
D16*
%TO.C,R1B1*%
X107442000Y-119963000D03*
X107442000Y-123063000D03*
%TD*%
D14*
%TO.C,RT9*%
X185928000Y-116840000D03*
X185928000Y-113740000D03*
%TD*%
D15*
%TO.C,C32*%
X169672000Y-147891100D03*
X169672000Y-151016100D03*
%TD*%
D16*
%TO.C,R13B1*%
X128778000Y-120015000D03*
X128778000Y-123115000D03*
%TD*%
%TO.C,R5B1*%
X114554000Y-119963000D03*
X114554000Y-123063000D03*
%TD*%
D15*
%TO.C,C27*%
X178104800Y-134581500D03*
X178104800Y-137706500D03*
%TD*%
D10*
%TO.C,C6*%
X113944400Y-145999200D03*
X113944400Y-147724200D03*
%TD*%
D14*
%TO.C,R24*%
X175209200Y-137694000D03*
X175209200Y-134594000D03*
%TD*%
D17*
%TO.C,C15*%
X126899500Y-128270000D03*
X125174500Y-128270000D03*
%TD*%
D16*
%TO.C,R15B1*%
X132334000Y-120015000D03*
X132334000Y-123115000D03*
%TD*%
D17*
%TO.C,C18*%
X133350000Y-131318000D03*
X131625000Y-131318000D03*
%TD*%
D14*
%TO.C,RT5*%
X172768000Y-116840000D03*
X172768000Y-113740000D03*
%TD*%
D16*
%TO.C,R11B1*%
X125222000Y-120015000D03*
X125222000Y-123115000D03*
%TD*%
D14*
%TO.C,RT2*%
X163116000Y-116788000D03*
X163116000Y-113688000D03*
%TD*%
D18*
%TO.C,R22*%
X136880000Y-159969200D03*
X139980000Y-159969200D03*
%TD*%
D16*
%TO.C,R14B1*%
X130556000Y-113893000D03*
X130556000Y-116993000D03*
%TD*%
D10*
%TO.C,C9*%
X110896400Y-139749700D03*
X110896400Y-141474700D03*
%TD*%
D16*
%TO.C,R4B1*%
X112776000Y-113919000D03*
X112776000Y-117019000D03*
%TD*%
D14*
%TO.C,R21*%
X188620400Y-137744800D03*
X188620400Y-134644800D03*
%TD*%
D16*
%TO.C,R16B1*%
X134112000Y-113919000D03*
X134112000Y-117019000D03*
%TD*%
D19*
%TO.C,U2*%
X149332100Y-129707600D03*
X149332100Y-130657600D03*
X149332100Y-131607600D03*
X151607100Y-131607600D03*
X151607100Y-129707600D03*
%TD*%
D16*
%TO.C,R18B1*%
X137668000Y-113919000D03*
X137668000Y-117019000D03*
%TD*%
D15*
%TO.C,C30*%
X190347600Y-147586300D03*
X190347600Y-150711300D03*
%TD*%
D20*
%TO.C,Q1*%
X147102800Y-116891600D03*
X149402800Y-116891600D03*
D21*
X149402800Y-110591600D03*
D20*
X151702800Y-116891600D03*
%TD*%
D13*
%TO.C,C2*%
X122989000Y-151892000D03*
X124714000Y-151892000D03*
%TD*%
D22*
%TO.C,U1*%
X129286000Y-139718000D03*
D23*
X128336000Y-139718000D03*
X127136000Y-139718000D03*
X125936000Y-139718000D03*
D24*
X124986000Y-139718000D03*
D25*
X129286000Y-140668000D03*
D26*
X128336000Y-140668000D03*
X127136000Y-140668000D03*
X125936000Y-140668000D03*
D27*
X124986000Y-140668000D03*
D25*
X129286000Y-141868000D03*
D26*
X128336000Y-141868000D03*
X127136000Y-141868000D03*
X125936000Y-141868000D03*
D27*
X124986000Y-141868000D03*
D25*
X129286000Y-143068000D03*
D26*
X128336000Y-143068000D03*
X127136000Y-143068000D03*
X125936000Y-143068000D03*
D27*
X124986000Y-143068000D03*
D28*
X129286000Y-144018000D03*
D29*
X128336000Y-144018000D03*
X127136000Y-144018000D03*
X125936000Y-144018000D03*
D30*
X124986000Y-144018000D03*
D31*
X130886000Y-136193000D03*
X130386000Y-136193000D03*
X129886000Y-136193000D03*
X129386000Y-136193000D03*
X128886000Y-136193000D03*
X128386000Y-136193000D03*
X127886000Y-136193000D03*
X127386000Y-136193000D03*
X126886000Y-136193000D03*
X126386000Y-136193000D03*
X125886000Y-136193000D03*
X125386000Y-136193000D03*
X124886000Y-136193000D03*
X124386000Y-136193000D03*
X123886000Y-136193000D03*
X123386000Y-136193000D03*
D32*
X121461000Y-138118000D03*
X121461000Y-138618000D03*
X121461000Y-139118000D03*
X121461000Y-139618000D03*
X121461000Y-140118000D03*
X121461000Y-140618000D03*
X121461000Y-141118000D03*
X121461000Y-141618000D03*
X121461000Y-142118000D03*
X121461000Y-142618000D03*
X121461000Y-143118000D03*
X121461000Y-143618000D03*
X121461000Y-144118000D03*
X121461000Y-144618000D03*
X121461000Y-145118000D03*
X121461000Y-145618000D03*
D31*
X123386000Y-147543000D03*
X123886000Y-147543000D03*
X124386000Y-147543000D03*
X124886000Y-147543000D03*
X125386000Y-147543000D03*
X125886000Y-147543000D03*
X126386000Y-147543000D03*
X126886000Y-147543000D03*
X127386000Y-147543000D03*
X127886000Y-147543000D03*
X128386000Y-147543000D03*
X128886000Y-147543000D03*
X129386000Y-147543000D03*
X129886000Y-147543000D03*
X130386000Y-147543000D03*
X130886000Y-147543000D03*
D32*
X132811000Y-145618000D03*
X132811000Y-145118000D03*
X132811000Y-144618000D03*
X132811000Y-144118000D03*
X132811000Y-143618000D03*
X132811000Y-143118000D03*
X132811000Y-142618000D03*
X132811000Y-142118000D03*
X132811000Y-141618000D03*
X132811000Y-141118000D03*
X132811000Y-140618000D03*
X132811000Y-140118000D03*
X132811000Y-139618000D03*
X132811000Y-139118000D03*
X132811000Y-138618000D03*
X132811000Y-138118000D03*
%TD*%
D33*
%TO.C,TR1*%
X177495700Y-150926800D03*
D34*
X178765200Y-150926800D03*
X180035200Y-150926800D03*
X183845200Y-150926800D03*
D33*
X185115700Y-150926800D03*
D34*
X186385200Y-150926800D03*
D33*
X186385700Y-142124800D03*
D34*
X185116200Y-142124800D03*
D33*
X183845700Y-142124800D03*
X180035700Y-142124800D03*
D34*
X178766200Y-142124800D03*
D33*
X177495700Y-142124800D03*
%TD*%
D10*
%TO.C,C10*%
X113944400Y-137617200D03*
X113944400Y-139342200D03*
%TD*%
D16*
%TO.C,R17B1*%
X136144000Y-120116000D03*
X136144000Y-123216000D03*
%TD*%
D11*
%TO.C,C26*%
X192481200Y-137757300D03*
X192481200Y-134632300D03*
%TD*%
D17*
%TO.C,C17*%
X131191000Y-128270000D03*
X129466000Y-128270000D03*
%TD*%
D14*
%TO.C,RT4*%
X169466000Y-116788000D03*
X169466000Y-113688000D03*
%TD*%
D16*
%TO.C,R12B1*%
X127000000Y-113919000D03*
X127000000Y-117019000D03*
%TD*%
D10*
%TO.C,C5*%
X110896400Y-148285200D03*
X110896400Y-150010200D03*
%TD*%
D17*
%TO.C,C14*%
X124867500Y-131318000D03*
X123142500Y-131318000D03*
%TD*%
%TO.C,C13*%
X122327500Y-128270000D03*
X120602500Y-128270000D03*
%TD*%
D35*
%TO.C,R0*%
X127178400Y-159918400D03*
X124078400Y-159918400D03*
%TD*%
D17*
%TO.C,C16*%
X129185500Y-131318000D03*
X127460500Y-131318000D03*
%TD*%
D14*
%TO.C,RT6*%
X176058000Y-116840000D03*
X176058000Y-113740000D03*
%TD*%
%TO.C,RT3*%
X166176000Y-116788000D03*
X166176000Y-113688000D03*
%TD*%
D16*
%TO.C,R3B1*%
X110998000Y-119963000D03*
X110998000Y-123063000D03*
%TD*%
D36*
%TO.C,D1*%
X130556000Y-159969200D03*
X133531000Y-159969200D03*
%TD*%
D16*
%TO.C,R7B1*%
X118110000Y-119963000D03*
X118110000Y-123063000D03*
%TD*%
D14*
%TO.C,RT8*%
X182638000Y-116840000D03*
X182638000Y-113740000D03*
%TD*%
D13*
%TO.C,C28*%
X126188300Y-154127200D03*
X127913300Y-154127200D03*
%TD*%
D16*
%TO.C,R8B1*%
X119888000Y-113919000D03*
X119888000Y-117019000D03*
%TD*%
M02*
