%TF.GenerationSoftware,KiCad,Pcbnew,7.0.8*%
%TF.CreationDate,2024-05-16T20:38:27+02:00*%
%TF.ProjectId,FTCMS_V2,4654434d-535f-4563-922e-6b696361645f,rev?*%
%TF.SameCoordinates,Original*%
%TF.FileFunction,Soldermask,Top*%
%TF.FilePolarity,Negative*%
%FSLAX46Y46*%
G04 Gerber Fmt 4.6, Leading zero omitted, Abs format (unit mm)*
G04 Created by KiCad (PCBNEW 7.0.8) date 2024-05-16 20:38:27*
%MOMM*%
%LPD*%
G01*
G04 APERTURE LIST*
G04 Aperture macros list*
%AMRoundRect*
0 Rectangle with rounded corners*
0 $1 Rounding radius*
0 $2 $3 $4 $5 $6 $7 $8 $9 X,Y pos of 4 corners*
0 Add a 4 corners polygon primitive as box body*
4,1,4,$2,$3,$4,$5,$6,$7,$8,$9,$2,$3,0*
0 Add four circle primitives for the rounded corners*
1,1,$1+$1,$2,$3*
1,1,$1+$1,$4,$5*
1,1,$1+$1,$6,$7*
1,1,$1+$1,$8,$9*
0 Add four rect primitives between the rounded corners*
20,1,$1+$1,$2,$3,$4,$5,0*
20,1,$1+$1,$4,$5,$6,$7,0*
20,1,$1+$1,$6,$7,$8,$9,0*
20,1,$1+$1,$8,$9,$2,$3,0*%
%AMFreePoly0*
4,1,6,1.000000,0.000000,0.500000,-0.750000,-0.500000,-0.750000,-0.500000,0.750000,0.500000,0.750000,1.000000,0.000000,1.000000,0.000000,$1*%
%AMFreePoly1*
4,1,6,0.500000,-0.750000,-0.650000,-0.750000,-0.150000,0.000000,-0.650000,0.750000,0.500000,0.750000,0.500000,-0.750000,0.500000,-0.750000,$1*%
G04 Aperture macros list end*
%ADD10RoundRect,0.237500X-0.237500X0.300000X-0.237500X-0.300000X0.237500X-0.300000X0.237500X0.300000X0*%
%ADD11R,1.500000X1.500000*%
%ADD12FreePoly0,0.000000*%
%ADD13FreePoly0,180.000000*%
%ADD14FreePoly0,270.000000*%
%ADD15FreePoly1,270.000000*%
%ADD16RoundRect,0.250000X0.650000X-0.412500X0.650000X0.412500X-0.650000X0.412500X-0.650000X-0.412500X0*%
%ADD17RoundRect,0.250000X-0.412500X-0.650000X0.412500X-0.650000X0.412500X0.650000X-0.412500X0.650000X0*%
%ADD18RoundRect,0.237500X-0.300000X-0.237500X0.300000X-0.237500X0.300000X0.237500X-0.300000X0.237500X0*%
%ADD19RoundRect,0.250000X0.625000X-0.400000X0.625000X0.400000X-0.625000X0.400000X-0.625000X-0.400000X0*%
%ADD20RoundRect,0.250000X-0.650000X0.412500X-0.650000X-0.412500X0.650000X-0.412500X0.650000X0.412500X0*%
%ADD21RoundRect,0.250000X-0.625000X0.400000X-0.625000X-0.400000X0.625000X-0.400000X0.625000X0.400000X0*%
%ADD22RoundRect,0.237500X0.300000X0.237500X-0.300000X0.237500X-0.300000X-0.237500X0.300000X-0.237500X0*%
%ADD23FreePoly0,90.000000*%
%ADD24FreePoly1,90.000000*%
%ADD25C,3.200000*%
%ADD26C,3.000000*%
%ADD27RoundRect,0.250001X-0.499999X0.499999X-0.499999X-0.499999X0.499999X-0.499999X0.499999X0.499999X0*%
%ADD28C,1.500000*%
%ADD29R,2.400000X1.600000*%
%ADD30O,2.400000X1.600000*%
%ADD31RoundRect,0.250000X-0.400000X-0.625000X0.400000X-0.625000X0.400000X0.625000X-0.400000X0.625000X0*%
%ADD32C,1.020000*%
%ADD33RoundRect,0.250001X-0.499999X-0.499999X0.499999X-0.499999X0.499999X0.499999X-0.499999X0.499999X0*%
%ADD34RoundRect,0.150000X-0.512500X-0.150000X0.512500X-0.150000X0.512500X0.150000X-0.512500X0.150000X0*%
%ADD35R,1.500000X2.000000*%
%ADD36R,3.800000X2.000000*%
%ADD37RoundRect,0.075000X-0.075000X0.700000X-0.075000X-0.700000X0.075000X-0.700000X0.075000X0.700000X0*%
%ADD38RoundRect,0.075000X-0.700000X0.075000X-0.700000X-0.075000X0.700000X-0.075000X0.700000X0.075000X0*%
%ADD39R,5.000000X5.000000*%
%ADD40R,0.760000X2.120000*%
%ADD41R,0.761000X2.120000*%
%ADD42RoundRect,0.250000X0.400000X0.625000X-0.400000X0.625000X-0.400000X-0.625000X0.400000X-0.625000X0*%
%ADD43RoundRect,0.250001X-0.462499X-0.624999X0.462499X-0.624999X0.462499X0.624999X-0.462499X0.624999X0*%
G04 APERTURE END LIST*
D10*
%TO.C,C7*%
X110896400Y-143967200D03*
X110896400Y-145692200D03*
%TD*%
D11*
%TO.C,DISCH Timer*%
X136131200Y-148691600D03*
X138531200Y-148691600D03*
D12*
X135331200Y-148691600D03*
D13*
X139331200Y-148691600D03*
%TD*%
D10*
%TO.C,C4*%
X113944400Y-150264200D03*
X113944400Y-151989200D03*
%TD*%
D14*
%TO.C,JP2*%
X104394000Y-103526000D03*
D15*
X104394000Y-104976000D03*
%TD*%
D16*
%TO.C,C24*%
X181102000Y-137706500D03*
X181102000Y-134581500D03*
%TD*%
D17*
%TO.C,C22*%
X138493100Y-141020800D03*
X141618100Y-141020800D03*
%TD*%
D18*
%TO.C,C3*%
X118771500Y-151892000D03*
X120496500Y-151892000D03*
%TD*%
D19*
%TO.C,RT7*%
X179348000Y-116840000D03*
X179348000Y-113740000D03*
%TD*%
D20*
%TO.C,C31*%
X173075600Y-147891100D03*
X173075600Y-151016100D03*
%TD*%
D19*
%TO.C,R30*%
X184912000Y-137744800D03*
X184912000Y-134644800D03*
%TD*%
D21*
%TO.C,R10B1*%
X123444000Y-113919000D03*
X123444000Y-117019000D03*
%TD*%
D10*
%TO.C,C8*%
X113944400Y-141781700D03*
X113944400Y-143506700D03*
%TD*%
D22*
%TO.C,C12*%
X120650000Y-131318000D03*
X118925000Y-131318000D03*
%TD*%
D19*
%TO.C,R31*%
X171500800Y-137694000D03*
X171500800Y-134594000D03*
%TD*%
D21*
%TO.C,R9B1*%
X121666000Y-119989000D03*
X121666000Y-123089000D03*
%TD*%
D11*
%TO.C,IPA-SCK*%
X168859200Y-125101200D03*
X168859200Y-122701200D03*
D23*
X168859200Y-125901200D03*
D14*
X168859200Y-121901200D03*
%TD*%
D23*
%TO.C,JP6*%
X193344800Y-145163200D03*
D24*
X193344800Y-143713200D03*
%TD*%
D21*
%TO.C,R2B1*%
X109220000Y-113919000D03*
X109220000Y-117019000D03*
%TD*%
D25*
%TO.C,H2*%
X150000000Y-105000000D03*
%TD*%
D22*
%TO.C,C19*%
X135382000Y-128270000D03*
X133657000Y-128270000D03*
%TD*%
D10*
%TO.C,C11*%
X110896400Y-135585200D03*
X110896400Y-137310200D03*
%TD*%
D17*
%TO.C,C23*%
X140232600Y-145643600D03*
X143357600Y-145643600D03*
%TD*%
D21*
%TO.C,R6B1*%
X116332000Y-113919000D03*
X116332000Y-117019000D03*
%TD*%
D20*
%TO.C,C29*%
X193446400Y-147586300D03*
X193446400Y-150711300D03*
%TD*%
D19*
%TO.C,RT1*%
X160068000Y-116814000D03*
X160068000Y-113714000D03*
%TD*%
D21*
%TO.C,R1B1*%
X107442000Y-119963000D03*
X107442000Y-123063000D03*
%TD*%
D19*
%TO.C,RT9*%
X185928000Y-116840000D03*
X185928000Y-113740000D03*
%TD*%
D25*
%TO.C,H1*%
X105000000Y-160000000D03*
%TD*%
D20*
%TO.C,C32*%
X169672000Y-147891100D03*
X169672000Y-151016100D03*
%TD*%
D21*
%TO.C,R13B1*%
X128778000Y-120015000D03*
X128778000Y-123115000D03*
%TD*%
%TO.C,R5B1*%
X114554000Y-119963000D03*
X114554000Y-123063000D03*
%TD*%
D23*
%TO.C,JP7*%
X173024800Y-145163200D03*
D24*
X173024800Y-143713200D03*
%TD*%
D20*
%TO.C,C27*%
X178104800Y-134581500D03*
X178104800Y-137706500D03*
%TD*%
D26*
%TO.C,J4*%
X191312800Y-124460000D03*
D27*
X186992800Y-122960000D03*
D28*
X186992800Y-125960000D03*
X183992800Y-122960000D03*
X183992800Y-125960000D03*
%TD*%
D29*
%TO.C,OP1*%
X146812000Y-138684000D03*
D30*
X146812000Y-141224000D03*
X146812000Y-143764000D03*
X146812000Y-146304000D03*
X154432000Y-146304000D03*
X154432000Y-143764000D03*
X154432000Y-141224000D03*
X154432000Y-138684000D03*
%TD*%
D10*
%TO.C,C6*%
X113944400Y-145999200D03*
X113944400Y-147724200D03*
%TD*%
D19*
%TO.C,R24*%
X175209200Y-137694000D03*
X175209200Y-134594000D03*
%TD*%
D22*
%TO.C,C15*%
X126899500Y-128270000D03*
X125174500Y-128270000D03*
%TD*%
D21*
%TO.C,R15B1*%
X132334000Y-120015000D03*
X132334000Y-123115000D03*
%TD*%
D22*
%TO.C,C18*%
X133350000Y-131318000D03*
X131625000Y-131318000D03*
%TD*%
D19*
%TO.C,RT5*%
X172768000Y-116840000D03*
X172768000Y-113740000D03*
%TD*%
D21*
%TO.C,R11B1*%
X125222000Y-120015000D03*
X125222000Y-123115000D03*
%TD*%
D19*
%TO.C,RT2*%
X163116000Y-116788000D03*
X163116000Y-113688000D03*
%TD*%
D31*
%TO.C,R22*%
X136880000Y-159969200D03*
X139980000Y-159969200D03*
%TD*%
D21*
%TO.C,R14B1*%
X130556000Y-113893000D03*
X130556000Y-116993000D03*
%TD*%
D32*
%TO.C,J6*%
X174190400Y-160566800D03*
X180190400Y-160566800D03*
D33*
X177190400Y-156626800D03*
D28*
X177190400Y-159626800D03*
%TD*%
D10*
%TO.C,C9*%
X110896400Y-139749700D03*
X110896400Y-141474700D03*
%TD*%
D23*
%TO.C,JP1*%
X104394000Y-109474000D03*
D24*
X104394000Y-108024000D03*
%TD*%
D21*
%TO.C,R4B1*%
X112776000Y-113919000D03*
X112776000Y-117019000D03*
%TD*%
D19*
%TO.C,R21*%
X188620400Y-137744800D03*
X188620400Y-134644800D03*
%TD*%
D21*
%TO.C,R16B1*%
X134112000Y-113919000D03*
X134112000Y-117019000D03*
%TD*%
D34*
%TO.C,U2*%
X149332100Y-129707600D03*
X149332100Y-130657600D03*
X149332100Y-131607600D03*
X151607100Y-131607600D03*
X151607100Y-129707600D03*
%TD*%
D21*
%TO.C,R18B1*%
X137668000Y-113919000D03*
X137668000Y-117019000D03*
%TD*%
D20*
%TO.C,C30*%
X190347600Y-147586300D03*
X190347600Y-150711300D03*
%TD*%
D35*
%TO.C,Q1*%
X147102800Y-116891600D03*
X149402800Y-116891600D03*
D36*
X149402800Y-110591600D03*
D35*
X151702800Y-116891600D03*
%TD*%
D18*
%TO.C,C2*%
X122989000Y-151892000D03*
X124714000Y-151892000D03*
%TD*%
D37*
%TO.C,U1*%
X130886000Y-136193000D03*
X130386000Y-136193000D03*
X129886000Y-136193000D03*
X129386000Y-136193000D03*
X128886000Y-136193000D03*
X128386000Y-136193000D03*
X127886000Y-136193000D03*
X127386000Y-136193000D03*
X126886000Y-136193000D03*
X126386000Y-136193000D03*
X125886000Y-136193000D03*
X125386000Y-136193000D03*
X124886000Y-136193000D03*
X124386000Y-136193000D03*
X123886000Y-136193000D03*
X123386000Y-136193000D03*
D38*
X121461000Y-138118000D03*
X121461000Y-138618000D03*
X121461000Y-139118000D03*
X121461000Y-139618000D03*
X121461000Y-140118000D03*
X121461000Y-140618000D03*
X121461000Y-141118000D03*
X121461000Y-141618000D03*
X121461000Y-142118000D03*
X121461000Y-142618000D03*
X121461000Y-143118000D03*
X121461000Y-143618000D03*
X121461000Y-144118000D03*
X121461000Y-144618000D03*
X121461000Y-145118000D03*
X121461000Y-145618000D03*
D37*
X123386000Y-147543000D03*
X123886000Y-147543000D03*
X124386000Y-147543000D03*
X124886000Y-147543000D03*
X125386000Y-147543000D03*
X125886000Y-147543000D03*
X126386000Y-147543000D03*
X126886000Y-147543000D03*
X127386000Y-147543000D03*
X127886000Y-147543000D03*
X128386000Y-147543000D03*
X128886000Y-147543000D03*
X129386000Y-147543000D03*
X129886000Y-147543000D03*
X130386000Y-147543000D03*
X130886000Y-147543000D03*
D38*
X132811000Y-145618000D03*
X132811000Y-145118000D03*
X132811000Y-144618000D03*
X132811000Y-144118000D03*
X132811000Y-143618000D03*
X132811000Y-143118000D03*
X132811000Y-142618000D03*
X132811000Y-142118000D03*
X132811000Y-141618000D03*
X132811000Y-141118000D03*
X132811000Y-140618000D03*
X132811000Y-140118000D03*
X132811000Y-139618000D03*
X132811000Y-139118000D03*
X132811000Y-138618000D03*
X132811000Y-138118000D03*
D39*
X127136000Y-141868000D03*
%TD*%
D40*
%TO.C,TR1*%
X177495700Y-150926800D03*
D41*
X178765200Y-150926800D03*
X180035200Y-150926800D03*
X183845200Y-150926800D03*
D40*
X185115700Y-150926800D03*
D41*
X186385200Y-150926800D03*
D40*
X186385700Y-142124800D03*
D41*
X185116200Y-142124800D03*
D40*
X183845700Y-142124800D03*
X180035700Y-142124800D03*
D41*
X178766200Y-142124800D03*
D40*
X177495700Y-142124800D03*
%TD*%
D10*
%TO.C,C10*%
X113944400Y-137617200D03*
X113944400Y-139342200D03*
%TD*%
D21*
%TO.C,R17B1*%
X136144000Y-120116000D03*
X136144000Y-123216000D03*
%TD*%
D16*
%TO.C,C26*%
X192481200Y-137757300D03*
X192481200Y-134632300D03*
%TD*%
D11*
%TO.C,IMA-CS*%
X174701200Y-129196800D03*
X174701200Y-126796800D03*
D23*
X174701200Y-129996800D03*
D14*
X174701200Y-125996800D03*
%TD*%
D23*
%TO.C,JP5*%
X190398400Y-145163200D03*
D24*
X190398400Y-143713200D03*
%TD*%
D22*
%TO.C,C17*%
X131191000Y-128270000D03*
X129466000Y-128270000D03*
%TD*%
D19*
%TO.C,RT4*%
X169466000Y-116788000D03*
X169466000Y-113688000D03*
%TD*%
D21*
%TO.C,R12B1*%
X127000000Y-113919000D03*
X127000000Y-117019000D03*
%TD*%
D10*
%TO.C,C5*%
X110896400Y-148285200D03*
X110896400Y-150010200D03*
%TD*%
D25*
%TO.C,H3*%
X165000000Y-160000000D03*
%TD*%
D22*
%TO.C,C14*%
X124867500Y-131318000D03*
X123142500Y-131318000D03*
%TD*%
%TO.C,C13*%
X122327500Y-128270000D03*
X120602500Y-128270000D03*
%TD*%
D26*
%TO.C,J2*%
X164618400Y-103274400D03*
X187318400Y-103274400D03*
D33*
X162458400Y-107594400D03*
D28*
X162458400Y-110594400D03*
X165458400Y-107594400D03*
X165458400Y-110594400D03*
X168458400Y-107594400D03*
X168458400Y-110594400D03*
X171458400Y-107594400D03*
X171458400Y-110594400D03*
X174458400Y-107594400D03*
X174458400Y-110594400D03*
X177458400Y-107594400D03*
X177458400Y-110594400D03*
X180458400Y-107594400D03*
X180458400Y-110594400D03*
X183458400Y-107594400D03*
X183458400Y-110594400D03*
X186458400Y-107594400D03*
X186458400Y-110594400D03*
X189458400Y-107594400D03*
X189458400Y-110594400D03*
%TD*%
D42*
%TO.C,R0*%
X127178400Y-159918400D03*
X124078400Y-159918400D03*
%TD*%
D22*
%TO.C,C16*%
X129185500Y-131318000D03*
X127460500Y-131318000D03*
%TD*%
D19*
%TO.C,RT6*%
X176058000Y-116840000D03*
X176058000Y-113740000D03*
%TD*%
%TO.C,RT3*%
X166176000Y-116788000D03*
X166176000Y-113688000D03*
%TD*%
D32*
%TO.C,J3*%
X182775600Y-160566800D03*
X188775600Y-160566800D03*
D33*
X185775600Y-156626800D03*
D28*
X185775600Y-159626800D03*
%TD*%
D21*
%TO.C,R3B1*%
X110998000Y-119963000D03*
X110998000Y-123063000D03*
%TD*%
D43*
%TO.C,D1*%
X130556000Y-159969200D03*
X133531000Y-159969200D03*
%TD*%
D21*
%TO.C,R7B1*%
X118110000Y-119963000D03*
X118110000Y-123063000D03*
%TD*%
D23*
%TO.C,JP8*%
X169672000Y-145214000D03*
D24*
X169672000Y-143764000D03*
%TD*%
D19*
%TO.C,RT8*%
X182638000Y-116840000D03*
X182638000Y-113740000D03*
%TD*%
D26*
%TO.C,J1*%
X114009000Y-103170000D03*
X136709000Y-103170000D03*
D33*
X111849000Y-107490000D03*
D28*
X111849000Y-110490000D03*
X114849000Y-107490000D03*
X114849000Y-110490000D03*
X117849000Y-107490000D03*
X117849000Y-110490000D03*
X120849000Y-107490000D03*
X120849000Y-110490000D03*
X123849000Y-107490000D03*
X123849000Y-110490000D03*
X126849000Y-107490000D03*
X126849000Y-110490000D03*
X129849000Y-107490000D03*
X129849000Y-110490000D03*
X132849000Y-107490000D03*
X132849000Y-110490000D03*
X135849000Y-107490000D03*
X135849000Y-110490000D03*
X138849000Y-107490000D03*
X138849000Y-110490000D03*
%TD*%
D18*
%TO.C,C28*%
X126188300Y-154127200D03*
X127913300Y-154127200D03*
%TD*%
D21*
%TO.C,R8B1*%
X119888000Y-113919000D03*
X119888000Y-117019000D03*
%TD*%
M02*
