%TF.GenerationSoftware,KiCad,Pcbnew,7.0.8*%
%TF.CreationDate,2024-05-16T20:38:27+02:00*%
%TF.ProjectId,FTCMS_V2,4654434d-535f-4563-922e-6b696361645f,rev?*%
%TF.SameCoordinates,Original*%
%TF.FileFunction,Legend,Top*%
%TF.FilePolarity,Positive*%
%FSLAX46Y46*%
G04 Gerber Fmt 4.6, Leading zero omitted, Abs format (unit mm)*
G04 Created by KiCad (PCBNEW 7.0.8) date 2024-05-16 20:38:27*
%MOMM*%
%LPD*%
G01*
G04 APERTURE LIST*
%ADD10C,0.300000*%
%ADD11C,0.150000*%
%ADD12C,0.120000*%
G04 APERTURE END LIST*
D10*
X102599400Y-105688917D02*
X102670828Y-105474632D01*
X102670828Y-105474632D02*
X102670828Y-105117489D01*
X102670828Y-105117489D02*
X102599400Y-104974632D01*
X102599400Y-104974632D02*
X102527971Y-104903203D01*
X102527971Y-104903203D02*
X102385114Y-104831774D01*
X102385114Y-104831774D02*
X102242257Y-104831774D01*
X102242257Y-104831774D02*
X102099400Y-104903203D01*
X102099400Y-104903203D02*
X102027971Y-104974632D01*
X102027971Y-104974632D02*
X101956542Y-105117489D01*
X101956542Y-105117489D02*
X101885114Y-105403203D01*
X101885114Y-105403203D02*
X101813685Y-105546060D01*
X101813685Y-105546060D02*
X101742257Y-105617489D01*
X101742257Y-105617489D02*
X101599400Y-105688917D01*
X101599400Y-105688917D02*
X101456542Y-105688917D01*
X101456542Y-105688917D02*
X101313685Y-105617489D01*
X101313685Y-105617489D02*
X101242257Y-105546060D01*
X101242257Y-105546060D02*
X101170828Y-105403203D01*
X101170828Y-105403203D02*
X101170828Y-105046060D01*
X101170828Y-105046060D02*
X101242257Y-104831774D01*
X102670828Y-104188918D02*
X101170828Y-104188918D01*
X101170828Y-104188918D02*
X101170828Y-103617489D01*
X101170828Y-103617489D02*
X101242257Y-103474632D01*
X101242257Y-103474632D02*
X101313685Y-103403203D01*
X101313685Y-103403203D02*
X101456542Y-103331775D01*
X101456542Y-103331775D02*
X101670828Y-103331775D01*
X101670828Y-103331775D02*
X101813685Y-103403203D01*
X101813685Y-103403203D02*
X101885114Y-103474632D01*
X101885114Y-103474632D02*
X101956542Y-103617489D01*
X101956542Y-103617489D02*
X101956542Y-104188918D01*
X102670828Y-102688918D02*
X101170828Y-102688918D01*
X102670828Y-113491489D02*
X101670828Y-113491489D01*
X101170828Y-113491489D02*
X101242257Y-113562917D01*
X101242257Y-113562917D02*
X101313685Y-113491489D01*
X101313685Y-113491489D02*
X101242257Y-113420060D01*
X101242257Y-113420060D02*
X101170828Y-113491489D01*
X101170828Y-113491489D02*
X101313685Y-113491489D01*
X102599400Y-112848631D02*
X102670828Y-112705774D01*
X102670828Y-112705774D02*
X102670828Y-112420060D01*
X102670828Y-112420060D02*
X102599400Y-112277203D01*
X102599400Y-112277203D02*
X102456542Y-112205774D01*
X102456542Y-112205774D02*
X102385114Y-112205774D01*
X102385114Y-112205774D02*
X102242257Y-112277203D01*
X102242257Y-112277203D02*
X102170828Y-112420060D01*
X102170828Y-112420060D02*
X102170828Y-112634346D01*
X102170828Y-112634346D02*
X102099400Y-112777203D01*
X102099400Y-112777203D02*
X101956542Y-112848631D01*
X101956542Y-112848631D02*
X101885114Y-112848631D01*
X101885114Y-112848631D02*
X101742257Y-112777203D01*
X101742257Y-112777203D02*
X101670828Y-112634346D01*
X101670828Y-112634346D02*
X101670828Y-112420060D01*
X101670828Y-112420060D02*
X101742257Y-112277203D01*
X102670828Y-111348631D02*
X102599400Y-111491488D01*
X102599400Y-111491488D02*
X102527971Y-111562917D01*
X102527971Y-111562917D02*
X102385114Y-111634345D01*
X102385114Y-111634345D02*
X101956542Y-111634345D01*
X101956542Y-111634345D02*
X101813685Y-111562917D01*
X101813685Y-111562917D02*
X101742257Y-111491488D01*
X101742257Y-111491488D02*
X101670828Y-111348631D01*
X101670828Y-111348631D02*
X101670828Y-111134345D01*
X101670828Y-111134345D02*
X101742257Y-110991488D01*
X101742257Y-110991488D02*
X101813685Y-110920060D01*
X101813685Y-110920060D02*
X101956542Y-110848631D01*
X101956542Y-110848631D02*
X102385114Y-110848631D01*
X102385114Y-110848631D02*
X102527971Y-110920060D01*
X102527971Y-110920060D02*
X102599400Y-110991488D01*
X102599400Y-110991488D02*
X102670828Y-111134345D01*
X102670828Y-111134345D02*
X102670828Y-111348631D01*
X102599400Y-110277202D02*
X102670828Y-110062917D01*
X102670828Y-110062917D02*
X102670828Y-109705774D01*
X102670828Y-109705774D02*
X102599400Y-109562917D01*
X102599400Y-109562917D02*
X102527971Y-109491488D01*
X102527971Y-109491488D02*
X102385114Y-109420059D01*
X102385114Y-109420059D02*
X102242257Y-109420059D01*
X102242257Y-109420059D02*
X102099400Y-109491488D01*
X102099400Y-109491488D02*
X102027971Y-109562917D01*
X102027971Y-109562917D02*
X101956542Y-109705774D01*
X101956542Y-109705774D02*
X101885114Y-109991488D01*
X101885114Y-109991488D02*
X101813685Y-110134345D01*
X101813685Y-110134345D02*
X101742257Y-110205774D01*
X101742257Y-110205774D02*
X101599400Y-110277202D01*
X101599400Y-110277202D02*
X101456542Y-110277202D01*
X101456542Y-110277202D02*
X101313685Y-110205774D01*
X101313685Y-110205774D02*
X101242257Y-110134345D01*
X101242257Y-110134345D02*
X101170828Y-109991488D01*
X101170828Y-109991488D02*
X101170828Y-109634345D01*
X101170828Y-109634345D02*
X101242257Y-109420059D01*
X102670828Y-108777203D02*
X101170828Y-108777203D01*
X101170828Y-108777203D02*
X101170828Y-108205774D01*
X101170828Y-108205774D02*
X101242257Y-108062917D01*
X101242257Y-108062917D02*
X101313685Y-107991488D01*
X101313685Y-107991488D02*
X101456542Y-107920060D01*
X101456542Y-107920060D02*
X101670828Y-107920060D01*
X101670828Y-107920060D02*
X101813685Y-107991488D01*
X101813685Y-107991488D02*
X101885114Y-108062917D01*
X101885114Y-108062917D02*
X101956542Y-108205774D01*
X101956542Y-108205774D02*
X101956542Y-108777203D01*
X102670828Y-107277203D02*
X101170828Y-107277203D01*
D11*
X112685980Y-144996366D02*
X112733600Y-145043985D01*
X112733600Y-145043985D02*
X112781219Y-145186842D01*
X112781219Y-145186842D02*
X112781219Y-145282080D01*
X112781219Y-145282080D02*
X112733600Y-145424937D01*
X112733600Y-145424937D02*
X112638361Y-145520175D01*
X112638361Y-145520175D02*
X112543123Y-145567794D01*
X112543123Y-145567794D02*
X112352647Y-145615413D01*
X112352647Y-145615413D02*
X112209790Y-145615413D01*
X112209790Y-145615413D02*
X112019314Y-145567794D01*
X112019314Y-145567794D02*
X111924076Y-145520175D01*
X111924076Y-145520175D02*
X111828838Y-145424937D01*
X111828838Y-145424937D02*
X111781219Y-145282080D01*
X111781219Y-145282080D02*
X111781219Y-145186842D01*
X111781219Y-145186842D02*
X111828838Y-145043985D01*
X111828838Y-145043985D02*
X111876457Y-144996366D01*
X111781219Y-144663032D02*
X111781219Y-143996366D01*
X111781219Y-143996366D02*
X112781219Y-144424937D01*
X141295238Y-150304819D02*
X141295238Y-149304819D01*
X141295238Y-149304819D02*
X141533333Y-149304819D01*
X141533333Y-149304819D02*
X141676190Y-149352438D01*
X141676190Y-149352438D02*
X141771428Y-149447676D01*
X141771428Y-149447676D02*
X141819047Y-149542914D01*
X141819047Y-149542914D02*
X141866666Y-149733390D01*
X141866666Y-149733390D02*
X141866666Y-149876247D01*
X141866666Y-149876247D02*
X141819047Y-150066723D01*
X141819047Y-150066723D02*
X141771428Y-150161961D01*
X141771428Y-150161961D02*
X141676190Y-150257200D01*
X141676190Y-150257200D02*
X141533333Y-150304819D01*
X141533333Y-150304819D02*
X141295238Y-150304819D01*
X142295238Y-150304819D02*
X142295238Y-149304819D01*
X142723809Y-150257200D02*
X142866666Y-150304819D01*
X142866666Y-150304819D02*
X143104761Y-150304819D01*
X143104761Y-150304819D02*
X143199999Y-150257200D01*
X143199999Y-150257200D02*
X143247618Y-150209580D01*
X143247618Y-150209580D02*
X143295237Y-150114342D01*
X143295237Y-150114342D02*
X143295237Y-150019104D01*
X143295237Y-150019104D02*
X143247618Y-149923866D01*
X143247618Y-149923866D02*
X143199999Y-149876247D01*
X143199999Y-149876247D02*
X143104761Y-149828628D01*
X143104761Y-149828628D02*
X142914285Y-149781009D01*
X142914285Y-149781009D02*
X142819047Y-149733390D01*
X142819047Y-149733390D02*
X142771428Y-149685771D01*
X142771428Y-149685771D02*
X142723809Y-149590533D01*
X142723809Y-149590533D02*
X142723809Y-149495295D01*
X142723809Y-149495295D02*
X142771428Y-149400057D01*
X142771428Y-149400057D02*
X142819047Y-149352438D01*
X142819047Y-149352438D02*
X142914285Y-149304819D01*
X142914285Y-149304819D02*
X143152380Y-149304819D01*
X143152380Y-149304819D02*
X143295237Y-149352438D01*
X144295237Y-150209580D02*
X144247618Y-150257200D01*
X144247618Y-150257200D02*
X144104761Y-150304819D01*
X144104761Y-150304819D02*
X144009523Y-150304819D01*
X144009523Y-150304819D02*
X143866666Y-150257200D01*
X143866666Y-150257200D02*
X143771428Y-150161961D01*
X143771428Y-150161961D02*
X143723809Y-150066723D01*
X143723809Y-150066723D02*
X143676190Y-149876247D01*
X143676190Y-149876247D02*
X143676190Y-149733390D01*
X143676190Y-149733390D02*
X143723809Y-149542914D01*
X143723809Y-149542914D02*
X143771428Y-149447676D01*
X143771428Y-149447676D02*
X143866666Y-149352438D01*
X143866666Y-149352438D02*
X144009523Y-149304819D01*
X144009523Y-149304819D02*
X144104761Y-149304819D01*
X144104761Y-149304819D02*
X144247618Y-149352438D01*
X144247618Y-149352438D02*
X144295237Y-149400057D01*
X144723809Y-150304819D02*
X144723809Y-149304819D01*
X144723809Y-149781009D02*
X145295237Y-149781009D01*
X145295237Y-150304819D02*
X145295237Y-149304819D01*
X146390476Y-149304819D02*
X146961904Y-149304819D01*
X146676190Y-150304819D02*
X146676190Y-149304819D01*
X147295238Y-150304819D02*
X147295238Y-149638152D01*
X147295238Y-149304819D02*
X147247619Y-149352438D01*
X147247619Y-149352438D02*
X147295238Y-149400057D01*
X147295238Y-149400057D02*
X147342857Y-149352438D01*
X147342857Y-149352438D02*
X147295238Y-149304819D01*
X147295238Y-149304819D02*
X147295238Y-149400057D01*
X147771428Y-150304819D02*
X147771428Y-149638152D01*
X147771428Y-149733390D02*
X147819047Y-149685771D01*
X147819047Y-149685771D02*
X147914285Y-149638152D01*
X147914285Y-149638152D02*
X148057142Y-149638152D01*
X148057142Y-149638152D02*
X148152380Y-149685771D01*
X148152380Y-149685771D02*
X148199999Y-149781009D01*
X148199999Y-149781009D02*
X148199999Y-150304819D01*
X148199999Y-149781009D02*
X148247618Y-149685771D01*
X148247618Y-149685771D02*
X148342856Y-149638152D01*
X148342856Y-149638152D02*
X148485713Y-149638152D01*
X148485713Y-149638152D02*
X148580952Y-149685771D01*
X148580952Y-149685771D02*
X148628571Y-149781009D01*
X148628571Y-149781009D02*
X148628571Y-150304819D01*
X149485713Y-150257200D02*
X149390475Y-150304819D01*
X149390475Y-150304819D02*
X149199999Y-150304819D01*
X149199999Y-150304819D02*
X149104761Y-150257200D01*
X149104761Y-150257200D02*
X149057142Y-150161961D01*
X149057142Y-150161961D02*
X149057142Y-149781009D01*
X149057142Y-149781009D02*
X149104761Y-149685771D01*
X149104761Y-149685771D02*
X149199999Y-149638152D01*
X149199999Y-149638152D02*
X149390475Y-149638152D01*
X149390475Y-149638152D02*
X149485713Y-149685771D01*
X149485713Y-149685771D02*
X149533332Y-149781009D01*
X149533332Y-149781009D02*
X149533332Y-149876247D01*
X149533332Y-149876247D02*
X149057142Y-149971485D01*
X149961904Y-150304819D02*
X149961904Y-149638152D01*
X149961904Y-149828628D02*
X150009523Y-149733390D01*
X150009523Y-149733390D02*
X150057142Y-149685771D01*
X150057142Y-149685771D02*
X150152380Y-149638152D01*
X150152380Y-149638152D02*
X150247618Y-149638152D01*
X115733980Y-151293366D02*
X115781600Y-151340985D01*
X115781600Y-151340985D02*
X115829219Y-151483842D01*
X115829219Y-151483842D02*
X115829219Y-151579080D01*
X115829219Y-151579080D02*
X115781600Y-151721937D01*
X115781600Y-151721937D02*
X115686361Y-151817175D01*
X115686361Y-151817175D02*
X115591123Y-151864794D01*
X115591123Y-151864794D02*
X115400647Y-151912413D01*
X115400647Y-151912413D02*
X115257790Y-151912413D01*
X115257790Y-151912413D02*
X115067314Y-151864794D01*
X115067314Y-151864794D02*
X114972076Y-151817175D01*
X114972076Y-151817175D02*
X114876838Y-151721937D01*
X114876838Y-151721937D02*
X114829219Y-151579080D01*
X114829219Y-151579080D02*
X114829219Y-151483842D01*
X114829219Y-151483842D02*
X114876838Y-151340985D01*
X114876838Y-151340985D02*
X114924457Y-151293366D01*
X115162552Y-150436223D02*
X115829219Y-150436223D01*
X114781600Y-150674318D02*
X115495885Y-150912413D01*
X115495885Y-150912413D02*
X115495885Y-150293366D01*
X105880819Y-104973333D02*
X106595104Y-104973333D01*
X106595104Y-104973333D02*
X106737961Y-105020952D01*
X106737961Y-105020952D02*
X106833200Y-105116190D01*
X106833200Y-105116190D02*
X106880819Y-105259047D01*
X106880819Y-105259047D02*
X106880819Y-105354285D01*
X106880819Y-104497142D02*
X105880819Y-104497142D01*
X105880819Y-104497142D02*
X105880819Y-104116190D01*
X105880819Y-104116190D02*
X105928438Y-104020952D01*
X105928438Y-104020952D02*
X105976057Y-103973333D01*
X105976057Y-103973333D02*
X106071295Y-103925714D01*
X106071295Y-103925714D02*
X106214152Y-103925714D01*
X106214152Y-103925714D02*
X106309390Y-103973333D01*
X106309390Y-103973333D02*
X106357009Y-104020952D01*
X106357009Y-104020952D02*
X106404628Y-104116190D01*
X106404628Y-104116190D02*
X106404628Y-104497142D01*
X105976057Y-103544761D02*
X105928438Y-103497142D01*
X105928438Y-103497142D02*
X105880819Y-103401904D01*
X105880819Y-103401904D02*
X105880819Y-103163809D01*
X105880819Y-103163809D02*
X105928438Y-103068571D01*
X105928438Y-103068571D02*
X105976057Y-103020952D01*
X105976057Y-103020952D02*
X106071295Y-102973333D01*
X106071295Y-102973333D02*
X106166533Y-102973333D01*
X106166533Y-102973333D02*
X106309390Y-103020952D01*
X106309390Y-103020952D02*
X106880819Y-103592380D01*
X106880819Y-103592380D02*
X106880819Y-102973333D01*
X178261180Y-132621257D02*
X178308800Y-132668876D01*
X178308800Y-132668876D02*
X178356419Y-132811733D01*
X178356419Y-132811733D02*
X178356419Y-132906971D01*
X178356419Y-132906971D02*
X178308800Y-133049828D01*
X178308800Y-133049828D02*
X178213561Y-133145066D01*
X178213561Y-133145066D02*
X178118323Y-133192685D01*
X178118323Y-133192685D02*
X177927847Y-133240304D01*
X177927847Y-133240304D02*
X177784990Y-133240304D01*
X177784990Y-133240304D02*
X177594514Y-133192685D01*
X177594514Y-133192685D02*
X177499276Y-133145066D01*
X177499276Y-133145066D02*
X177404038Y-133049828D01*
X177404038Y-133049828D02*
X177356419Y-132906971D01*
X177356419Y-132906971D02*
X177356419Y-132811733D01*
X177356419Y-132811733D02*
X177404038Y-132668876D01*
X177404038Y-132668876D02*
X177451657Y-132621257D01*
X177451657Y-132240304D02*
X177404038Y-132192685D01*
X177404038Y-132192685D02*
X177356419Y-132097447D01*
X177356419Y-132097447D02*
X177356419Y-131859352D01*
X177356419Y-131859352D02*
X177404038Y-131764114D01*
X177404038Y-131764114D02*
X177451657Y-131716495D01*
X177451657Y-131716495D02*
X177546895Y-131668876D01*
X177546895Y-131668876D02*
X177642133Y-131668876D01*
X177642133Y-131668876D02*
X177784990Y-131716495D01*
X177784990Y-131716495D02*
X178356419Y-132287923D01*
X178356419Y-132287923D02*
X178356419Y-131668876D01*
X177689752Y-130811733D02*
X178356419Y-130811733D01*
X177308800Y-131049828D02*
X178023085Y-131287923D01*
X178023085Y-131287923D02*
X178023085Y-130668876D01*
X139412742Y-139530380D02*
X139365123Y-139578000D01*
X139365123Y-139578000D02*
X139222266Y-139625619D01*
X139222266Y-139625619D02*
X139127028Y-139625619D01*
X139127028Y-139625619D02*
X138984171Y-139578000D01*
X138984171Y-139578000D02*
X138888933Y-139482761D01*
X138888933Y-139482761D02*
X138841314Y-139387523D01*
X138841314Y-139387523D02*
X138793695Y-139197047D01*
X138793695Y-139197047D02*
X138793695Y-139054190D01*
X138793695Y-139054190D02*
X138841314Y-138863714D01*
X138841314Y-138863714D02*
X138888933Y-138768476D01*
X138888933Y-138768476D02*
X138984171Y-138673238D01*
X138984171Y-138673238D02*
X139127028Y-138625619D01*
X139127028Y-138625619D02*
X139222266Y-138625619D01*
X139222266Y-138625619D02*
X139365123Y-138673238D01*
X139365123Y-138673238D02*
X139412742Y-138720857D01*
X139793695Y-138720857D02*
X139841314Y-138673238D01*
X139841314Y-138673238D02*
X139936552Y-138625619D01*
X139936552Y-138625619D02*
X140174647Y-138625619D01*
X140174647Y-138625619D02*
X140269885Y-138673238D01*
X140269885Y-138673238D02*
X140317504Y-138720857D01*
X140317504Y-138720857D02*
X140365123Y-138816095D01*
X140365123Y-138816095D02*
X140365123Y-138911333D01*
X140365123Y-138911333D02*
X140317504Y-139054190D01*
X140317504Y-139054190D02*
X139746076Y-139625619D01*
X139746076Y-139625619D02*
X140365123Y-139625619D01*
X140746076Y-138720857D02*
X140793695Y-138673238D01*
X140793695Y-138673238D02*
X140888933Y-138625619D01*
X140888933Y-138625619D02*
X141127028Y-138625619D01*
X141127028Y-138625619D02*
X141222266Y-138673238D01*
X141222266Y-138673238D02*
X141269885Y-138720857D01*
X141269885Y-138720857D02*
X141317504Y-138816095D01*
X141317504Y-138816095D02*
X141317504Y-138911333D01*
X141317504Y-138911333D02*
X141269885Y-139054190D01*
X141269885Y-139054190D02*
X140698457Y-139625619D01*
X140698457Y-139625619D02*
X141317504Y-139625619D01*
X120028333Y-150514580D02*
X119980714Y-150562200D01*
X119980714Y-150562200D02*
X119837857Y-150609819D01*
X119837857Y-150609819D02*
X119742619Y-150609819D01*
X119742619Y-150609819D02*
X119599762Y-150562200D01*
X119599762Y-150562200D02*
X119504524Y-150466961D01*
X119504524Y-150466961D02*
X119456905Y-150371723D01*
X119456905Y-150371723D02*
X119409286Y-150181247D01*
X119409286Y-150181247D02*
X119409286Y-150038390D01*
X119409286Y-150038390D02*
X119456905Y-149847914D01*
X119456905Y-149847914D02*
X119504524Y-149752676D01*
X119504524Y-149752676D02*
X119599762Y-149657438D01*
X119599762Y-149657438D02*
X119742619Y-149609819D01*
X119742619Y-149609819D02*
X119837857Y-149609819D01*
X119837857Y-149609819D02*
X119980714Y-149657438D01*
X119980714Y-149657438D02*
X120028333Y-149705057D01*
X120361667Y-149609819D02*
X120980714Y-149609819D01*
X120980714Y-149609819D02*
X120647381Y-149990771D01*
X120647381Y-149990771D02*
X120790238Y-149990771D01*
X120790238Y-149990771D02*
X120885476Y-150038390D01*
X120885476Y-150038390D02*
X120933095Y-150086009D01*
X120933095Y-150086009D02*
X120980714Y-150181247D01*
X120980714Y-150181247D02*
X120980714Y-150419342D01*
X120980714Y-150419342D02*
X120933095Y-150514580D01*
X120933095Y-150514580D02*
X120885476Y-150562200D01*
X120885476Y-150562200D02*
X120790238Y-150609819D01*
X120790238Y-150609819D02*
X120504524Y-150609819D01*
X120504524Y-150609819D02*
X120409286Y-150562200D01*
X120409286Y-150562200D02*
X120361667Y-150514580D01*
X179854819Y-120047619D02*
X179378628Y-120380952D01*
X179854819Y-120619047D02*
X178854819Y-120619047D01*
X178854819Y-120619047D02*
X178854819Y-120238095D01*
X178854819Y-120238095D02*
X178902438Y-120142857D01*
X178902438Y-120142857D02*
X178950057Y-120095238D01*
X178950057Y-120095238D02*
X179045295Y-120047619D01*
X179045295Y-120047619D02*
X179188152Y-120047619D01*
X179188152Y-120047619D02*
X179283390Y-120095238D01*
X179283390Y-120095238D02*
X179331009Y-120142857D01*
X179331009Y-120142857D02*
X179378628Y-120238095D01*
X179378628Y-120238095D02*
X179378628Y-120619047D01*
X178854819Y-119761904D02*
X178854819Y-119190476D01*
X179854819Y-119476190D02*
X178854819Y-119476190D01*
X178854819Y-118952380D02*
X178854819Y-118285714D01*
X178854819Y-118285714D02*
X179854819Y-118714285D01*
X172825580Y-153957257D02*
X172873200Y-154004876D01*
X172873200Y-154004876D02*
X172920819Y-154147733D01*
X172920819Y-154147733D02*
X172920819Y-154242971D01*
X172920819Y-154242971D02*
X172873200Y-154385828D01*
X172873200Y-154385828D02*
X172777961Y-154481066D01*
X172777961Y-154481066D02*
X172682723Y-154528685D01*
X172682723Y-154528685D02*
X172492247Y-154576304D01*
X172492247Y-154576304D02*
X172349390Y-154576304D01*
X172349390Y-154576304D02*
X172158914Y-154528685D01*
X172158914Y-154528685D02*
X172063676Y-154481066D01*
X172063676Y-154481066D02*
X171968438Y-154385828D01*
X171968438Y-154385828D02*
X171920819Y-154242971D01*
X171920819Y-154242971D02*
X171920819Y-154147733D01*
X171920819Y-154147733D02*
X171968438Y-154004876D01*
X171968438Y-154004876D02*
X172016057Y-153957257D01*
X171920819Y-153623923D02*
X171920819Y-153004876D01*
X171920819Y-153004876D02*
X172301771Y-153338209D01*
X172301771Y-153338209D02*
X172301771Y-153195352D01*
X172301771Y-153195352D02*
X172349390Y-153100114D01*
X172349390Y-153100114D02*
X172397009Y-153052495D01*
X172397009Y-153052495D02*
X172492247Y-153004876D01*
X172492247Y-153004876D02*
X172730342Y-153004876D01*
X172730342Y-153004876D02*
X172825580Y-153052495D01*
X172825580Y-153052495D02*
X172873200Y-153100114D01*
X172873200Y-153100114D02*
X172920819Y-153195352D01*
X172920819Y-153195352D02*
X172920819Y-153481066D01*
X172920819Y-153481066D02*
X172873200Y-153576304D01*
X172873200Y-153576304D02*
X172825580Y-153623923D01*
X172920819Y-152052495D02*
X172920819Y-152623923D01*
X172920819Y-152338209D02*
X171920819Y-152338209D01*
X171920819Y-152338209D02*
X172063676Y-152433447D01*
X172063676Y-152433447D02*
X172158914Y-152528685D01*
X172158914Y-152528685D02*
X172206533Y-152623923D01*
X183546819Y-136837657D02*
X183070628Y-137170990D01*
X183546819Y-137409085D02*
X182546819Y-137409085D01*
X182546819Y-137409085D02*
X182546819Y-137028133D01*
X182546819Y-137028133D02*
X182594438Y-136932895D01*
X182594438Y-136932895D02*
X182642057Y-136885276D01*
X182642057Y-136885276D02*
X182737295Y-136837657D01*
X182737295Y-136837657D02*
X182880152Y-136837657D01*
X182880152Y-136837657D02*
X182975390Y-136885276D01*
X182975390Y-136885276D02*
X183023009Y-136932895D01*
X183023009Y-136932895D02*
X183070628Y-137028133D01*
X183070628Y-137028133D02*
X183070628Y-137409085D01*
X182546819Y-136504323D02*
X182546819Y-135885276D01*
X182546819Y-135885276D02*
X182927771Y-136218609D01*
X182927771Y-136218609D02*
X182927771Y-136075752D01*
X182927771Y-136075752D02*
X182975390Y-135980514D01*
X182975390Y-135980514D02*
X183023009Y-135932895D01*
X183023009Y-135932895D02*
X183118247Y-135885276D01*
X183118247Y-135885276D02*
X183356342Y-135885276D01*
X183356342Y-135885276D02*
X183451580Y-135932895D01*
X183451580Y-135932895D02*
X183499200Y-135980514D01*
X183499200Y-135980514D02*
X183546819Y-136075752D01*
X183546819Y-136075752D02*
X183546819Y-136361466D01*
X183546819Y-136361466D02*
X183499200Y-136456704D01*
X183499200Y-136456704D02*
X183451580Y-136504323D01*
X182546819Y-135266228D02*
X182546819Y-135170990D01*
X182546819Y-135170990D02*
X182594438Y-135075752D01*
X182594438Y-135075752D02*
X182642057Y-135028133D01*
X182642057Y-135028133D02*
X182737295Y-134980514D01*
X182737295Y-134980514D02*
X182927771Y-134932895D01*
X182927771Y-134932895D02*
X183165866Y-134932895D01*
X183165866Y-134932895D02*
X183356342Y-134980514D01*
X183356342Y-134980514D02*
X183451580Y-135028133D01*
X183451580Y-135028133D02*
X183499200Y-135075752D01*
X183499200Y-135075752D02*
X183546819Y-135170990D01*
X183546819Y-135170990D02*
X183546819Y-135266228D01*
X183546819Y-135266228D02*
X183499200Y-135361466D01*
X183499200Y-135361466D02*
X183451580Y-135409085D01*
X183451580Y-135409085D02*
X183356342Y-135456704D01*
X183356342Y-135456704D02*
X183165866Y-135504323D01*
X183165866Y-135504323D02*
X182927771Y-135504323D01*
X182927771Y-135504323D02*
X182737295Y-135456704D01*
X182737295Y-135456704D02*
X182642057Y-135409085D01*
X182642057Y-135409085D02*
X182594438Y-135361466D01*
X182594438Y-135361466D02*
X182546819Y-135266228D01*
X125718819Y-117088047D02*
X125242628Y-117421380D01*
X125718819Y-117659475D02*
X124718819Y-117659475D01*
X124718819Y-117659475D02*
X124718819Y-117278523D01*
X124718819Y-117278523D02*
X124766438Y-117183285D01*
X124766438Y-117183285D02*
X124814057Y-117135666D01*
X124814057Y-117135666D02*
X124909295Y-117088047D01*
X124909295Y-117088047D02*
X125052152Y-117088047D01*
X125052152Y-117088047D02*
X125147390Y-117135666D01*
X125147390Y-117135666D02*
X125195009Y-117183285D01*
X125195009Y-117183285D02*
X125242628Y-117278523D01*
X125242628Y-117278523D02*
X125242628Y-117659475D01*
X125718819Y-116135666D02*
X125718819Y-116707094D01*
X125718819Y-116421380D02*
X124718819Y-116421380D01*
X124718819Y-116421380D02*
X124861676Y-116516618D01*
X124861676Y-116516618D02*
X124956914Y-116611856D01*
X124956914Y-116611856D02*
X125004533Y-116707094D01*
X124718819Y-115516618D02*
X124718819Y-115421380D01*
X124718819Y-115421380D02*
X124766438Y-115326142D01*
X124766438Y-115326142D02*
X124814057Y-115278523D01*
X124814057Y-115278523D02*
X124909295Y-115230904D01*
X124909295Y-115230904D02*
X125099771Y-115183285D01*
X125099771Y-115183285D02*
X125337866Y-115183285D01*
X125337866Y-115183285D02*
X125528342Y-115230904D01*
X125528342Y-115230904D02*
X125623580Y-115278523D01*
X125623580Y-115278523D02*
X125671200Y-115326142D01*
X125671200Y-115326142D02*
X125718819Y-115421380D01*
X125718819Y-115421380D02*
X125718819Y-115516618D01*
X125718819Y-115516618D02*
X125671200Y-115611856D01*
X125671200Y-115611856D02*
X125623580Y-115659475D01*
X125623580Y-115659475D02*
X125528342Y-115707094D01*
X125528342Y-115707094D02*
X125337866Y-115754713D01*
X125337866Y-115754713D02*
X125099771Y-115754713D01*
X125099771Y-115754713D02*
X124909295Y-115707094D01*
X124909295Y-115707094D02*
X124814057Y-115659475D01*
X124814057Y-115659475D02*
X124766438Y-115611856D01*
X124766438Y-115611856D02*
X124718819Y-115516618D01*
X125195009Y-114421380D02*
X125242628Y-114278523D01*
X125242628Y-114278523D02*
X125290247Y-114230904D01*
X125290247Y-114230904D02*
X125385485Y-114183285D01*
X125385485Y-114183285D02*
X125528342Y-114183285D01*
X125528342Y-114183285D02*
X125623580Y-114230904D01*
X125623580Y-114230904D02*
X125671200Y-114278523D01*
X125671200Y-114278523D02*
X125718819Y-114373761D01*
X125718819Y-114373761D02*
X125718819Y-114754713D01*
X125718819Y-114754713D02*
X124718819Y-114754713D01*
X124718819Y-114754713D02*
X124718819Y-114421380D01*
X124718819Y-114421380D02*
X124766438Y-114326142D01*
X124766438Y-114326142D02*
X124814057Y-114278523D01*
X124814057Y-114278523D02*
X124909295Y-114230904D01*
X124909295Y-114230904D02*
X125004533Y-114230904D01*
X125004533Y-114230904D02*
X125099771Y-114278523D01*
X125099771Y-114278523D02*
X125147390Y-114326142D01*
X125147390Y-114326142D02*
X125195009Y-114421380D01*
X125195009Y-114421380D02*
X125195009Y-114754713D01*
X125718819Y-113230904D02*
X125718819Y-113802332D01*
X125718819Y-113516618D02*
X124718819Y-113516618D01*
X124718819Y-113516618D02*
X124861676Y-113611856D01*
X124861676Y-113611856D02*
X124956914Y-113707094D01*
X124956914Y-113707094D02*
X125004533Y-113802332D01*
X115733980Y-142810866D02*
X115781600Y-142858485D01*
X115781600Y-142858485D02*
X115829219Y-143001342D01*
X115829219Y-143001342D02*
X115829219Y-143096580D01*
X115829219Y-143096580D02*
X115781600Y-143239437D01*
X115781600Y-143239437D02*
X115686361Y-143334675D01*
X115686361Y-143334675D02*
X115591123Y-143382294D01*
X115591123Y-143382294D02*
X115400647Y-143429913D01*
X115400647Y-143429913D02*
X115257790Y-143429913D01*
X115257790Y-143429913D02*
X115067314Y-143382294D01*
X115067314Y-143382294D02*
X114972076Y-143334675D01*
X114972076Y-143334675D02*
X114876838Y-143239437D01*
X114876838Y-143239437D02*
X114829219Y-143096580D01*
X114829219Y-143096580D02*
X114829219Y-143001342D01*
X114829219Y-143001342D02*
X114876838Y-142858485D01*
X114876838Y-142858485D02*
X114924457Y-142810866D01*
X115257790Y-142239437D02*
X115210171Y-142334675D01*
X115210171Y-142334675D02*
X115162552Y-142382294D01*
X115162552Y-142382294D02*
X115067314Y-142429913D01*
X115067314Y-142429913D02*
X115019695Y-142429913D01*
X115019695Y-142429913D02*
X114924457Y-142382294D01*
X114924457Y-142382294D02*
X114876838Y-142334675D01*
X114876838Y-142334675D02*
X114829219Y-142239437D01*
X114829219Y-142239437D02*
X114829219Y-142048961D01*
X114829219Y-142048961D02*
X114876838Y-141953723D01*
X114876838Y-141953723D02*
X114924457Y-141906104D01*
X114924457Y-141906104D02*
X115019695Y-141858485D01*
X115019695Y-141858485D02*
X115067314Y-141858485D01*
X115067314Y-141858485D02*
X115162552Y-141906104D01*
X115162552Y-141906104D02*
X115210171Y-141953723D01*
X115210171Y-141953723D02*
X115257790Y-142048961D01*
X115257790Y-142048961D02*
X115257790Y-142239437D01*
X115257790Y-142239437D02*
X115305409Y-142334675D01*
X115305409Y-142334675D02*
X115353028Y-142382294D01*
X115353028Y-142382294D02*
X115448266Y-142429913D01*
X115448266Y-142429913D02*
X115638742Y-142429913D01*
X115638742Y-142429913D02*
X115733980Y-142382294D01*
X115733980Y-142382294D02*
X115781600Y-142334675D01*
X115781600Y-142334675D02*
X115829219Y-142239437D01*
X115829219Y-142239437D02*
X115829219Y-142048961D01*
X115829219Y-142048961D02*
X115781600Y-141953723D01*
X115781600Y-141953723D02*
X115733980Y-141906104D01*
X115733980Y-141906104D02*
X115638742Y-141858485D01*
X115638742Y-141858485D02*
X115448266Y-141858485D01*
X115448266Y-141858485D02*
X115353028Y-141906104D01*
X115353028Y-141906104D02*
X115305409Y-141953723D01*
X115305409Y-141953723D02*
X115257790Y-142048961D01*
X119144642Y-133107580D02*
X119097023Y-133155200D01*
X119097023Y-133155200D02*
X118954166Y-133202819D01*
X118954166Y-133202819D02*
X118858928Y-133202819D01*
X118858928Y-133202819D02*
X118716071Y-133155200D01*
X118716071Y-133155200D02*
X118620833Y-133059961D01*
X118620833Y-133059961D02*
X118573214Y-132964723D01*
X118573214Y-132964723D02*
X118525595Y-132774247D01*
X118525595Y-132774247D02*
X118525595Y-132631390D01*
X118525595Y-132631390D02*
X118573214Y-132440914D01*
X118573214Y-132440914D02*
X118620833Y-132345676D01*
X118620833Y-132345676D02*
X118716071Y-132250438D01*
X118716071Y-132250438D02*
X118858928Y-132202819D01*
X118858928Y-132202819D02*
X118954166Y-132202819D01*
X118954166Y-132202819D02*
X119097023Y-132250438D01*
X119097023Y-132250438D02*
X119144642Y-132298057D01*
X120097023Y-133202819D02*
X119525595Y-133202819D01*
X119811309Y-133202819D02*
X119811309Y-132202819D01*
X119811309Y-132202819D02*
X119716071Y-132345676D01*
X119716071Y-132345676D02*
X119620833Y-132440914D01*
X119620833Y-132440914D02*
X119525595Y-132488533D01*
X120477976Y-132298057D02*
X120525595Y-132250438D01*
X120525595Y-132250438D02*
X120620833Y-132202819D01*
X120620833Y-132202819D02*
X120858928Y-132202819D01*
X120858928Y-132202819D02*
X120954166Y-132250438D01*
X120954166Y-132250438D02*
X121001785Y-132298057D01*
X121001785Y-132298057D02*
X121049404Y-132393295D01*
X121049404Y-132393295D02*
X121049404Y-132488533D01*
X121049404Y-132488533D02*
X121001785Y-132631390D01*
X121001785Y-132631390D02*
X120430357Y-133202819D01*
X120430357Y-133202819D02*
X121049404Y-133202819D01*
X170135619Y-136786857D02*
X169659428Y-137120190D01*
X170135619Y-137358285D02*
X169135619Y-137358285D01*
X169135619Y-137358285D02*
X169135619Y-136977333D01*
X169135619Y-136977333D02*
X169183238Y-136882095D01*
X169183238Y-136882095D02*
X169230857Y-136834476D01*
X169230857Y-136834476D02*
X169326095Y-136786857D01*
X169326095Y-136786857D02*
X169468952Y-136786857D01*
X169468952Y-136786857D02*
X169564190Y-136834476D01*
X169564190Y-136834476D02*
X169611809Y-136882095D01*
X169611809Y-136882095D02*
X169659428Y-136977333D01*
X169659428Y-136977333D02*
X169659428Y-137358285D01*
X169135619Y-136453523D02*
X169135619Y-135834476D01*
X169135619Y-135834476D02*
X169516571Y-136167809D01*
X169516571Y-136167809D02*
X169516571Y-136024952D01*
X169516571Y-136024952D02*
X169564190Y-135929714D01*
X169564190Y-135929714D02*
X169611809Y-135882095D01*
X169611809Y-135882095D02*
X169707047Y-135834476D01*
X169707047Y-135834476D02*
X169945142Y-135834476D01*
X169945142Y-135834476D02*
X170040380Y-135882095D01*
X170040380Y-135882095D02*
X170088000Y-135929714D01*
X170088000Y-135929714D02*
X170135619Y-136024952D01*
X170135619Y-136024952D02*
X170135619Y-136310666D01*
X170135619Y-136310666D02*
X170088000Y-136405904D01*
X170088000Y-136405904D02*
X170040380Y-136453523D01*
X170135619Y-134882095D02*
X170135619Y-135453523D01*
X170135619Y-135167809D02*
X169135619Y-135167809D01*
X169135619Y-135167809D02*
X169278476Y-135263047D01*
X169278476Y-135263047D02*
X169373714Y-135358285D01*
X169373714Y-135358285D02*
X169421333Y-135453523D01*
X123940819Y-122681857D02*
X123464628Y-123015190D01*
X123940819Y-123253285D02*
X122940819Y-123253285D01*
X122940819Y-123253285D02*
X122940819Y-122872333D01*
X122940819Y-122872333D02*
X122988438Y-122777095D01*
X122988438Y-122777095D02*
X123036057Y-122729476D01*
X123036057Y-122729476D02*
X123131295Y-122681857D01*
X123131295Y-122681857D02*
X123274152Y-122681857D01*
X123274152Y-122681857D02*
X123369390Y-122729476D01*
X123369390Y-122729476D02*
X123417009Y-122777095D01*
X123417009Y-122777095D02*
X123464628Y-122872333D01*
X123464628Y-122872333D02*
X123464628Y-123253285D01*
X123940819Y-122205666D02*
X123940819Y-122015190D01*
X123940819Y-122015190D02*
X123893200Y-121919952D01*
X123893200Y-121919952D02*
X123845580Y-121872333D01*
X123845580Y-121872333D02*
X123702723Y-121777095D01*
X123702723Y-121777095D02*
X123512247Y-121729476D01*
X123512247Y-121729476D02*
X123131295Y-121729476D01*
X123131295Y-121729476D02*
X123036057Y-121777095D01*
X123036057Y-121777095D02*
X122988438Y-121824714D01*
X122988438Y-121824714D02*
X122940819Y-121919952D01*
X122940819Y-121919952D02*
X122940819Y-122110428D01*
X122940819Y-122110428D02*
X122988438Y-122205666D01*
X122988438Y-122205666D02*
X123036057Y-122253285D01*
X123036057Y-122253285D02*
X123131295Y-122300904D01*
X123131295Y-122300904D02*
X123369390Y-122300904D01*
X123369390Y-122300904D02*
X123464628Y-122253285D01*
X123464628Y-122253285D02*
X123512247Y-122205666D01*
X123512247Y-122205666D02*
X123559866Y-122110428D01*
X123559866Y-122110428D02*
X123559866Y-121919952D01*
X123559866Y-121919952D02*
X123512247Y-121824714D01*
X123512247Y-121824714D02*
X123464628Y-121777095D01*
X123464628Y-121777095D02*
X123369390Y-121729476D01*
X123417009Y-120967571D02*
X123464628Y-120824714D01*
X123464628Y-120824714D02*
X123512247Y-120777095D01*
X123512247Y-120777095D02*
X123607485Y-120729476D01*
X123607485Y-120729476D02*
X123750342Y-120729476D01*
X123750342Y-120729476D02*
X123845580Y-120777095D01*
X123845580Y-120777095D02*
X123893200Y-120824714D01*
X123893200Y-120824714D02*
X123940819Y-120919952D01*
X123940819Y-120919952D02*
X123940819Y-121300904D01*
X123940819Y-121300904D02*
X122940819Y-121300904D01*
X122940819Y-121300904D02*
X122940819Y-120967571D01*
X122940819Y-120967571D02*
X122988438Y-120872333D01*
X122988438Y-120872333D02*
X123036057Y-120824714D01*
X123036057Y-120824714D02*
X123131295Y-120777095D01*
X123131295Y-120777095D02*
X123226533Y-120777095D01*
X123226533Y-120777095D02*
X123321771Y-120824714D01*
X123321771Y-120824714D02*
X123369390Y-120872333D01*
X123369390Y-120872333D02*
X123417009Y-120967571D01*
X123417009Y-120967571D02*
X123417009Y-121300904D01*
X123940819Y-119777095D02*
X123940819Y-120348523D01*
X123940819Y-120062809D02*
X122940819Y-120062809D01*
X122940819Y-120062809D02*
X123083676Y-120158047D01*
X123083676Y-120158047D02*
X123178914Y-120253285D01*
X123178914Y-120253285D02*
X123226533Y-120348523D01*
X166854819Y-126973808D02*
X165854819Y-126973808D01*
X166854819Y-126497618D02*
X165854819Y-126497618D01*
X165854819Y-126497618D02*
X165854819Y-126116666D01*
X165854819Y-126116666D02*
X165902438Y-126021428D01*
X165902438Y-126021428D02*
X165950057Y-125973809D01*
X165950057Y-125973809D02*
X166045295Y-125926190D01*
X166045295Y-125926190D02*
X166188152Y-125926190D01*
X166188152Y-125926190D02*
X166283390Y-125973809D01*
X166283390Y-125973809D02*
X166331009Y-126021428D01*
X166331009Y-126021428D02*
X166378628Y-126116666D01*
X166378628Y-126116666D02*
X166378628Y-126497618D01*
X166569104Y-125545237D02*
X166569104Y-125069047D01*
X166854819Y-125640475D02*
X165854819Y-125307142D01*
X165854819Y-125307142D02*
X166854819Y-124973809D01*
X166473866Y-124640475D02*
X166473866Y-123878571D01*
X166807200Y-123449999D02*
X166854819Y-123307142D01*
X166854819Y-123307142D02*
X166854819Y-123069047D01*
X166854819Y-123069047D02*
X166807200Y-122973809D01*
X166807200Y-122973809D02*
X166759580Y-122926190D01*
X166759580Y-122926190D02*
X166664342Y-122878571D01*
X166664342Y-122878571D02*
X166569104Y-122878571D01*
X166569104Y-122878571D02*
X166473866Y-122926190D01*
X166473866Y-122926190D02*
X166426247Y-122973809D01*
X166426247Y-122973809D02*
X166378628Y-123069047D01*
X166378628Y-123069047D02*
X166331009Y-123259523D01*
X166331009Y-123259523D02*
X166283390Y-123354761D01*
X166283390Y-123354761D02*
X166235771Y-123402380D01*
X166235771Y-123402380D02*
X166140533Y-123449999D01*
X166140533Y-123449999D02*
X166045295Y-123449999D01*
X166045295Y-123449999D02*
X165950057Y-123402380D01*
X165950057Y-123402380D02*
X165902438Y-123354761D01*
X165902438Y-123354761D02*
X165854819Y-123259523D01*
X165854819Y-123259523D02*
X165854819Y-123021428D01*
X165854819Y-123021428D02*
X165902438Y-122878571D01*
X166759580Y-121878571D02*
X166807200Y-121926190D01*
X166807200Y-121926190D02*
X166854819Y-122069047D01*
X166854819Y-122069047D02*
X166854819Y-122164285D01*
X166854819Y-122164285D02*
X166807200Y-122307142D01*
X166807200Y-122307142D02*
X166711961Y-122402380D01*
X166711961Y-122402380D02*
X166616723Y-122449999D01*
X166616723Y-122449999D02*
X166426247Y-122497618D01*
X166426247Y-122497618D02*
X166283390Y-122497618D01*
X166283390Y-122497618D02*
X166092914Y-122449999D01*
X166092914Y-122449999D02*
X165997676Y-122402380D01*
X165997676Y-122402380D02*
X165902438Y-122307142D01*
X165902438Y-122307142D02*
X165854819Y-122164285D01*
X165854819Y-122164285D02*
X165854819Y-122069047D01*
X165854819Y-122069047D02*
X165902438Y-121926190D01*
X165902438Y-121926190D02*
X165950057Y-121878571D01*
X166854819Y-121449999D02*
X165854819Y-121449999D01*
X166854819Y-120878571D02*
X166283390Y-121307142D01*
X165854819Y-120878571D02*
X166426247Y-121449999D01*
X192799619Y-141918733D02*
X193513904Y-141918733D01*
X193513904Y-141918733D02*
X193656761Y-141966352D01*
X193656761Y-141966352D02*
X193752000Y-142061590D01*
X193752000Y-142061590D02*
X193799619Y-142204447D01*
X193799619Y-142204447D02*
X193799619Y-142299685D01*
X193799619Y-141442542D02*
X192799619Y-141442542D01*
X192799619Y-141442542D02*
X192799619Y-141061590D01*
X192799619Y-141061590D02*
X192847238Y-140966352D01*
X192847238Y-140966352D02*
X192894857Y-140918733D01*
X192894857Y-140918733D02*
X192990095Y-140871114D01*
X192990095Y-140871114D02*
X193132952Y-140871114D01*
X193132952Y-140871114D02*
X193228190Y-140918733D01*
X193228190Y-140918733D02*
X193275809Y-140966352D01*
X193275809Y-140966352D02*
X193323428Y-141061590D01*
X193323428Y-141061590D02*
X193323428Y-141442542D01*
X192799619Y-140013971D02*
X192799619Y-140204447D01*
X192799619Y-140204447D02*
X192847238Y-140299685D01*
X192847238Y-140299685D02*
X192894857Y-140347304D01*
X192894857Y-140347304D02*
X193037714Y-140442542D01*
X193037714Y-140442542D02*
X193228190Y-140490161D01*
X193228190Y-140490161D02*
X193609142Y-140490161D01*
X193609142Y-140490161D02*
X193704380Y-140442542D01*
X193704380Y-140442542D02*
X193752000Y-140394923D01*
X193752000Y-140394923D02*
X193799619Y-140299685D01*
X193799619Y-140299685D02*
X193799619Y-140109209D01*
X193799619Y-140109209D02*
X193752000Y-140013971D01*
X193752000Y-140013971D02*
X193704380Y-139966352D01*
X193704380Y-139966352D02*
X193609142Y-139918733D01*
X193609142Y-139918733D02*
X193371047Y-139918733D01*
X193371047Y-139918733D02*
X193275809Y-139966352D01*
X193275809Y-139966352D02*
X193228190Y-140013971D01*
X193228190Y-140013971D02*
X193180571Y-140109209D01*
X193180571Y-140109209D02*
X193180571Y-140299685D01*
X193180571Y-140299685D02*
X193228190Y-140394923D01*
X193228190Y-140394923D02*
X193275809Y-140442542D01*
X193275809Y-140442542D02*
X193371047Y-140490161D01*
X111494819Y-116611857D02*
X111018628Y-116945190D01*
X111494819Y-117183285D02*
X110494819Y-117183285D01*
X110494819Y-117183285D02*
X110494819Y-116802333D01*
X110494819Y-116802333D02*
X110542438Y-116707095D01*
X110542438Y-116707095D02*
X110590057Y-116659476D01*
X110590057Y-116659476D02*
X110685295Y-116611857D01*
X110685295Y-116611857D02*
X110828152Y-116611857D01*
X110828152Y-116611857D02*
X110923390Y-116659476D01*
X110923390Y-116659476D02*
X110971009Y-116707095D01*
X110971009Y-116707095D02*
X111018628Y-116802333D01*
X111018628Y-116802333D02*
X111018628Y-117183285D01*
X110590057Y-116230904D02*
X110542438Y-116183285D01*
X110542438Y-116183285D02*
X110494819Y-116088047D01*
X110494819Y-116088047D02*
X110494819Y-115849952D01*
X110494819Y-115849952D02*
X110542438Y-115754714D01*
X110542438Y-115754714D02*
X110590057Y-115707095D01*
X110590057Y-115707095D02*
X110685295Y-115659476D01*
X110685295Y-115659476D02*
X110780533Y-115659476D01*
X110780533Y-115659476D02*
X110923390Y-115707095D01*
X110923390Y-115707095D02*
X111494819Y-116278523D01*
X111494819Y-116278523D02*
X111494819Y-115659476D01*
X110971009Y-114897571D02*
X111018628Y-114754714D01*
X111018628Y-114754714D02*
X111066247Y-114707095D01*
X111066247Y-114707095D02*
X111161485Y-114659476D01*
X111161485Y-114659476D02*
X111304342Y-114659476D01*
X111304342Y-114659476D02*
X111399580Y-114707095D01*
X111399580Y-114707095D02*
X111447200Y-114754714D01*
X111447200Y-114754714D02*
X111494819Y-114849952D01*
X111494819Y-114849952D02*
X111494819Y-115230904D01*
X111494819Y-115230904D02*
X110494819Y-115230904D01*
X110494819Y-115230904D02*
X110494819Y-114897571D01*
X110494819Y-114897571D02*
X110542438Y-114802333D01*
X110542438Y-114802333D02*
X110590057Y-114754714D01*
X110590057Y-114754714D02*
X110685295Y-114707095D01*
X110685295Y-114707095D02*
X110780533Y-114707095D01*
X110780533Y-114707095D02*
X110875771Y-114754714D01*
X110875771Y-114754714D02*
X110923390Y-114802333D01*
X110923390Y-114802333D02*
X110971009Y-114897571D01*
X110971009Y-114897571D02*
X110971009Y-115230904D01*
X111494819Y-113707095D02*
X111494819Y-114278523D01*
X111494819Y-113992809D02*
X110494819Y-113992809D01*
X110494819Y-113992809D02*
X110637676Y-114088047D01*
X110637676Y-114088047D02*
X110732914Y-114183285D01*
X110732914Y-114183285D02*
X110780533Y-114278523D01*
X149238095Y-101654819D02*
X149238095Y-100654819D01*
X149238095Y-101131009D02*
X149809523Y-101131009D01*
X149809523Y-101654819D02*
X149809523Y-100654819D01*
X150238095Y-100750057D02*
X150285714Y-100702438D01*
X150285714Y-100702438D02*
X150380952Y-100654819D01*
X150380952Y-100654819D02*
X150619047Y-100654819D01*
X150619047Y-100654819D02*
X150714285Y-100702438D01*
X150714285Y-100702438D02*
X150761904Y-100750057D01*
X150761904Y-100750057D02*
X150809523Y-100845295D01*
X150809523Y-100845295D02*
X150809523Y-100940533D01*
X150809523Y-100940533D02*
X150761904Y-101083390D01*
X150761904Y-101083390D02*
X150190476Y-101654819D01*
X150190476Y-101654819D02*
X150809523Y-101654819D01*
X133876642Y-130059580D02*
X133829023Y-130107200D01*
X133829023Y-130107200D02*
X133686166Y-130154819D01*
X133686166Y-130154819D02*
X133590928Y-130154819D01*
X133590928Y-130154819D02*
X133448071Y-130107200D01*
X133448071Y-130107200D02*
X133352833Y-130011961D01*
X133352833Y-130011961D02*
X133305214Y-129916723D01*
X133305214Y-129916723D02*
X133257595Y-129726247D01*
X133257595Y-129726247D02*
X133257595Y-129583390D01*
X133257595Y-129583390D02*
X133305214Y-129392914D01*
X133305214Y-129392914D02*
X133352833Y-129297676D01*
X133352833Y-129297676D02*
X133448071Y-129202438D01*
X133448071Y-129202438D02*
X133590928Y-129154819D01*
X133590928Y-129154819D02*
X133686166Y-129154819D01*
X133686166Y-129154819D02*
X133829023Y-129202438D01*
X133829023Y-129202438D02*
X133876642Y-129250057D01*
X134829023Y-130154819D02*
X134257595Y-130154819D01*
X134543309Y-130154819D02*
X134543309Y-129154819D01*
X134543309Y-129154819D02*
X134448071Y-129297676D01*
X134448071Y-129297676D02*
X134352833Y-129392914D01*
X134352833Y-129392914D02*
X134257595Y-129440533D01*
X135305214Y-130154819D02*
X135495690Y-130154819D01*
X135495690Y-130154819D02*
X135590928Y-130107200D01*
X135590928Y-130107200D02*
X135638547Y-130059580D01*
X135638547Y-130059580D02*
X135733785Y-129916723D01*
X135733785Y-129916723D02*
X135781404Y-129726247D01*
X135781404Y-129726247D02*
X135781404Y-129345295D01*
X135781404Y-129345295D02*
X135733785Y-129250057D01*
X135733785Y-129250057D02*
X135686166Y-129202438D01*
X135686166Y-129202438D02*
X135590928Y-129154819D01*
X135590928Y-129154819D02*
X135400452Y-129154819D01*
X135400452Y-129154819D02*
X135305214Y-129202438D01*
X135305214Y-129202438D02*
X135257595Y-129250057D01*
X135257595Y-129250057D02*
X135209976Y-129345295D01*
X135209976Y-129345295D02*
X135209976Y-129583390D01*
X135209976Y-129583390D02*
X135257595Y-129678628D01*
X135257595Y-129678628D02*
X135305214Y-129726247D01*
X135305214Y-129726247D02*
X135400452Y-129773866D01*
X135400452Y-129773866D02*
X135590928Y-129773866D01*
X135590928Y-129773866D02*
X135686166Y-129726247D01*
X135686166Y-129726247D02*
X135733785Y-129678628D01*
X135733785Y-129678628D02*
X135781404Y-129583390D01*
X112685980Y-137090557D02*
X112733600Y-137138176D01*
X112733600Y-137138176D02*
X112781219Y-137281033D01*
X112781219Y-137281033D02*
X112781219Y-137376271D01*
X112781219Y-137376271D02*
X112733600Y-137519128D01*
X112733600Y-137519128D02*
X112638361Y-137614366D01*
X112638361Y-137614366D02*
X112543123Y-137661985D01*
X112543123Y-137661985D02*
X112352647Y-137709604D01*
X112352647Y-137709604D02*
X112209790Y-137709604D01*
X112209790Y-137709604D02*
X112019314Y-137661985D01*
X112019314Y-137661985D02*
X111924076Y-137614366D01*
X111924076Y-137614366D02*
X111828838Y-137519128D01*
X111828838Y-137519128D02*
X111781219Y-137376271D01*
X111781219Y-137376271D02*
X111781219Y-137281033D01*
X111781219Y-137281033D02*
X111828838Y-137138176D01*
X111828838Y-137138176D02*
X111876457Y-137090557D01*
X112781219Y-136138176D02*
X112781219Y-136709604D01*
X112781219Y-136423890D02*
X111781219Y-136423890D01*
X111781219Y-136423890D02*
X111924076Y-136519128D01*
X111924076Y-136519128D02*
X112019314Y-136614366D01*
X112019314Y-136614366D02*
X112066933Y-136709604D01*
X112781219Y-135185795D02*
X112781219Y-135757223D01*
X112781219Y-135471509D02*
X111781219Y-135471509D01*
X111781219Y-135471509D02*
X111924076Y-135566747D01*
X111924076Y-135566747D02*
X112019314Y-135661985D01*
X112019314Y-135661985D02*
X112066933Y-135757223D01*
X141152242Y-144153180D02*
X141104623Y-144200800D01*
X141104623Y-144200800D02*
X140961766Y-144248419D01*
X140961766Y-144248419D02*
X140866528Y-144248419D01*
X140866528Y-144248419D02*
X140723671Y-144200800D01*
X140723671Y-144200800D02*
X140628433Y-144105561D01*
X140628433Y-144105561D02*
X140580814Y-144010323D01*
X140580814Y-144010323D02*
X140533195Y-143819847D01*
X140533195Y-143819847D02*
X140533195Y-143676990D01*
X140533195Y-143676990D02*
X140580814Y-143486514D01*
X140580814Y-143486514D02*
X140628433Y-143391276D01*
X140628433Y-143391276D02*
X140723671Y-143296038D01*
X140723671Y-143296038D02*
X140866528Y-143248419D01*
X140866528Y-143248419D02*
X140961766Y-143248419D01*
X140961766Y-143248419D02*
X141104623Y-143296038D01*
X141104623Y-143296038D02*
X141152242Y-143343657D01*
X141533195Y-143343657D02*
X141580814Y-143296038D01*
X141580814Y-143296038D02*
X141676052Y-143248419D01*
X141676052Y-143248419D02*
X141914147Y-143248419D01*
X141914147Y-143248419D02*
X142009385Y-143296038D01*
X142009385Y-143296038D02*
X142057004Y-143343657D01*
X142057004Y-143343657D02*
X142104623Y-143438895D01*
X142104623Y-143438895D02*
X142104623Y-143534133D01*
X142104623Y-143534133D02*
X142057004Y-143676990D01*
X142057004Y-143676990D02*
X141485576Y-144248419D01*
X141485576Y-144248419D02*
X142104623Y-144248419D01*
X142437957Y-143248419D02*
X143057004Y-143248419D01*
X143057004Y-143248419D02*
X142723671Y-143629371D01*
X142723671Y-143629371D02*
X142866528Y-143629371D01*
X142866528Y-143629371D02*
X142961766Y-143676990D01*
X142961766Y-143676990D02*
X143009385Y-143724609D01*
X143009385Y-143724609D02*
X143057004Y-143819847D01*
X143057004Y-143819847D02*
X143057004Y-144057942D01*
X143057004Y-144057942D02*
X143009385Y-144153180D01*
X143009385Y-144153180D02*
X142961766Y-144200800D01*
X142961766Y-144200800D02*
X142866528Y-144248419D01*
X142866528Y-144248419D02*
X142580814Y-144248419D01*
X142580814Y-144248419D02*
X142485576Y-144200800D01*
X142485576Y-144200800D02*
X142437957Y-144153180D01*
X118606819Y-116611857D02*
X118130628Y-116945190D01*
X118606819Y-117183285D02*
X117606819Y-117183285D01*
X117606819Y-117183285D02*
X117606819Y-116802333D01*
X117606819Y-116802333D02*
X117654438Y-116707095D01*
X117654438Y-116707095D02*
X117702057Y-116659476D01*
X117702057Y-116659476D02*
X117797295Y-116611857D01*
X117797295Y-116611857D02*
X117940152Y-116611857D01*
X117940152Y-116611857D02*
X118035390Y-116659476D01*
X118035390Y-116659476D02*
X118083009Y-116707095D01*
X118083009Y-116707095D02*
X118130628Y-116802333D01*
X118130628Y-116802333D02*
X118130628Y-117183285D01*
X117606819Y-115754714D02*
X117606819Y-115945190D01*
X117606819Y-115945190D02*
X117654438Y-116040428D01*
X117654438Y-116040428D02*
X117702057Y-116088047D01*
X117702057Y-116088047D02*
X117844914Y-116183285D01*
X117844914Y-116183285D02*
X118035390Y-116230904D01*
X118035390Y-116230904D02*
X118416342Y-116230904D01*
X118416342Y-116230904D02*
X118511580Y-116183285D01*
X118511580Y-116183285D02*
X118559200Y-116135666D01*
X118559200Y-116135666D02*
X118606819Y-116040428D01*
X118606819Y-116040428D02*
X118606819Y-115849952D01*
X118606819Y-115849952D02*
X118559200Y-115754714D01*
X118559200Y-115754714D02*
X118511580Y-115707095D01*
X118511580Y-115707095D02*
X118416342Y-115659476D01*
X118416342Y-115659476D02*
X118178247Y-115659476D01*
X118178247Y-115659476D02*
X118083009Y-115707095D01*
X118083009Y-115707095D02*
X118035390Y-115754714D01*
X118035390Y-115754714D02*
X117987771Y-115849952D01*
X117987771Y-115849952D02*
X117987771Y-116040428D01*
X117987771Y-116040428D02*
X118035390Y-116135666D01*
X118035390Y-116135666D02*
X118083009Y-116183285D01*
X118083009Y-116183285D02*
X118178247Y-116230904D01*
X118083009Y-114897571D02*
X118130628Y-114754714D01*
X118130628Y-114754714D02*
X118178247Y-114707095D01*
X118178247Y-114707095D02*
X118273485Y-114659476D01*
X118273485Y-114659476D02*
X118416342Y-114659476D01*
X118416342Y-114659476D02*
X118511580Y-114707095D01*
X118511580Y-114707095D02*
X118559200Y-114754714D01*
X118559200Y-114754714D02*
X118606819Y-114849952D01*
X118606819Y-114849952D02*
X118606819Y-115230904D01*
X118606819Y-115230904D02*
X117606819Y-115230904D01*
X117606819Y-115230904D02*
X117606819Y-114897571D01*
X117606819Y-114897571D02*
X117654438Y-114802333D01*
X117654438Y-114802333D02*
X117702057Y-114754714D01*
X117702057Y-114754714D02*
X117797295Y-114707095D01*
X117797295Y-114707095D02*
X117892533Y-114707095D01*
X117892533Y-114707095D02*
X117987771Y-114754714D01*
X117987771Y-114754714D02*
X118035390Y-114802333D01*
X118035390Y-114802333D02*
X118083009Y-114897571D01*
X118083009Y-114897571D02*
X118083009Y-115230904D01*
X118606819Y-113707095D02*
X118606819Y-114278523D01*
X118606819Y-113992809D02*
X117606819Y-113992809D01*
X117606819Y-113992809D02*
X117749676Y-114088047D01*
X117749676Y-114088047D02*
X117844914Y-114183285D01*
X117844914Y-114183285D02*
X117892533Y-114278523D01*
X193907580Y-154109657D02*
X193955200Y-154157276D01*
X193955200Y-154157276D02*
X194002819Y-154300133D01*
X194002819Y-154300133D02*
X194002819Y-154395371D01*
X194002819Y-154395371D02*
X193955200Y-154538228D01*
X193955200Y-154538228D02*
X193859961Y-154633466D01*
X193859961Y-154633466D02*
X193764723Y-154681085D01*
X193764723Y-154681085D02*
X193574247Y-154728704D01*
X193574247Y-154728704D02*
X193431390Y-154728704D01*
X193431390Y-154728704D02*
X193240914Y-154681085D01*
X193240914Y-154681085D02*
X193145676Y-154633466D01*
X193145676Y-154633466D02*
X193050438Y-154538228D01*
X193050438Y-154538228D02*
X193002819Y-154395371D01*
X193002819Y-154395371D02*
X193002819Y-154300133D01*
X193002819Y-154300133D02*
X193050438Y-154157276D01*
X193050438Y-154157276D02*
X193098057Y-154109657D01*
X193098057Y-153728704D02*
X193050438Y-153681085D01*
X193050438Y-153681085D02*
X193002819Y-153585847D01*
X193002819Y-153585847D02*
X193002819Y-153347752D01*
X193002819Y-153347752D02*
X193050438Y-153252514D01*
X193050438Y-153252514D02*
X193098057Y-153204895D01*
X193098057Y-153204895D02*
X193193295Y-153157276D01*
X193193295Y-153157276D02*
X193288533Y-153157276D01*
X193288533Y-153157276D02*
X193431390Y-153204895D01*
X193431390Y-153204895D02*
X194002819Y-153776323D01*
X194002819Y-153776323D02*
X194002819Y-153157276D01*
X194002819Y-152681085D02*
X194002819Y-152490609D01*
X194002819Y-152490609D02*
X193955200Y-152395371D01*
X193955200Y-152395371D02*
X193907580Y-152347752D01*
X193907580Y-152347752D02*
X193764723Y-152252514D01*
X193764723Y-152252514D02*
X193574247Y-152204895D01*
X193574247Y-152204895D02*
X193193295Y-152204895D01*
X193193295Y-152204895D02*
X193098057Y-152252514D01*
X193098057Y-152252514D02*
X193050438Y-152300133D01*
X193050438Y-152300133D02*
X193002819Y-152395371D01*
X193002819Y-152395371D02*
X193002819Y-152585847D01*
X193002819Y-152585847D02*
X193050438Y-152681085D01*
X193050438Y-152681085D02*
X193098057Y-152728704D01*
X193098057Y-152728704D02*
X193193295Y-152776323D01*
X193193295Y-152776323D02*
X193431390Y-152776323D01*
X193431390Y-152776323D02*
X193526628Y-152728704D01*
X193526628Y-152728704D02*
X193574247Y-152681085D01*
X193574247Y-152681085D02*
X193621866Y-152585847D01*
X193621866Y-152585847D02*
X193621866Y-152395371D01*
X193621866Y-152395371D02*
X193574247Y-152300133D01*
X193574247Y-152300133D02*
X193526628Y-152252514D01*
X193526628Y-152252514D02*
X193431390Y-152204895D01*
X160554819Y-119947619D02*
X160078628Y-120280952D01*
X160554819Y-120519047D02*
X159554819Y-120519047D01*
X159554819Y-120519047D02*
X159554819Y-120138095D01*
X159554819Y-120138095D02*
X159602438Y-120042857D01*
X159602438Y-120042857D02*
X159650057Y-119995238D01*
X159650057Y-119995238D02*
X159745295Y-119947619D01*
X159745295Y-119947619D02*
X159888152Y-119947619D01*
X159888152Y-119947619D02*
X159983390Y-119995238D01*
X159983390Y-119995238D02*
X160031009Y-120042857D01*
X160031009Y-120042857D02*
X160078628Y-120138095D01*
X160078628Y-120138095D02*
X160078628Y-120519047D01*
X159554819Y-119661904D02*
X159554819Y-119090476D01*
X160554819Y-119376190D02*
X159554819Y-119376190D01*
X160554819Y-118233333D02*
X160554819Y-118804761D01*
X160554819Y-118519047D02*
X159554819Y-118519047D01*
X159554819Y-118519047D02*
X159697676Y-118614285D01*
X159697676Y-118614285D02*
X159792914Y-118709523D01*
X159792914Y-118709523D02*
X159840533Y-118804761D01*
X109716819Y-122655857D02*
X109240628Y-122989190D01*
X109716819Y-123227285D02*
X108716819Y-123227285D01*
X108716819Y-123227285D02*
X108716819Y-122846333D01*
X108716819Y-122846333D02*
X108764438Y-122751095D01*
X108764438Y-122751095D02*
X108812057Y-122703476D01*
X108812057Y-122703476D02*
X108907295Y-122655857D01*
X108907295Y-122655857D02*
X109050152Y-122655857D01*
X109050152Y-122655857D02*
X109145390Y-122703476D01*
X109145390Y-122703476D02*
X109193009Y-122751095D01*
X109193009Y-122751095D02*
X109240628Y-122846333D01*
X109240628Y-122846333D02*
X109240628Y-123227285D01*
X109716819Y-121703476D02*
X109716819Y-122274904D01*
X109716819Y-121989190D02*
X108716819Y-121989190D01*
X108716819Y-121989190D02*
X108859676Y-122084428D01*
X108859676Y-122084428D02*
X108954914Y-122179666D01*
X108954914Y-122179666D02*
X109002533Y-122274904D01*
X109193009Y-120941571D02*
X109240628Y-120798714D01*
X109240628Y-120798714D02*
X109288247Y-120751095D01*
X109288247Y-120751095D02*
X109383485Y-120703476D01*
X109383485Y-120703476D02*
X109526342Y-120703476D01*
X109526342Y-120703476D02*
X109621580Y-120751095D01*
X109621580Y-120751095D02*
X109669200Y-120798714D01*
X109669200Y-120798714D02*
X109716819Y-120893952D01*
X109716819Y-120893952D02*
X109716819Y-121274904D01*
X109716819Y-121274904D02*
X108716819Y-121274904D01*
X108716819Y-121274904D02*
X108716819Y-120941571D01*
X108716819Y-120941571D02*
X108764438Y-120846333D01*
X108764438Y-120846333D02*
X108812057Y-120798714D01*
X108812057Y-120798714D02*
X108907295Y-120751095D01*
X108907295Y-120751095D02*
X109002533Y-120751095D01*
X109002533Y-120751095D02*
X109097771Y-120798714D01*
X109097771Y-120798714D02*
X109145390Y-120846333D01*
X109145390Y-120846333D02*
X109193009Y-120941571D01*
X109193009Y-120941571D02*
X109193009Y-121274904D01*
X109716819Y-119751095D02*
X109716819Y-120322523D01*
X109716819Y-120036809D02*
X108716819Y-120036809D01*
X108716819Y-120036809D02*
X108859676Y-120132047D01*
X108859676Y-120132047D02*
X108954914Y-120227285D01*
X108954914Y-120227285D02*
X109002533Y-120322523D01*
X188854819Y-115797619D02*
X188378628Y-116130952D01*
X188854819Y-116369047D02*
X187854819Y-116369047D01*
X187854819Y-116369047D02*
X187854819Y-115988095D01*
X187854819Y-115988095D02*
X187902438Y-115892857D01*
X187902438Y-115892857D02*
X187950057Y-115845238D01*
X187950057Y-115845238D02*
X188045295Y-115797619D01*
X188045295Y-115797619D02*
X188188152Y-115797619D01*
X188188152Y-115797619D02*
X188283390Y-115845238D01*
X188283390Y-115845238D02*
X188331009Y-115892857D01*
X188331009Y-115892857D02*
X188378628Y-115988095D01*
X188378628Y-115988095D02*
X188378628Y-116369047D01*
X187854819Y-115511904D02*
X187854819Y-114940476D01*
X188854819Y-115226190D02*
X187854819Y-115226190D01*
X188854819Y-114559523D02*
X188854819Y-114369047D01*
X188854819Y-114369047D02*
X188807200Y-114273809D01*
X188807200Y-114273809D02*
X188759580Y-114226190D01*
X188759580Y-114226190D02*
X188616723Y-114130952D01*
X188616723Y-114130952D02*
X188426247Y-114083333D01*
X188426247Y-114083333D02*
X188045295Y-114083333D01*
X188045295Y-114083333D02*
X187950057Y-114130952D01*
X187950057Y-114130952D02*
X187902438Y-114178571D01*
X187902438Y-114178571D02*
X187854819Y-114273809D01*
X187854819Y-114273809D02*
X187854819Y-114464285D01*
X187854819Y-114464285D02*
X187902438Y-114559523D01*
X187902438Y-114559523D02*
X187950057Y-114607142D01*
X187950057Y-114607142D02*
X188045295Y-114654761D01*
X188045295Y-114654761D02*
X188283390Y-114654761D01*
X188283390Y-114654761D02*
X188378628Y-114607142D01*
X188378628Y-114607142D02*
X188426247Y-114559523D01*
X188426247Y-114559523D02*
X188473866Y-114464285D01*
X188473866Y-114464285D02*
X188473866Y-114273809D01*
X188473866Y-114273809D02*
X188426247Y-114178571D01*
X188426247Y-114178571D02*
X188378628Y-114130952D01*
X188378628Y-114130952D02*
X188283390Y-114083333D01*
X104238095Y-156654819D02*
X104238095Y-155654819D01*
X104238095Y-156131009D02*
X104809523Y-156131009D01*
X104809523Y-156654819D02*
X104809523Y-155654819D01*
X105809523Y-156654819D02*
X105238095Y-156654819D01*
X105523809Y-156654819D02*
X105523809Y-155654819D01*
X105523809Y-155654819D02*
X105428571Y-155797676D01*
X105428571Y-155797676D02*
X105333333Y-155892914D01*
X105333333Y-155892914D02*
X105238095Y-155940533D01*
X170082380Y-154160457D02*
X170130000Y-154208076D01*
X170130000Y-154208076D02*
X170177619Y-154350933D01*
X170177619Y-154350933D02*
X170177619Y-154446171D01*
X170177619Y-154446171D02*
X170130000Y-154589028D01*
X170130000Y-154589028D02*
X170034761Y-154684266D01*
X170034761Y-154684266D02*
X169939523Y-154731885D01*
X169939523Y-154731885D02*
X169749047Y-154779504D01*
X169749047Y-154779504D02*
X169606190Y-154779504D01*
X169606190Y-154779504D02*
X169415714Y-154731885D01*
X169415714Y-154731885D02*
X169320476Y-154684266D01*
X169320476Y-154684266D02*
X169225238Y-154589028D01*
X169225238Y-154589028D02*
X169177619Y-154446171D01*
X169177619Y-154446171D02*
X169177619Y-154350933D01*
X169177619Y-154350933D02*
X169225238Y-154208076D01*
X169225238Y-154208076D02*
X169272857Y-154160457D01*
X169177619Y-153827123D02*
X169177619Y-153208076D01*
X169177619Y-153208076D02*
X169558571Y-153541409D01*
X169558571Y-153541409D02*
X169558571Y-153398552D01*
X169558571Y-153398552D02*
X169606190Y-153303314D01*
X169606190Y-153303314D02*
X169653809Y-153255695D01*
X169653809Y-153255695D02*
X169749047Y-153208076D01*
X169749047Y-153208076D02*
X169987142Y-153208076D01*
X169987142Y-153208076D02*
X170082380Y-153255695D01*
X170082380Y-153255695D02*
X170130000Y-153303314D01*
X170130000Y-153303314D02*
X170177619Y-153398552D01*
X170177619Y-153398552D02*
X170177619Y-153684266D01*
X170177619Y-153684266D02*
X170130000Y-153779504D01*
X170130000Y-153779504D02*
X170082380Y-153827123D01*
X169272857Y-152827123D02*
X169225238Y-152779504D01*
X169225238Y-152779504D02*
X169177619Y-152684266D01*
X169177619Y-152684266D02*
X169177619Y-152446171D01*
X169177619Y-152446171D02*
X169225238Y-152350933D01*
X169225238Y-152350933D02*
X169272857Y-152303314D01*
X169272857Y-152303314D02*
X169368095Y-152255695D01*
X169368095Y-152255695D02*
X169463333Y-152255695D01*
X169463333Y-152255695D02*
X169606190Y-152303314D01*
X169606190Y-152303314D02*
X170177619Y-152874742D01*
X170177619Y-152874742D02*
X170177619Y-152255695D01*
X131052819Y-123184047D02*
X130576628Y-123517380D01*
X131052819Y-123755475D02*
X130052819Y-123755475D01*
X130052819Y-123755475D02*
X130052819Y-123374523D01*
X130052819Y-123374523D02*
X130100438Y-123279285D01*
X130100438Y-123279285D02*
X130148057Y-123231666D01*
X130148057Y-123231666D02*
X130243295Y-123184047D01*
X130243295Y-123184047D02*
X130386152Y-123184047D01*
X130386152Y-123184047D02*
X130481390Y-123231666D01*
X130481390Y-123231666D02*
X130529009Y-123279285D01*
X130529009Y-123279285D02*
X130576628Y-123374523D01*
X130576628Y-123374523D02*
X130576628Y-123755475D01*
X131052819Y-122231666D02*
X131052819Y-122803094D01*
X131052819Y-122517380D02*
X130052819Y-122517380D01*
X130052819Y-122517380D02*
X130195676Y-122612618D01*
X130195676Y-122612618D02*
X130290914Y-122707856D01*
X130290914Y-122707856D02*
X130338533Y-122803094D01*
X130052819Y-121898332D02*
X130052819Y-121279285D01*
X130052819Y-121279285D02*
X130433771Y-121612618D01*
X130433771Y-121612618D02*
X130433771Y-121469761D01*
X130433771Y-121469761D02*
X130481390Y-121374523D01*
X130481390Y-121374523D02*
X130529009Y-121326904D01*
X130529009Y-121326904D02*
X130624247Y-121279285D01*
X130624247Y-121279285D02*
X130862342Y-121279285D01*
X130862342Y-121279285D02*
X130957580Y-121326904D01*
X130957580Y-121326904D02*
X131005200Y-121374523D01*
X131005200Y-121374523D02*
X131052819Y-121469761D01*
X131052819Y-121469761D02*
X131052819Y-121755475D01*
X131052819Y-121755475D02*
X131005200Y-121850713D01*
X131005200Y-121850713D02*
X130957580Y-121898332D01*
X130529009Y-120517380D02*
X130576628Y-120374523D01*
X130576628Y-120374523D02*
X130624247Y-120326904D01*
X130624247Y-120326904D02*
X130719485Y-120279285D01*
X130719485Y-120279285D02*
X130862342Y-120279285D01*
X130862342Y-120279285D02*
X130957580Y-120326904D01*
X130957580Y-120326904D02*
X131005200Y-120374523D01*
X131005200Y-120374523D02*
X131052819Y-120469761D01*
X131052819Y-120469761D02*
X131052819Y-120850713D01*
X131052819Y-120850713D02*
X130052819Y-120850713D01*
X130052819Y-120850713D02*
X130052819Y-120517380D01*
X130052819Y-120517380D02*
X130100438Y-120422142D01*
X130100438Y-120422142D02*
X130148057Y-120374523D01*
X130148057Y-120374523D02*
X130243295Y-120326904D01*
X130243295Y-120326904D02*
X130338533Y-120326904D01*
X130338533Y-120326904D02*
X130433771Y-120374523D01*
X130433771Y-120374523D02*
X130481390Y-120422142D01*
X130481390Y-120422142D02*
X130529009Y-120517380D01*
X130529009Y-120517380D02*
X130529009Y-120850713D01*
X131052819Y-119326904D02*
X131052819Y-119898332D01*
X131052819Y-119612618D02*
X130052819Y-119612618D01*
X130052819Y-119612618D02*
X130195676Y-119707856D01*
X130195676Y-119707856D02*
X130290914Y-119803094D01*
X130290914Y-119803094D02*
X130338533Y-119898332D01*
X116828819Y-122655857D02*
X116352628Y-122989190D01*
X116828819Y-123227285D02*
X115828819Y-123227285D01*
X115828819Y-123227285D02*
X115828819Y-122846333D01*
X115828819Y-122846333D02*
X115876438Y-122751095D01*
X115876438Y-122751095D02*
X115924057Y-122703476D01*
X115924057Y-122703476D02*
X116019295Y-122655857D01*
X116019295Y-122655857D02*
X116162152Y-122655857D01*
X116162152Y-122655857D02*
X116257390Y-122703476D01*
X116257390Y-122703476D02*
X116305009Y-122751095D01*
X116305009Y-122751095D02*
X116352628Y-122846333D01*
X116352628Y-122846333D02*
X116352628Y-123227285D01*
X115828819Y-121751095D02*
X115828819Y-122227285D01*
X115828819Y-122227285D02*
X116305009Y-122274904D01*
X116305009Y-122274904D02*
X116257390Y-122227285D01*
X116257390Y-122227285D02*
X116209771Y-122132047D01*
X116209771Y-122132047D02*
X116209771Y-121893952D01*
X116209771Y-121893952D02*
X116257390Y-121798714D01*
X116257390Y-121798714D02*
X116305009Y-121751095D01*
X116305009Y-121751095D02*
X116400247Y-121703476D01*
X116400247Y-121703476D02*
X116638342Y-121703476D01*
X116638342Y-121703476D02*
X116733580Y-121751095D01*
X116733580Y-121751095D02*
X116781200Y-121798714D01*
X116781200Y-121798714D02*
X116828819Y-121893952D01*
X116828819Y-121893952D02*
X116828819Y-122132047D01*
X116828819Y-122132047D02*
X116781200Y-122227285D01*
X116781200Y-122227285D02*
X116733580Y-122274904D01*
X116305009Y-120941571D02*
X116352628Y-120798714D01*
X116352628Y-120798714D02*
X116400247Y-120751095D01*
X116400247Y-120751095D02*
X116495485Y-120703476D01*
X116495485Y-120703476D02*
X116638342Y-120703476D01*
X116638342Y-120703476D02*
X116733580Y-120751095D01*
X116733580Y-120751095D02*
X116781200Y-120798714D01*
X116781200Y-120798714D02*
X116828819Y-120893952D01*
X116828819Y-120893952D02*
X116828819Y-121274904D01*
X116828819Y-121274904D02*
X115828819Y-121274904D01*
X115828819Y-121274904D02*
X115828819Y-120941571D01*
X115828819Y-120941571D02*
X115876438Y-120846333D01*
X115876438Y-120846333D02*
X115924057Y-120798714D01*
X115924057Y-120798714D02*
X116019295Y-120751095D01*
X116019295Y-120751095D02*
X116114533Y-120751095D01*
X116114533Y-120751095D02*
X116209771Y-120798714D01*
X116209771Y-120798714D02*
X116257390Y-120846333D01*
X116257390Y-120846333D02*
X116305009Y-120941571D01*
X116305009Y-120941571D02*
X116305009Y-121274904D01*
X116828819Y-119751095D02*
X116828819Y-120322523D01*
X116828819Y-120036809D02*
X115828819Y-120036809D01*
X115828819Y-120036809D02*
X115971676Y-120132047D01*
X115971676Y-120132047D02*
X116066914Y-120227285D01*
X116066914Y-120227285D02*
X116114533Y-120322523D01*
X172530419Y-141715533D02*
X173244704Y-141715533D01*
X173244704Y-141715533D02*
X173387561Y-141763152D01*
X173387561Y-141763152D02*
X173482800Y-141858390D01*
X173482800Y-141858390D02*
X173530419Y-142001247D01*
X173530419Y-142001247D02*
X173530419Y-142096485D01*
X173530419Y-141239342D02*
X172530419Y-141239342D01*
X172530419Y-141239342D02*
X172530419Y-140858390D01*
X172530419Y-140858390D02*
X172578038Y-140763152D01*
X172578038Y-140763152D02*
X172625657Y-140715533D01*
X172625657Y-140715533D02*
X172720895Y-140667914D01*
X172720895Y-140667914D02*
X172863752Y-140667914D01*
X172863752Y-140667914D02*
X172958990Y-140715533D01*
X172958990Y-140715533D02*
X173006609Y-140763152D01*
X173006609Y-140763152D02*
X173054228Y-140858390D01*
X173054228Y-140858390D02*
X173054228Y-141239342D01*
X172530419Y-140334580D02*
X172530419Y-139667914D01*
X172530419Y-139667914D02*
X173530419Y-140096485D01*
X181563180Y-132621257D02*
X181610800Y-132668876D01*
X181610800Y-132668876D02*
X181658419Y-132811733D01*
X181658419Y-132811733D02*
X181658419Y-132906971D01*
X181658419Y-132906971D02*
X181610800Y-133049828D01*
X181610800Y-133049828D02*
X181515561Y-133145066D01*
X181515561Y-133145066D02*
X181420323Y-133192685D01*
X181420323Y-133192685D02*
X181229847Y-133240304D01*
X181229847Y-133240304D02*
X181086990Y-133240304D01*
X181086990Y-133240304D02*
X180896514Y-133192685D01*
X180896514Y-133192685D02*
X180801276Y-133145066D01*
X180801276Y-133145066D02*
X180706038Y-133049828D01*
X180706038Y-133049828D02*
X180658419Y-132906971D01*
X180658419Y-132906971D02*
X180658419Y-132811733D01*
X180658419Y-132811733D02*
X180706038Y-132668876D01*
X180706038Y-132668876D02*
X180753657Y-132621257D01*
X180753657Y-132240304D02*
X180706038Y-132192685D01*
X180706038Y-132192685D02*
X180658419Y-132097447D01*
X180658419Y-132097447D02*
X180658419Y-131859352D01*
X180658419Y-131859352D02*
X180706038Y-131764114D01*
X180706038Y-131764114D02*
X180753657Y-131716495D01*
X180753657Y-131716495D02*
X180848895Y-131668876D01*
X180848895Y-131668876D02*
X180944133Y-131668876D01*
X180944133Y-131668876D02*
X181086990Y-131716495D01*
X181086990Y-131716495D02*
X181658419Y-132287923D01*
X181658419Y-132287923D02*
X181658419Y-131668876D01*
X180658419Y-131335542D02*
X180658419Y-130668876D01*
X180658419Y-130668876D02*
X181658419Y-131097447D01*
X196567619Y-124793333D02*
X197281904Y-124793333D01*
X197281904Y-124793333D02*
X197424761Y-124840952D01*
X197424761Y-124840952D02*
X197520000Y-124936190D01*
X197520000Y-124936190D02*
X197567619Y-125079047D01*
X197567619Y-125079047D02*
X197567619Y-125174285D01*
X196900952Y-123888571D02*
X197567619Y-123888571D01*
X196520000Y-124126666D02*
X197234285Y-124364761D01*
X197234285Y-124364761D02*
X197234285Y-123745714D01*
X149550571Y-135808819D02*
X149741047Y-135808819D01*
X149741047Y-135808819D02*
X149836285Y-135856438D01*
X149836285Y-135856438D02*
X149931523Y-135951676D01*
X149931523Y-135951676D02*
X149979142Y-136142152D01*
X149979142Y-136142152D02*
X149979142Y-136475485D01*
X149979142Y-136475485D02*
X149931523Y-136665961D01*
X149931523Y-136665961D02*
X149836285Y-136761200D01*
X149836285Y-136761200D02*
X149741047Y-136808819D01*
X149741047Y-136808819D02*
X149550571Y-136808819D01*
X149550571Y-136808819D02*
X149455333Y-136761200D01*
X149455333Y-136761200D02*
X149360095Y-136665961D01*
X149360095Y-136665961D02*
X149312476Y-136475485D01*
X149312476Y-136475485D02*
X149312476Y-136142152D01*
X149312476Y-136142152D02*
X149360095Y-135951676D01*
X149360095Y-135951676D02*
X149455333Y-135856438D01*
X149455333Y-135856438D02*
X149550571Y-135808819D01*
X150407714Y-136808819D02*
X150407714Y-135808819D01*
X150407714Y-135808819D02*
X150788666Y-135808819D01*
X150788666Y-135808819D02*
X150883904Y-135856438D01*
X150883904Y-135856438D02*
X150931523Y-135904057D01*
X150931523Y-135904057D02*
X150979142Y-135999295D01*
X150979142Y-135999295D02*
X150979142Y-136142152D01*
X150979142Y-136142152D02*
X150931523Y-136237390D01*
X150931523Y-136237390D02*
X150883904Y-136285009D01*
X150883904Y-136285009D02*
X150788666Y-136332628D01*
X150788666Y-136332628D02*
X150407714Y-136332628D01*
X151931523Y-136808819D02*
X151360095Y-136808819D01*
X151645809Y-136808819D02*
X151645809Y-135808819D01*
X151645809Y-135808819D02*
X151550571Y-135951676D01*
X151550571Y-135951676D02*
X151455333Y-136046914D01*
X151455333Y-136046914D02*
X151360095Y-136094533D01*
X115733980Y-147028366D02*
X115781600Y-147075985D01*
X115781600Y-147075985D02*
X115829219Y-147218842D01*
X115829219Y-147218842D02*
X115829219Y-147314080D01*
X115829219Y-147314080D02*
X115781600Y-147456937D01*
X115781600Y-147456937D02*
X115686361Y-147552175D01*
X115686361Y-147552175D02*
X115591123Y-147599794D01*
X115591123Y-147599794D02*
X115400647Y-147647413D01*
X115400647Y-147647413D02*
X115257790Y-147647413D01*
X115257790Y-147647413D02*
X115067314Y-147599794D01*
X115067314Y-147599794D02*
X114972076Y-147552175D01*
X114972076Y-147552175D02*
X114876838Y-147456937D01*
X114876838Y-147456937D02*
X114829219Y-147314080D01*
X114829219Y-147314080D02*
X114829219Y-147218842D01*
X114829219Y-147218842D02*
X114876838Y-147075985D01*
X114876838Y-147075985D02*
X114924457Y-147028366D01*
X114829219Y-146171223D02*
X114829219Y-146361699D01*
X114829219Y-146361699D02*
X114876838Y-146456937D01*
X114876838Y-146456937D02*
X114924457Y-146504556D01*
X114924457Y-146504556D02*
X115067314Y-146599794D01*
X115067314Y-146599794D02*
X115257790Y-146647413D01*
X115257790Y-146647413D02*
X115638742Y-146647413D01*
X115638742Y-146647413D02*
X115733980Y-146599794D01*
X115733980Y-146599794D02*
X115781600Y-146552175D01*
X115781600Y-146552175D02*
X115829219Y-146456937D01*
X115829219Y-146456937D02*
X115829219Y-146266461D01*
X115829219Y-146266461D02*
X115781600Y-146171223D01*
X115781600Y-146171223D02*
X115733980Y-146123604D01*
X115733980Y-146123604D02*
X115638742Y-146075985D01*
X115638742Y-146075985D02*
X115400647Y-146075985D01*
X115400647Y-146075985D02*
X115305409Y-146123604D01*
X115305409Y-146123604D02*
X115257790Y-146171223D01*
X115257790Y-146171223D02*
X115210171Y-146266461D01*
X115210171Y-146266461D02*
X115210171Y-146456937D01*
X115210171Y-146456937D02*
X115257790Y-146552175D01*
X115257790Y-146552175D02*
X115305409Y-146599794D01*
X115305409Y-146599794D02*
X115400647Y-146647413D01*
X173844019Y-136786857D02*
X173367828Y-137120190D01*
X173844019Y-137358285D02*
X172844019Y-137358285D01*
X172844019Y-137358285D02*
X172844019Y-136977333D01*
X172844019Y-136977333D02*
X172891638Y-136882095D01*
X172891638Y-136882095D02*
X172939257Y-136834476D01*
X172939257Y-136834476D02*
X173034495Y-136786857D01*
X173034495Y-136786857D02*
X173177352Y-136786857D01*
X173177352Y-136786857D02*
X173272590Y-136834476D01*
X173272590Y-136834476D02*
X173320209Y-136882095D01*
X173320209Y-136882095D02*
X173367828Y-136977333D01*
X173367828Y-136977333D02*
X173367828Y-137358285D01*
X172939257Y-136405904D02*
X172891638Y-136358285D01*
X172891638Y-136358285D02*
X172844019Y-136263047D01*
X172844019Y-136263047D02*
X172844019Y-136024952D01*
X172844019Y-136024952D02*
X172891638Y-135929714D01*
X172891638Y-135929714D02*
X172939257Y-135882095D01*
X172939257Y-135882095D02*
X173034495Y-135834476D01*
X173034495Y-135834476D02*
X173129733Y-135834476D01*
X173129733Y-135834476D02*
X173272590Y-135882095D01*
X173272590Y-135882095D02*
X173844019Y-136453523D01*
X173844019Y-136453523D02*
X173844019Y-135834476D01*
X173177352Y-134977333D02*
X173844019Y-134977333D01*
X172796400Y-135215428D02*
X173510685Y-135453523D01*
X173510685Y-135453523D02*
X173510685Y-134834476D01*
X125394142Y-130059580D02*
X125346523Y-130107200D01*
X125346523Y-130107200D02*
X125203666Y-130154819D01*
X125203666Y-130154819D02*
X125108428Y-130154819D01*
X125108428Y-130154819D02*
X124965571Y-130107200D01*
X124965571Y-130107200D02*
X124870333Y-130011961D01*
X124870333Y-130011961D02*
X124822714Y-129916723D01*
X124822714Y-129916723D02*
X124775095Y-129726247D01*
X124775095Y-129726247D02*
X124775095Y-129583390D01*
X124775095Y-129583390D02*
X124822714Y-129392914D01*
X124822714Y-129392914D02*
X124870333Y-129297676D01*
X124870333Y-129297676D02*
X124965571Y-129202438D01*
X124965571Y-129202438D02*
X125108428Y-129154819D01*
X125108428Y-129154819D02*
X125203666Y-129154819D01*
X125203666Y-129154819D02*
X125346523Y-129202438D01*
X125346523Y-129202438D02*
X125394142Y-129250057D01*
X126346523Y-130154819D02*
X125775095Y-130154819D01*
X126060809Y-130154819D02*
X126060809Y-129154819D01*
X126060809Y-129154819D02*
X125965571Y-129297676D01*
X125965571Y-129297676D02*
X125870333Y-129392914D01*
X125870333Y-129392914D02*
X125775095Y-129440533D01*
X127251285Y-129154819D02*
X126775095Y-129154819D01*
X126775095Y-129154819D02*
X126727476Y-129631009D01*
X126727476Y-129631009D02*
X126775095Y-129583390D01*
X126775095Y-129583390D02*
X126870333Y-129535771D01*
X126870333Y-129535771D02*
X127108428Y-129535771D01*
X127108428Y-129535771D02*
X127203666Y-129583390D01*
X127203666Y-129583390D02*
X127251285Y-129631009D01*
X127251285Y-129631009D02*
X127298904Y-129726247D01*
X127298904Y-129726247D02*
X127298904Y-129964342D01*
X127298904Y-129964342D02*
X127251285Y-130059580D01*
X127251285Y-130059580D02*
X127203666Y-130107200D01*
X127203666Y-130107200D02*
X127108428Y-130154819D01*
X127108428Y-130154819D02*
X126870333Y-130154819D01*
X126870333Y-130154819D02*
X126775095Y-130107200D01*
X126775095Y-130107200D02*
X126727476Y-130059580D01*
X134608819Y-123184047D02*
X134132628Y-123517380D01*
X134608819Y-123755475D02*
X133608819Y-123755475D01*
X133608819Y-123755475D02*
X133608819Y-123374523D01*
X133608819Y-123374523D02*
X133656438Y-123279285D01*
X133656438Y-123279285D02*
X133704057Y-123231666D01*
X133704057Y-123231666D02*
X133799295Y-123184047D01*
X133799295Y-123184047D02*
X133942152Y-123184047D01*
X133942152Y-123184047D02*
X134037390Y-123231666D01*
X134037390Y-123231666D02*
X134085009Y-123279285D01*
X134085009Y-123279285D02*
X134132628Y-123374523D01*
X134132628Y-123374523D02*
X134132628Y-123755475D01*
X134608819Y-122231666D02*
X134608819Y-122803094D01*
X134608819Y-122517380D02*
X133608819Y-122517380D01*
X133608819Y-122517380D02*
X133751676Y-122612618D01*
X133751676Y-122612618D02*
X133846914Y-122707856D01*
X133846914Y-122707856D02*
X133894533Y-122803094D01*
X133608819Y-121326904D02*
X133608819Y-121803094D01*
X133608819Y-121803094D02*
X134085009Y-121850713D01*
X134085009Y-121850713D02*
X134037390Y-121803094D01*
X134037390Y-121803094D02*
X133989771Y-121707856D01*
X133989771Y-121707856D02*
X133989771Y-121469761D01*
X133989771Y-121469761D02*
X134037390Y-121374523D01*
X134037390Y-121374523D02*
X134085009Y-121326904D01*
X134085009Y-121326904D02*
X134180247Y-121279285D01*
X134180247Y-121279285D02*
X134418342Y-121279285D01*
X134418342Y-121279285D02*
X134513580Y-121326904D01*
X134513580Y-121326904D02*
X134561200Y-121374523D01*
X134561200Y-121374523D02*
X134608819Y-121469761D01*
X134608819Y-121469761D02*
X134608819Y-121707856D01*
X134608819Y-121707856D02*
X134561200Y-121803094D01*
X134561200Y-121803094D02*
X134513580Y-121850713D01*
X134085009Y-120517380D02*
X134132628Y-120374523D01*
X134132628Y-120374523D02*
X134180247Y-120326904D01*
X134180247Y-120326904D02*
X134275485Y-120279285D01*
X134275485Y-120279285D02*
X134418342Y-120279285D01*
X134418342Y-120279285D02*
X134513580Y-120326904D01*
X134513580Y-120326904D02*
X134561200Y-120374523D01*
X134561200Y-120374523D02*
X134608819Y-120469761D01*
X134608819Y-120469761D02*
X134608819Y-120850713D01*
X134608819Y-120850713D02*
X133608819Y-120850713D01*
X133608819Y-120850713D02*
X133608819Y-120517380D01*
X133608819Y-120517380D02*
X133656438Y-120422142D01*
X133656438Y-120422142D02*
X133704057Y-120374523D01*
X133704057Y-120374523D02*
X133799295Y-120326904D01*
X133799295Y-120326904D02*
X133894533Y-120326904D01*
X133894533Y-120326904D02*
X133989771Y-120374523D01*
X133989771Y-120374523D02*
X134037390Y-120422142D01*
X134037390Y-120422142D02*
X134085009Y-120517380D01*
X134085009Y-120517380D02*
X134085009Y-120850713D01*
X134608819Y-119326904D02*
X134608819Y-119898332D01*
X134608819Y-119612618D02*
X133608819Y-119612618D01*
X133608819Y-119612618D02*
X133751676Y-119707856D01*
X133751676Y-119707856D02*
X133846914Y-119803094D01*
X133846914Y-119803094D02*
X133894533Y-119898332D01*
X173254819Y-120097619D02*
X172778628Y-120430952D01*
X173254819Y-120669047D02*
X172254819Y-120669047D01*
X172254819Y-120669047D02*
X172254819Y-120288095D01*
X172254819Y-120288095D02*
X172302438Y-120192857D01*
X172302438Y-120192857D02*
X172350057Y-120145238D01*
X172350057Y-120145238D02*
X172445295Y-120097619D01*
X172445295Y-120097619D02*
X172588152Y-120097619D01*
X172588152Y-120097619D02*
X172683390Y-120145238D01*
X172683390Y-120145238D02*
X172731009Y-120192857D01*
X172731009Y-120192857D02*
X172778628Y-120288095D01*
X172778628Y-120288095D02*
X172778628Y-120669047D01*
X172254819Y-119811904D02*
X172254819Y-119240476D01*
X173254819Y-119526190D02*
X172254819Y-119526190D01*
X172254819Y-118430952D02*
X172254819Y-118907142D01*
X172254819Y-118907142D02*
X172731009Y-118954761D01*
X172731009Y-118954761D02*
X172683390Y-118907142D01*
X172683390Y-118907142D02*
X172635771Y-118811904D01*
X172635771Y-118811904D02*
X172635771Y-118573809D01*
X172635771Y-118573809D02*
X172683390Y-118478571D01*
X172683390Y-118478571D02*
X172731009Y-118430952D01*
X172731009Y-118430952D02*
X172826247Y-118383333D01*
X172826247Y-118383333D02*
X173064342Y-118383333D01*
X173064342Y-118383333D02*
X173159580Y-118430952D01*
X173159580Y-118430952D02*
X173207200Y-118478571D01*
X173207200Y-118478571D02*
X173254819Y-118573809D01*
X173254819Y-118573809D02*
X173254819Y-118811904D01*
X173254819Y-118811904D02*
X173207200Y-118907142D01*
X173207200Y-118907142D02*
X173159580Y-118954761D01*
X127496819Y-123184047D02*
X127020628Y-123517380D01*
X127496819Y-123755475D02*
X126496819Y-123755475D01*
X126496819Y-123755475D02*
X126496819Y-123374523D01*
X126496819Y-123374523D02*
X126544438Y-123279285D01*
X126544438Y-123279285D02*
X126592057Y-123231666D01*
X126592057Y-123231666D02*
X126687295Y-123184047D01*
X126687295Y-123184047D02*
X126830152Y-123184047D01*
X126830152Y-123184047D02*
X126925390Y-123231666D01*
X126925390Y-123231666D02*
X126973009Y-123279285D01*
X126973009Y-123279285D02*
X127020628Y-123374523D01*
X127020628Y-123374523D02*
X127020628Y-123755475D01*
X127496819Y-122231666D02*
X127496819Y-122803094D01*
X127496819Y-122517380D02*
X126496819Y-122517380D01*
X126496819Y-122517380D02*
X126639676Y-122612618D01*
X126639676Y-122612618D02*
X126734914Y-122707856D01*
X126734914Y-122707856D02*
X126782533Y-122803094D01*
X127496819Y-121279285D02*
X127496819Y-121850713D01*
X127496819Y-121564999D02*
X126496819Y-121564999D01*
X126496819Y-121564999D02*
X126639676Y-121660237D01*
X126639676Y-121660237D02*
X126734914Y-121755475D01*
X126734914Y-121755475D02*
X126782533Y-121850713D01*
X126973009Y-120517380D02*
X127020628Y-120374523D01*
X127020628Y-120374523D02*
X127068247Y-120326904D01*
X127068247Y-120326904D02*
X127163485Y-120279285D01*
X127163485Y-120279285D02*
X127306342Y-120279285D01*
X127306342Y-120279285D02*
X127401580Y-120326904D01*
X127401580Y-120326904D02*
X127449200Y-120374523D01*
X127449200Y-120374523D02*
X127496819Y-120469761D01*
X127496819Y-120469761D02*
X127496819Y-120850713D01*
X127496819Y-120850713D02*
X126496819Y-120850713D01*
X126496819Y-120850713D02*
X126496819Y-120517380D01*
X126496819Y-120517380D02*
X126544438Y-120422142D01*
X126544438Y-120422142D02*
X126592057Y-120374523D01*
X126592057Y-120374523D02*
X126687295Y-120326904D01*
X126687295Y-120326904D02*
X126782533Y-120326904D01*
X126782533Y-120326904D02*
X126877771Y-120374523D01*
X126877771Y-120374523D02*
X126925390Y-120422142D01*
X126925390Y-120422142D02*
X126973009Y-120517380D01*
X126973009Y-120517380D02*
X126973009Y-120850713D01*
X127496819Y-119326904D02*
X127496819Y-119898332D01*
X127496819Y-119612618D02*
X126496819Y-119612618D01*
X126496819Y-119612618D02*
X126639676Y-119707856D01*
X126639676Y-119707856D02*
X126734914Y-119803094D01*
X126734914Y-119803094D02*
X126782533Y-119898332D01*
X163604819Y-119997619D02*
X163128628Y-120330952D01*
X163604819Y-120569047D02*
X162604819Y-120569047D01*
X162604819Y-120569047D02*
X162604819Y-120188095D01*
X162604819Y-120188095D02*
X162652438Y-120092857D01*
X162652438Y-120092857D02*
X162700057Y-120045238D01*
X162700057Y-120045238D02*
X162795295Y-119997619D01*
X162795295Y-119997619D02*
X162938152Y-119997619D01*
X162938152Y-119997619D02*
X163033390Y-120045238D01*
X163033390Y-120045238D02*
X163081009Y-120092857D01*
X163081009Y-120092857D02*
X163128628Y-120188095D01*
X163128628Y-120188095D02*
X163128628Y-120569047D01*
X162604819Y-119711904D02*
X162604819Y-119140476D01*
X163604819Y-119426190D02*
X162604819Y-119426190D01*
X162700057Y-118854761D02*
X162652438Y-118807142D01*
X162652438Y-118807142D02*
X162604819Y-118711904D01*
X162604819Y-118711904D02*
X162604819Y-118473809D01*
X162604819Y-118473809D02*
X162652438Y-118378571D01*
X162652438Y-118378571D02*
X162700057Y-118330952D01*
X162700057Y-118330952D02*
X162795295Y-118283333D01*
X162795295Y-118283333D02*
X162890533Y-118283333D01*
X162890533Y-118283333D02*
X163033390Y-118330952D01*
X163033390Y-118330952D02*
X163604819Y-118902380D01*
X163604819Y-118902380D02*
X163604819Y-118283333D01*
X137787142Y-158604019D02*
X137453809Y-158127828D01*
X137215714Y-158604019D02*
X137215714Y-157604019D01*
X137215714Y-157604019D02*
X137596666Y-157604019D01*
X137596666Y-157604019D02*
X137691904Y-157651638D01*
X137691904Y-157651638D02*
X137739523Y-157699257D01*
X137739523Y-157699257D02*
X137787142Y-157794495D01*
X137787142Y-157794495D02*
X137787142Y-157937352D01*
X137787142Y-157937352D02*
X137739523Y-158032590D01*
X137739523Y-158032590D02*
X137691904Y-158080209D01*
X137691904Y-158080209D02*
X137596666Y-158127828D01*
X137596666Y-158127828D02*
X137215714Y-158127828D01*
X138168095Y-157699257D02*
X138215714Y-157651638D01*
X138215714Y-157651638D02*
X138310952Y-157604019D01*
X138310952Y-157604019D02*
X138549047Y-157604019D01*
X138549047Y-157604019D02*
X138644285Y-157651638D01*
X138644285Y-157651638D02*
X138691904Y-157699257D01*
X138691904Y-157699257D02*
X138739523Y-157794495D01*
X138739523Y-157794495D02*
X138739523Y-157889733D01*
X138739523Y-157889733D02*
X138691904Y-158032590D01*
X138691904Y-158032590D02*
X138120476Y-158604019D01*
X138120476Y-158604019D02*
X138739523Y-158604019D01*
X139120476Y-157699257D02*
X139168095Y-157651638D01*
X139168095Y-157651638D02*
X139263333Y-157604019D01*
X139263333Y-157604019D02*
X139501428Y-157604019D01*
X139501428Y-157604019D02*
X139596666Y-157651638D01*
X139596666Y-157651638D02*
X139644285Y-157699257D01*
X139644285Y-157699257D02*
X139691904Y-157794495D01*
X139691904Y-157794495D02*
X139691904Y-157889733D01*
X139691904Y-157889733D02*
X139644285Y-158032590D01*
X139644285Y-158032590D02*
X139072857Y-158604019D01*
X139072857Y-158604019D02*
X139691904Y-158604019D01*
X132830819Y-117062047D02*
X132354628Y-117395380D01*
X132830819Y-117633475D02*
X131830819Y-117633475D01*
X131830819Y-117633475D02*
X131830819Y-117252523D01*
X131830819Y-117252523D02*
X131878438Y-117157285D01*
X131878438Y-117157285D02*
X131926057Y-117109666D01*
X131926057Y-117109666D02*
X132021295Y-117062047D01*
X132021295Y-117062047D02*
X132164152Y-117062047D01*
X132164152Y-117062047D02*
X132259390Y-117109666D01*
X132259390Y-117109666D02*
X132307009Y-117157285D01*
X132307009Y-117157285D02*
X132354628Y-117252523D01*
X132354628Y-117252523D02*
X132354628Y-117633475D01*
X132830819Y-116109666D02*
X132830819Y-116681094D01*
X132830819Y-116395380D02*
X131830819Y-116395380D01*
X131830819Y-116395380D02*
X131973676Y-116490618D01*
X131973676Y-116490618D02*
X132068914Y-116585856D01*
X132068914Y-116585856D02*
X132116533Y-116681094D01*
X132164152Y-115252523D02*
X132830819Y-115252523D01*
X131783200Y-115490618D02*
X132497485Y-115728713D01*
X132497485Y-115728713D02*
X132497485Y-115109666D01*
X132307009Y-114395380D02*
X132354628Y-114252523D01*
X132354628Y-114252523D02*
X132402247Y-114204904D01*
X132402247Y-114204904D02*
X132497485Y-114157285D01*
X132497485Y-114157285D02*
X132640342Y-114157285D01*
X132640342Y-114157285D02*
X132735580Y-114204904D01*
X132735580Y-114204904D02*
X132783200Y-114252523D01*
X132783200Y-114252523D02*
X132830819Y-114347761D01*
X132830819Y-114347761D02*
X132830819Y-114728713D01*
X132830819Y-114728713D02*
X131830819Y-114728713D01*
X131830819Y-114728713D02*
X131830819Y-114395380D01*
X131830819Y-114395380D02*
X131878438Y-114300142D01*
X131878438Y-114300142D02*
X131926057Y-114252523D01*
X131926057Y-114252523D02*
X132021295Y-114204904D01*
X132021295Y-114204904D02*
X132116533Y-114204904D01*
X132116533Y-114204904D02*
X132211771Y-114252523D01*
X132211771Y-114252523D02*
X132259390Y-114300142D01*
X132259390Y-114300142D02*
X132307009Y-114395380D01*
X132307009Y-114395380D02*
X132307009Y-114728713D01*
X132830819Y-113204904D02*
X132830819Y-113776332D01*
X132830819Y-113490618D02*
X131830819Y-113490618D01*
X131830819Y-113490618D02*
X131973676Y-113585856D01*
X131973676Y-113585856D02*
X132068914Y-113681094D01*
X132068914Y-113681094D02*
X132116533Y-113776332D01*
X176857066Y-152411619D02*
X176857066Y-153125904D01*
X176857066Y-153125904D02*
X176809447Y-153268761D01*
X176809447Y-153268761D02*
X176714209Y-153364000D01*
X176714209Y-153364000D02*
X176571352Y-153411619D01*
X176571352Y-153411619D02*
X176476114Y-153411619D01*
X177761828Y-152411619D02*
X177571352Y-152411619D01*
X177571352Y-152411619D02*
X177476114Y-152459238D01*
X177476114Y-152459238D02*
X177428495Y-152506857D01*
X177428495Y-152506857D02*
X177333257Y-152649714D01*
X177333257Y-152649714D02*
X177285638Y-152840190D01*
X177285638Y-152840190D02*
X177285638Y-153221142D01*
X177285638Y-153221142D02*
X177333257Y-153316380D01*
X177333257Y-153316380D02*
X177380876Y-153364000D01*
X177380876Y-153364000D02*
X177476114Y-153411619D01*
X177476114Y-153411619D02*
X177666590Y-153411619D01*
X177666590Y-153411619D02*
X177761828Y-153364000D01*
X177761828Y-153364000D02*
X177809447Y-153316380D01*
X177809447Y-153316380D02*
X177857066Y-153221142D01*
X177857066Y-153221142D02*
X177857066Y-152983047D01*
X177857066Y-152983047D02*
X177809447Y-152887809D01*
X177809447Y-152887809D02*
X177761828Y-152840190D01*
X177761828Y-152840190D02*
X177666590Y-152792571D01*
X177666590Y-152792571D02*
X177476114Y-152792571D01*
X177476114Y-152792571D02*
X177380876Y-152840190D01*
X177380876Y-152840190D02*
X177333257Y-152887809D01*
X177333257Y-152887809D02*
X177285638Y-152983047D01*
X112685980Y-140778866D02*
X112733600Y-140826485D01*
X112733600Y-140826485D02*
X112781219Y-140969342D01*
X112781219Y-140969342D02*
X112781219Y-141064580D01*
X112781219Y-141064580D02*
X112733600Y-141207437D01*
X112733600Y-141207437D02*
X112638361Y-141302675D01*
X112638361Y-141302675D02*
X112543123Y-141350294D01*
X112543123Y-141350294D02*
X112352647Y-141397913D01*
X112352647Y-141397913D02*
X112209790Y-141397913D01*
X112209790Y-141397913D02*
X112019314Y-141350294D01*
X112019314Y-141350294D02*
X111924076Y-141302675D01*
X111924076Y-141302675D02*
X111828838Y-141207437D01*
X111828838Y-141207437D02*
X111781219Y-141064580D01*
X111781219Y-141064580D02*
X111781219Y-140969342D01*
X111781219Y-140969342D02*
X111828838Y-140826485D01*
X111828838Y-140826485D02*
X111876457Y-140778866D01*
X112781219Y-140302675D02*
X112781219Y-140112199D01*
X112781219Y-140112199D02*
X112733600Y-140016961D01*
X112733600Y-140016961D02*
X112685980Y-139969342D01*
X112685980Y-139969342D02*
X112543123Y-139874104D01*
X112543123Y-139874104D02*
X112352647Y-139826485D01*
X112352647Y-139826485D02*
X111971695Y-139826485D01*
X111971695Y-139826485D02*
X111876457Y-139874104D01*
X111876457Y-139874104D02*
X111828838Y-139921723D01*
X111828838Y-139921723D02*
X111781219Y-140016961D01*
X111781219Y-140016961D02*
X111781219Y-140207437D01*
X111781219Y-140207437D02*
X111828838Y-140302675D01*
X111828838Y-140302675D02*
X111876457Y-140350294D01*
X111876457Y-140350294D02*
X111971695Y-140397913D01*
X111971695Y-140397913D02*
X112209790Y-140397913D01*
X112209790Y-140397913D02*
X112305028Y-140350294D01*
X112305028Y-140350294D02*
X112352647Y-140302675D01*
X112352647Y-140302675D02*
X112400266Y-140207437D01*
X112400266Y-140207437D02*
X112400266Y-140016961D01*
X112400266Y-140016961D02*
X112352647Y-139921723D01*
X112352647Y-139921723D02*
X112305028Y-139874104D01*
X112305028Y-139874104D02*
X112209790Y-139826485D01*
X105880819Y-109545333D02*
X106595104Y-109545333D01*
X106595104Y-109545333D02*
X106737961Y-109592952D01*
X106737961Y-109592952D02*
X106833200Y-109688190D01*
X106833200Y-109688190D02*
X106880819Y-109831047D01*
X106880819Y-109831047D02*
X106880819Y-109926285D01*
X106880819Y-109069142D02*
X105880819Y-109069142D01*
X105880819Y-109069142D02*
X105880819Y-108688190D01*
X105880819Y-108688190D02*
X105928438Y-108592952D01*
X105928438Y-108592952D02*
X105976057Y-108545333D01*
X105976057Y-108545333D02*
X106071295Y-108497714D01*
X106071295Y-108497714D02*
X106214152Y-108497714D01*
X106214152Y-108497714D02*
X106309390Y-108545333D01*
X106309390Y-108545333D02*
X106357009Y-108592952D01*
X106357009Y-108592952D02*
X106404628Y-108688190D01*
X106404628Y-108688190D02*
X106404628Y-109069142D01*
X106880819Y-107545333D02*
X106880819Y-108116761D01*
X106880819Y-107831047D02*
X105880819Y-107831047D01*
X105880819Y-107831047D02*
X106023676Y-107926285D01*
X106023676Y-107926285D02*
X106118914Y-108021523D01*
X106118914Y-108021523D02*
X106166533Y-108116761D01*
X115050819Y-116611857D02*
X114574628Y-116945190D01*
X115050819Y-117183285D02*
X114050819Y-117183285D01*
X114050819Y-117183285D02*
X114050819Y-116802333D01*
X114050819Y-116802333D02*
X114098438Y-116707095D01*
X114098438Y-116707095D02*
X114146057Y-116659476D01*
X114146057Y-116659476D02*
X114241295Y-116611857D01*
X114241295Y-116611857D02*
X114384152Y-116611857D01*
X114384152Y-116611857D02*
X114479390Y-116659476D01*
X114479390Y-116659476D02*
X114527009Y-116707095D01*
X114527009Y-116707095D02*
X114574628Y-116802333D01*
X114574628Y-116802333D02*
X114574628Y-117183285D01*
X114384152Y-115754714D02*
X115050819Y-115754714D01*
X114003200Y-115992809D02*
X114717485Y-116230904D01*
X114717485Y-116230904D02*
X114717485Y-115611857D01*
X114527009Y-114897571D02*
X114574628Y-114754714D01*
X114574628Y-114754714D02*
X114622247Y-114707095D01*
X114622247Y-114707095D02*
X114717485Y-114659476D01*
X114717485Y-114659476D02*
X114860342Y-114659476D01*
X114860342Y-114659476D02*
X114955580Y-114707095D01*
X114955580Y-114707095D02*
X115003200Y-114754714D01*
X115003200Y-114754714D02*
X115050819Y-114849952D01*
X115050819Y-114849952D02*
X115050819Y-115230904D01*
X115050819Y-115230904D02*
X114050819Y-115230904D01*
X114050819Y-115230904D02*
X114050819Y-114897571D01*
X114050819Y-114897571D02*
X114098438Y-114802333D01*
X114098438Y-114802333D02*
X114146057Y-114754714D01*
X114146057Y-114754714D02*
X114241295Y-114707095D01*
X114241295Y-114707095D02*
X114336533Y-114707095D01*
X114336533Y-114707095D02*
X114431771Y-114754714D01*
X114431771Y-114754714D02*
X114479390Y-114802333D01*
X114479390Y-114802333D02*
X114527009Y-114897571D01*
X114527009Y-114897571D02*
X114527009Y-115230904D01*
X115050819Y-113707095D02*
X115050819Y-114278523D01*
X115050819Y-113992809D02*
X114050819Y-113992809D01*
X114050819Y-113992809D02*
X114193676Y-114088047D01*
X114193676Y-114088047D02*
X114288914Y-114183285D01*
X114288914Y-114183285D02*
X114336533Y-114278523D01*
X187255219Y-136837657D02*
X186779028Y-137170990D01*
X187255219Y-137409085D02*
X186255219Y-137409085D01*
X186255219Y-137409085D02*
X186255219Y-137028133D01*
X186255219Y-137028133D02*
X186302838Y-136932895D01*
X186302838Y-136932895D02*
X186350457Y-136885276D01*
X186350457Y-136885276D02*
X186445695Y-136837657D01*
X186445695Y-136837657D02*
X186588552Y-136837657D01*
X186588552Y-136837657D02*
X186683790Y-136885276D01*
X186683790Y-136885276D02*
X186731409Y-136932895D01*
X186731409Y-136932895D02*
X186779028Y-137028133D01*
X186779028Y-137028133D02*
X186779028Y-137409085D01*
X186350457Y-136456704D02*
X186302838Y-136409085D01*
X186302838Y-136409085D02*
X186255219Y-136313847D01*
X186255219Y-136313847D02*
X186255219Y-136075752D01*
X186255219Y-136075752D02*
X186302838Y-135980514D01*
X186302838Y-135980514D02*
X186350457Y-135932895D01*
X186350457Y-135932895D02*
X186445695Y-135885276D01*
X186445695Y-135885276D02*
X186540933Y-135885276D01*
X186540933Y-135885276D02*
X186683790Y-135932895D01*
X186683790Y-135932895D02*
X187255219Y-136504323D01*
X187255219Y-136504323D02*
X187255219Y-135885276D01*
X187255219Y-134932895D02*
X187255219Y-135504323D01*
X187255219Y-135218609D02*
X186255219Y-135218609D01*
X186255219Y-135218609D02*
X186398076Y-135313847D01*
X186398076Y-135313847D02*
X186493314Y-135409085D01*
X186493314Y-135409085D02*
X186540933Y-135504323D01*
X136386819Y-117088047D02*
X135910628Y-117421380D01*
X136386819Y-117659475D02*
X135386819Y-117659475D01*
X135386819Y-117659475D02*
X135386819Y-117278523D01*
X135386819Y-117278523D02*
X135434438Y-117183285D01*
X135434438Y-117183285D02*
X135482057Y-117135666D01*
X135482057Y-117135666D02*
X135577295Y-117088047D01*
X135577295Y-117088047D02*
X135720152Y-117088047D01*
X135720152Y-117088047D02*
X135815390Y-117135666D01*
X135815390Y-117135666D02*
X135863009Y-117183285D01*
X135863009Y-117183285D02*
X135910628Y-117278523D01*
X135910628Y-117278523D02*
X135910628Y-117659475D01*
X136386819Y-116135666D02*
X136386819Y-116707094D01*
X136386819Y-116421380D02*
X135386819Y-116421380D01*
X135386819Y-116421380D02*
X135529676Y-116516618D01*
X135529676Y-116516618D02*
X135624914Y-116611856D01*
X135624914Y-116611856D02*
X135672533Y-116707094D01*
X135386819Y-115278523D02*
X135386819Y-115468999D01*
X135386819Y-115468999D02*
X135434438Y-115564237D01*
X135434438Y-115564237D02*
X135482057Y-115611856D01*
X135482057Y-115611856D02*
X135624914Y-115707094D01*
X135624914Y-115707094D02*
X135815390Y-115754713D01*
X135815390Y-115754713D02*
X136196342Y-115754713D01*
X136196342Y-115754713D02*
X136291580Y-115707094D01*
X136291580Y-115707094D02*
X136339200Y-115659475D01*
X136339200Y-115659475D02*
X136386819Y-115564237D01*
X136386819Y-115564237D02*
X136386819Y-115373761D01*
X136386819Y-115373761D02*
X136339200Y-115278523D01*
X136339200Y-115278523D02*
X136291580Y-115230904D01*
X136291580Y-115230904D02*
X136196342Y-115183285D01*
X136196342Y-115183285D02*
X135958247Y-115183285D01*
X135958247Y-115183285D02*
X135863009Y-115230904D01*
X135863009Y-115230904D02*
X135815390Y-115278523D01*
X135815390Y-115278523D02*
X135767771Y-115373761D01*
X135767771Y-115373761D02*
X135767771Y-115564237D01*
X135767771Y-115564237D02*
X135815390Y-115659475D01*
X135815390Y-115659475D02*
X135863009Y-115707094D01*
X135863009Y-115707094D02*
X135958247Y-115754713D01*
X135863009Y-114421380D02*
X135910628Y-114278523D01*
X135910628Y-114278523D02*
X135958247Y-114230904D01*
X135958247Y-114230904D02*
X136053485Y-114183285D01*
X136053485Y-114183285D02*
X136196342Y-114183285D01*
X136196342Y-114183285D02*
X136291580Y-114230904D01*
X136291580Y-114230904D02*
X136339200Y-114278523D01*
X136339200Y-114278523D02*
X136386819Y-114373761D01*
X136386819Y-114373761D02*
X136386819Y-114754713D01*
X136386819Y-114754713D02*
X135386819Y-114754713D01*
X135386819Y-114754713D02*
X135386819Y-114421380D01*
X135386819Y-114421380D02*
X135434438Y-114326142D01*
X135434438Y-114326142D02*
X135482057Y-114278523D01*
X135482057Y-114278523D02*
X135577295Y-114230904D01*
X135577295Y-114230904D02*
X135672533Y-114230904D01*
X135672533Y-114230904D02*
X135767771Y-114278523D01*
X135767771Y-114278523D02*
X135815390Y-114326142D01*
X135815390Y-114326142D02*
X135863009Y-114421380D01*
X135863009Y-114421380D02*
X135863009Y-114754713D01*
X136386819Y-113230904D02*
X136386819Y-113802332D01*
X136386819Y-113516618D02*
X135386819Y-113516618D01*
X135386819Y-113516618D02*
X135529676Y-113611856D01*
X135529676Y-113611856D02*
X135624914Y-113707094D01*
X135624914Y-113707094D02*
X135672533Y-113802332D01*
X149707695Y-127712419D02*
X149707695Y-128521942D01*
X149707695Y-128521942D02*
X149755314Y-128617180D01*
X149755314Y-128617180D02*
X149802933Y-128664800D01*
X149802933Y-128664800D02*
X149898171Y-128712419D01*
X149898171Y-128712419D02*
X150088647Y-128712419D01*
X150088647Y-128712419D02*
X150183885Y-128664800D01*
X150183885Y-128664800D02*
X150231504Y-128617180D01*
X150231504Y-128617180D02*
X150279123Y-128521942D01*
X150279123Y-128521942D02*
X150279123Y-127712419D01*
X150707695Y-127807657D02*
X150755314Y-127760038D01*
X150755314Y-127760038D02*
X150850552Y-127712419D01*
X150850552Y-127712419D02*
X151088647Y-127712419D01*
X151088647Y-127712419D02*
X151183885Y-127760038D01*
X151183885Y-127760038D02*
X151231504Y-127807657D01*
X151231504Y-127807657D02*
X151279123Y-127902895D01*
X151279123Y-127902895D02*
X151279123Y-127998133D01*
X151279123Y-127998133D02*
X151231504Y-128140990D01*
X151231504Y-128140990D02*
X150660076Y-128712419D01*
X150660076Y-128712419D02*
X151279123Y-128712419D01*
X139942819Y-117088047D02*
X139466628Y-117421380D01*
X139942819Y-117659475D02*
X138942819Y-117659475D01*
X138942819Y-117659475D02*
X138942819Y-117278523D01*
X138942819Y-117278523D02*
X138990438Y-117183285D01*
X138990438Y-117183285D02*
X139038057Y-117135666D01*
X139038057Y-117135666D02*
X139133295Y-117088047D01*
X139133295Y-117088047D02*
X139276152Y-117088047D01*
X139276152Y-117088047D02*
X139371390Y-117135666D01*
X139371390Y-117135666D02*
X139419009Y-117183285D01*
X139419009Y-117183285D02*
X139466628Y-117278523D01*
X139466628Y-117278523D02*
X139466628Y-117659475D01*
X139942819Y-116135666D02*
X139942819Y-116707094D01*
X139942819Y-116421380D02*
X138942819Y-116421380D01*
X138942819Y-116421380D02*
X139085676Y-116516618D01*
X139085676Y-116516618D02*
X139180914Y-116611856D01*
X139180914Y-116611856D02*
X139228533Y-116707094D01*
X139371390Y-115564237D02*
X139323771Y-115659475D01*
X139323771Y-115659475D02*
X139276152Y-115707094D01*
X139276152Y-115707094D02*
X139180914Y-115754713D01*
X139180914Y-115754713D02*
X139133295Y-115754713D01*
X139133295Y-115754713D02*
X139038057Y-115707094D01*
X139038057Y-115707094D02*
X138990438Y-115659475D01*
X138990438Y-115659475D02*
X138942819Y-115564237D01*
X138942819Y-115564237D02*
X138942819Y-115373761D01*
X138942819Y-115373761D02*
X138990438Y-115278523D01*
X138990438Y-115278523D02*
X139038057Y-115230904D01*
X139038057Y-115230904D02*
X139133295Y-115183285D01*
X139133295Y-115183285D02*
X139180914Y-115183285D01*
X139180914Y-115183285D02*
X139276152Y-115230904D01*
X139276152Y-115230904D02*
X139323771Y-115278523D01*
X139323771Y-115278523D02*
X139371390Y-115373761D01*
X139371390Y-115373761D02*
X139371390Y-115564237D01*
X139371390Y-115564237D02*
X139419009Y-115659475D01*
X139419009Y-115659475D02*
X139466628Y-115707094D01*
X139466628Y-115707094D02*
X139561866Y-115754713D01*
X139561866Y-115754713D02*
X139752342Y-115754713D01*
X139752342Y-115754713D02*
X139847580Y-115707094D01*
X139847580Y-115707094D02*
X139895200Y-115659475D01*
X139895200Y-115659475D02*
X139942819Y-115564237D01*
X139942819Y-115564237D02*
X139942819Y-115373761D01*
X139942819Y-115373761D02*
X139895200Y-115278523D01*
X139895200Y-115278523D02*
X139847580Y-115230904D01*
X139847580Y-115230904D02*
X139752342Y-115183285D01*
X139752342Y-115183285D02*
X139561866Y-115183285D01*
X139561866Y-115183285D02*
X139466628Y-115230904D01*
X139466628Y-115230904D02*
X139419009Y-115278523D01*
X139419009Y-115278523D02*
X139371390Y-115373761D01*
X139419009Y-114421380D02*
X139466628Y-114278523D01*
X139466628Y-114278523D02*
X139514247Y-114230904D01*
X139514247Y-114230904D02*
X139609485Y-114183285D01*
X139609485Y-114183285D02*
X139752342Y-114183285D01*
X139752342Y-114183285D02*
X139847580Y-114230904D01*
X139847580Y-114230904D02*
X139895200Y-114278523D01*
X139895200Y-114278523D02*
X139942819Y-114373761D01*
X139942819Y-114373761D02*
X139942819Y-114754713D01*
X139942819Y-114754713D02*
X138942819Y-114754713D01*
X138942819Y-114754713D02*
X138942819Y-114421380D01*
X138942819Y-114421380D02*
X138990438Y-114326142D01*
X138990438Y-114326142D02*
X139038057Y-114278523D01*
X139038057Y-114278523D02*
X139133295Y-114230904D01*
X139133295Y-114230904D02*
X139228533Y-114230904D01*
X139228533Y-114230904D02*
X139323771Y-114278523D01*
X139323771Y-114278523D02*
X139371390Y-114326142D01*
X139371390Y-114326142D02*
X139419009Y-114421380D01*
X139419009Y-114421380D02*
X139419009Y-114754713D01*
X139942819Y-113230904D02*
X139942819Y-113802332D01*
X139942819Y-113516618D02*
X138942819Y-113516618D01*
X138942819Y-113516618D02*
X139085676Y-113611856D01*
X139085676Y-113611856D02*
X139180914Y-113707094D01*
X139180914Y-113707094D02*
X139228533Y-113802332D01*
X191469180Y-153754057D02*
X191516800Y-153801676D01*
X191516800Y-153801676D02*
X191564419Y-153944533D01*
X191564419Y-153944533D02*
X191564419Y-154039771D01*
X191564419Y-154039771D02*
X191516800Y-154182628D01*
X191516800Y-154182628D02*
X191421561Y-154277866D01*
X191421561Y-154277866D02*
X191326323Y-154325485D01*
X191326323Y-154325485D02*
X191135847Y-154373104D01*
X191135847Y-154373104D02*
X190992990Y-154373104D01*
X190992990Y-154373104D02*
X190802514Y-154325485D01*
X190802514Y-154325485D02*
X190707276Y-154277866D01*
X190707276Y-154277866D02*
X190612038Y-154182628D01*
X190612038Y-154182628D02*
X190564419Y-154039771D01*
X190564419Y-154039771D02*
X190564419Y-153944533D01*
X190564419Y-153944533D02*
X190612038Y-153801676D01*
X190612038Y-153801676D02*
X190659657Y-153754057D01*
X190564419Y-153420723D02*
X190564419Y-152801676D01*
X190564419Y-152801676D02*
X190945371Y-153135009D01*
X190945371Y-153135009D02*
X190945371Y-152992152D01*
X190945371Y-152992152D02*
X190992990Y-152896914D01*
X190992990Y-152896914D02*
X191040609Y-152849295D01*
X191040609Y-152849295D02*
X191135847Y-152801676D01*
X191135847Y-152801676D02*
X191373942Y-152801676D01*
X191373942Y-152801676D02*
X191469180Y-152849295D01*
X191469180Y-152849295D02*
X191516800Y-152896914D01*
X191516800Y-152896914D02*
X191564419Y-152992152D01*
X191564419Y-152992152D02*
X191564419Y-153277866D01*
X191564419Y-153277866D02*
X191516800Y-153373104D01*
X191516800Y-153373104D02*
X191469180Y-153420723D01*
X190564419Y-152182628D02*
X190564419Y-152087390D01*
X190564419Y-152087390D02*
X190612038Y-151992152D01*
X190612038Y-151992152D02*
X190659657Y-151944533D01*
X190659657Y-151944533D02*
X190754895Y-151896914D01*
X190754895Y-151896914D02*
X190945371Y-151849295D01*
X190945371Y-151849295D02*
X191183466Y-151849295D01*
X191183466Y-151849295D02*
X191373942Y-151896914D01*
X191373942Y-151896914D02*
X191469180Y-151944533D01*
X191469180Y-151944533D02*
X191516800Y-151992152D01*
X191516800Y-151992152D02*
X191564419Y-152087390D01*
X191564419Y-152087390D02*
X191564419Y-152182628D01*
X191564419Y-152182628D02*
X191516800Y-152277866D01*
X191516800Y-152277866D02*
X191469180Y-152325485D01*
X191469180Y-152325485D02*
X191373942Y-152373104D01*
X191373942Y-152373104D02*
X191183466Y-152420723D01*
X191183466Y-152420723D02*
X190945371Y-152420723D01*
X190945371Y-152420723D02*
X190754895Y-152373104D01*
X190754895Y-152373104D02*
X190659657Y-152325485D01*
X190659657Y-152325485D02*
X190612038Y-152277866D01*
X190612038Y-152277866D02*
X190564419Y-152182628D01*
X145452857Y-113836838D02*
X145405238Y-113932076D01*
X145405238Y-113932076D02*
X145310000Y-114027314D01*
X145310000Y-114027314D02*
X145167142Y-114170171D01*
X145167142Y-114170171D02*
X145119523Y-114265409D01*
X145119523Y-114265409D02*
X145119523Y-114360647D01*
X145357619Y-114313028D02*
X145310000Y-114408266D01*
X145310000Y-114408266D02*
X145214761Y-114503504D01*
X145214761Y-114503504D02*
X145024285Y-114551123D01*
X145024285Y-114551123D02*
X144690952Y-114551123D01*
X144690952Y-114551123D02*
X144500476Y-114503504D01*
X144500476Y-114503504D02*
X144405238Y-114408266D01*
X144405238Y-114408266D02*
X144357619Y-114313028D01*
X144357619Y-114313028D02*
X144357619Y-114122552D01*
X144357619Y-114122552D02*
X144405238Y-114027314D01*
X144405238Y-114027314D02*
X144500476Y-113932076D01*
X144500476Y-113932076D02*
X144690952Y-113884457D01*
X144690952Y-113884457D02*
X145024285Y-113884457D01*
X145024285Y-113884457D02*
X145214761Y-113932076D01*
X145214761Y-113932076D02*
X145310000Y-114027314D01*
X145310000Y-114027314D02*
X145357619Y-114122552D01*
X145357619Y-114122552D02*
X145357619Y-114313028D01*
X145357619Y-112932076D02*
X145357619Y-113503504D01*
X145357619Y-113217790D02*
X144357619Y-113217790D01*
X144357619Y-113217790D02*
X144500476Y-113313028D01*
X144500476Y-113313028D02*
X144595714Y-113408266D01*
X144595714Y-113408266D02*
X144643333Y-113503504D01*
X116243733Y-153056780D02*
X116196114Y-153104400D01*
X116196114Y-153104400D02*
X116053257Y-153152019D01*
X116053257Y-153152019D02*
X115958019Y-153152019D01*
X115958019Y-153152019D02*
X115815162Y-153104400D01*
X115815162Y-153104400D02*
X115719924Y-153009161D01*
X115719924Y-153009161D02*
X115672305Y-152913923D01*
X115672305Y-152913923D02*
X115624686Y-152723447D01*
X115624686Y-152723447D02*
X115624686Y-152580590D01*
X115624686Y-152580590D02*
X115672305Y-152390114D01*
X115672305Y-152390114D02*
X115719924Y-152294876D01*
X115719924Y-152294876D02*
X115815162Y-152199638D01*
X115815162Y-152199638D02*
X115958019Y-152152019D01*
X115958019Y-152152019D02*
X116053257Y-152152019D01*
X116053257Y-152152019D02*
X116196114Y-152199638D01*
X116196114Y-152199638D02*
X116243733Y-152247257D01*
X116624686Y-152247257D02*
X116672305Y-152199638D01*
X116672305Y-152199638D02*
X116767543Y-152152019D01*
X116767543Y-152152019D02*
X117005638Y-152152019D01*
X117005638Y-152152019D02*
X117100876Y-152199638D01*
X117100876Y-152199638D02*
X117148495Y-152247257D01*
X117148495Y-152247257D02*
X117196114Y-152342495D01*
X117196114Y-152342495D02*
X117196114Y-152437733D01*
X117196114Y-152437733D02*
X117148495Y-152580590D01*
X117148495Y-152580590D02*
X116577067Y-153152019D01*
X116577067Y-153152019D02*
X117196114Y-153152019D01*
X133990819Y-142629904D02*
X134800342Y-142629904D01*
X134800342Y-142629904D02*
X134895580Y-142582285D01*
X134895580Y-142582285D02*
X134943200Y-142534666D01*
X134943200Y-142534666D02*
X134990819Y-142439428D01*
X134990819Y-142439428D02*
X134990819Y-142248952D01*
X134990819Y-142248952D02*
X134943200Y-142153714D01*
X134943200Y-142153714D02*
X134895580Y-142106095D01*
X134895580Y-142106095D02*
X134800342Y-142058476D01*
X134800342Y-142058476D02*
X133990819Y-142058476D01*
X134990819Y-141058476D02*
X134990819Y-141629904D01*
X134990819Y-141344190D02*
X133990819Y-141344190D01*
X133990819Y-141344190D02*
X134133676Y-141439428D01*
X134133676Y-141439428D02*
X134228914Y-141534666D01*
X134228914Y-141534666D02*
X134276533Y-141629904D01*
X181395519Y-147660704D02*
X181395519Y-147089276D01*
X182395519Y-147374990D02*
X181395519Y-147374990D01*
X182395519Y-146184514D02*
X181919328Y-146517847D01*
X182395519Y-146755942D02*
X181395519Y-146755942D01*
X181395519Y-146755942D02*
X181395519Y-146374990D01*
X181395519Y-146374990D02*
X181443138Y-146279752D01*
X181443138Y-146279752D02*
X181490757Y-146232133D01*
X181490757Y-146232133D02*
X181585995Y-146184514D01*
X181585995Y-146184514D02*
X181728852Y-146184514D01*
X181728852Y-146184514D02*
X181824090Y-146232133D01*
X181824090Y-146232133D02*
X181871709Y-146279752D01*
X181871709Y-146279752D02*
X181919328Y-146374990D01*
X181919328Y-146374990D02*
X181919328Y-146755942D01*
X182395519Y-145232133D02*
X182395519Y-145803561D01*
X182395519Y-145517847D02*
X181395519Y-145517847D01*
X181395519Y-145517847D02*
X181538376Y-145613085D01*
X181538376Y-145613085D02*
X181633614Y-145708323D01*
X181633614Y-145708323D02*
X181681233Y-145803561D01*
X115733980Y-139122557D02*
X115781600Y-139170176D01*
X115781600Y-139170176D02*
X115829219Y-139313033D01*
X115829219Y-139313033D02*
X115829219Y-139408271D01*
X115829219Y-139408271D02*
X115781600Y-139551128D01*
X115781600Y-139551128D02*
X115686361Y-139646366D01*
X115686361Y-139646366D02*
X115591123Y-139693985D01*
X115591123Y-139693985D02*
X115400647Y-139741604D01*
X115400647Y-139741604D02*
X115257790Y-139741604D01*
X115257790Y-139741604D02*
X115067314Y-139693985D01*
X115067314Y-139693985D02*
X114972076Y-139646366D01*
X114972076Y-139646366D02*
X114876838Y-139551128D01*
X114876838Y-139551128D02*
X114829219Y-139408271D01*
X114829219Y-139408271D02*
X114829219Y-139313033D01*
X114829219Y-139313033D02*
X114876838Y-139170176D01*
X114876838Y-139170176D02*
X114924457Y-139122557D01*
X115829219Y-138170176D02*
X115829219Y-138741604D01*
X115829219Y-138455890D02*
X114829219Y-138455890D01*
X114829219Y-138455890D02*
X114972076Y-138551128D01*
X114972076Y-138551128D02*
X115067314Y-138646366D01*
X115067314Y-138646366D02*
X115114933Y-138741604D01*
X114829219Y-137551128D02*
X114829219Y-137455890D01*
X114829219Y-137455890D02*
X114876838Y-137360652D01*
X114876838Y-137360652D02*
X114924457Y-137313033D01*
X114924457Y-137313033D02*
X115019695Y-137265414D01*
X115019695Y-137265414D02*
X115210171Y-137217795D01*
X115210171Y-137217795D02*
X115448266Y-137217795D01*
X115448266Y-137217795D02*
X115638742Y-137265414D01*
X115638742Y-137265414D02*
X115733980Y-137313033D01*
X115733980Y-137313033D02*
X115781600Y-137360652D01*
X115781600Y-137360652D02*
X115829219Y-137455890D01*
X115829219Y-137455890D02*
X115829219Y-137551128D01*
X115829219Y-137551128D02*
X115781600Y-137646366D01*
X115781600Y-137646366D02*
X115733980Y-137693985D01*
X115733980Y-137693985D02*
X115638742Y-137741604D01*
X115638742Y-137741604D02*
X115448266Y-137789223D01*
X115448266Y-137789223D02*
X115210171Y-137789223D01*
X115210171Y-137789223D02*
X115019695Y-137741604D01*
X115019695Y-137741604D02*
X114924457Y-137693985D01*
X114924457Y-137693985D02*
X114876838Y-137646366D01*
X114876838Y-137646366D02*
X114829219Y-137551128D01*
X138418819Y-123285047D02*
X137942628Y-123618380D01*
X138418819Y-123856475D02*
X137418819Y-123856475D01*
X137418819Y-123856475D02*
X137418819Y-123475523D01*
X137418819Y-123475523D02*
X137466438Y-123380285D01*
X137466438Y-123380285D02*
X137514057Y-123332666D01*
X137514057Y-123332666D02*
X137609295Y-123285047D01*
X137609295Y-123285047D02*
X137752152Y-123285047D01*
X137752152Y-123285047D02*
X137847390Y-123332666D01*
X137847390Y-123332666D02*
X137895009Y-123380285D01*
X137895009Y-123380285D02*
X137942628Y-123475523D01*
X137942628Y-123475523D02*
X137942628Y-123856475D01*
X138418819Y-122332666D02*
X138418819Y-122904094D01*
X138418819Y-122618380D02*
X137418819Y-122618380D01*
X137418819Y-122618380D02*
X137561676Y-122713618D01*
X137561676Y-122713618D02*
X137656914Y-122808856D01*
X137656914Y-122808856D02*
X137704533Y-122904094D01*
X137418819Y-121999332D02*
X137418819Y-121332666D01*
X137418819Y-121332666D02*
X138418819Y-121761237D01*
X137895009Y-120618380D02*
X137942628Y-120475523D01*
X137942628Y-120475523D02*
X137990247Y-120427904D01*
X137990247Y-120427904D02*
X138085485Y-120380285D01*
X138085485Y-120380285D02*
X138228342Y-120380285D01*
X138228342Y-120380285D02*
X138323580Y-120427904D01*
X138323580Y-120427904D02*
X138371200Y-120475523D01*
X138371200Y-120475523D02*
X138418819Y-120570761D01*
X138418819Y-120570761D02*
X138418819Y-120951713D01*
X138418819Y-120951713D02*
X137418819Y-120951713D01*
X137418819Y-120951713D02*
X137418819Y-120618380D01*
X137418819Y-120618380D02*
X137466438Y-120523142D01*
X137466438Y-120523142D02*
X137514057Y-120475523D01*
X137514057Y-120475523D02*
X137609295Y-120427904D01*
X137609295Y-120427904D02*
X137704533Y-120427904D01*
X137704533Y-120427904D02*
X137799771Y-120475523D01*
X137799771Y-120475523D02*
X137847390Y-120523142D01*
X137847390Y-120523142D02*
X137895009Y-120618380D01*
X137895009Y-120618380D02*
X137895009Y-120951713D01*
X138418819Y-119427904D02*
X138418819Y-119999332D01*
X138418819Y-119713618D02*
X137418819Y-119713618D01*
X137418819Y-119713618D02*
X137561676Y-119808856D01*
X137561676Y-119808856D02*
X137656914Y-119904094D01*
X137656914Y-119904094D02*
X137704533Y-119999332D01*
X190990780Y-136837657D02*
X191038400Y-136885276D01*
X191038400Y-136885276D02*
X191086019Y-137028133D01*
X191086019Y-137028133D02*
X191086019Y-137123371D01*
X191086019Y-137123371D02*
X191038400Y-137266228D01*
X191038400Y-137266228D02*
X190943161Y-137361466D01*
X190943161Y-137361466D02*
X190847923Y-137409085D01*
X190847923Y-137409085D02*
X190657447Y-137456704D01*
X190657447Y-137456704D02*
X190514590Y-137456704D01*
X190514590Y-137456704D02*
X190324114Y-137409085D01*
X190324114Y-137409085D02*
X190228876Y-137361466D01*
X190228876Y-137361466D02*
X190133638Y-137266228D01*
X190133638Y-137266228D02*
X190086019Y-137123371D01*
X190086019Y-137123371D02*
X190086019Y-137028133D01*
X190086019Y-137028133D02*
X190133638Y-136885276D01*
X190133638Y-136885276D02*
X190181257Y-136837657D01*
X190181257Y-136456704D02*
X190133638Y-136409085D01*
X190133638Y-136409085D02*
X190086019Y-136313847D01*
X190086019Y-136313847D02*
X190086019Y-136075752D01*
X190086019Y-136075752D02*
X190133638Y-135980514D01*
X190133638Y-135980514D02*
X190181257Y-135932895D01*
X190181257Y-135932895D02*
X190276495Y-135885276D01*
X190276495Y-135885276D02*
X190371733Y-135885276D01*
X190371733Y-135885276D02*
X190514590Y-135932895D01*
X190514590Y-135932895D02*
X191086019Y-136504323D01*
X191086019Y-136504323D02*
X191086019Y-135885276D01*
X190086019Y-135028133D02*
X190086019Y-135218609D01*
X190086019Y-135218609D02*
X190133638Y-135313847D01*
X190133638Y-135313847D02*
X190181257Y-135361466D01*
X190181257Y-135361466D02*
X190324114Y-135456704D01*
X190324114Y-135456704D02*
X190514590Y-135504323D01*
X190514590Y-135504323D02*
X190895542Y-135504323D01*
X190895542Y-135504323D02*
X190990780Y-135456704D01*
X190990780Y-135456704D02*
X191038400Y-135409085D01*
X191038400Y-135409085D02*
X191086019Y-135313847D01*
X191086019Y-135313847D02*
X191086019Y-135123371D01*
X191086019Y-135123371D02*
X191038400Y-135028133D01*
X191038400Y-135028133D02*
X190990780Y-134980514D01*
X190990780Y-134980514D02*
X190895542Y-134932895D01*
X190895542Y-134932895D02*
X190657447Y-134932895D01*
X190657447Y-134932895D02*
X190562209Y-134980514D01*
X190562209Y-134980514D02*
X190514590Y-135028133D01*
X190514590Y-135028133D02*
X190466971Y-135123371D01*
X190466971Y-135123371D02*
X190466971Y-135313847D01*
X190466971Y-135313847D02*
X190514590Y-135409085D01*
X190514590Y-135409085D02*
X190562209Y-135456704D01*
X190562209Y-135456704D02*
X190657447Y-135504323D01*
X173124019Y-130751037D02*
X172124019Y-130751037D01*
X173124019Y-130274847D02*
X172124019Y-130274847D01*
X172124019Y-130274847D02*
X172838304Y-129941514D01*
X172838304Y-129941514D02*
X172124019Y-129608181D01*
X172124019Y-129608181D02*
X173124019Y-129608181D01*
X172838304Y-129179609D02*
X172838304Y-128703419D01*
X173124019Y-129274847D02*
X172124019Y-128941514D01*
X172124019Y-128941514D02*
X173124019Y-128608181D01*
X172743066Y-128274847D02*
X172743066Y-127512943D01*
X173028780Y-126465324D02*
X173076400Y-126512943D01*
X173076400Y-126512943D02*
X173124019Y-126655800D01*
X173124019Y-126655800D02*
X173124019Y-126751038D01*
X173124019Y-126751038D02*
X173076400Y-126893895D01*
X173076400Y-126893895D02*
X172981161Y-126989133D01*
X172981161Y-126989133D02*
X172885923Y-127036752D01*
X172885923Y-127036752D02*
X172695447Y-127084371D01*
X172695447Y-127084371D02*
X172552590Y-127084371D01*
X172552590Y-127084371D02*
X172362114Y-127036752D01*
X172362114Y-127036752D02*
X172266876Y-126989133D01*
X172266876Y-126989133D02*
X172171638Y-126893895D01*
X172171638Y-126893895D02*
X172124019Y-126751038D01*
X172124019Y-126751038D02*
X172124019Y-126655800D01*
X172124019Y-126655800D02*
X172171638Y-126512943D01*
X172171638Y-126512943D02*
X172219257Y-126465324D01*
X173076400Y-126084371D02*
X173124019Y-125941514D01*
X173124019Y-125941514D02*
X173124019Y-125703419D01*
X173124019Y-125703419D02*
X173076400Y-125608181D01*
X173076400Y-125608181D02*
X173028780Y-125560562D01*
X173028780Y-125560562D02*
X172933542Y-125512943D01*
X172933542Y-125512943D02*
X172838304Y-125512943D01*
X172838304Y-125512943D02*
X172743066Y-125560562D01*
X172743066Y-125560562D02*
X172695447Y-125608181D01*
X172695447Y-125608181D02*
X172647828Y-125703419D01*
X172647828Y-125703419D02*
X172600209Y-125893895D01*
X172600209Y-125893895D02*
X172552590Y-125989133D01*
X172552590Y-125989133D02*
X172504971Y-126036752D01*
X172504971Y-126036752D02*
X172409733Y-126084371D01*
X172409733Y-126084371D02*
X172314495Y-126084371D01*
X172314495Y-126084371D02*
X172219257Y-126036752D01*
X172219257Y-126036752D02*
X172171638Y-125989133D01*
X172171638Y-125989133D02*
X172124019Y-125893895D01*
X172124019Y-125893895D02*
X172124019Y-125655800D01*
X172124019Y-125655800D02*
X172171638Y-125512943D01*
X189802419Y-141969533D02*
X190516704Y-141969533D01*
X190516704Y-141969533D02*
X190659561Y-142017152D01*
X190659561Y-142017152D02*
X190754800Y-142112390D01*
X190754800Y-142112390D02*
X190802419Y-142255247D01*
X190802419Y-142255247D02*
X190802419Y-142350485D01*
X190802419Y-141493342D02*
X189802419Y-141493342D01*
X189802419Y-141493342D02*
X189802419Y-141112390D01*
X189802419Y-141112390D02*
X189850038Y-141017152D01*
X189850038Y-141017152D02*
X189897657Y-140969533D01*
X189897657Y-140969533D02*
X189992895Y-140921914D01*
X189992895Y-140921914D02*
X190135752Y-140921914D01*
X190135752Y-140921914D02*
X190230990Y-140969533D01*
X190230990Y-140969533D02*
X190278609Y-141017152D01*
X190278609Y-141017152D02*
X190326228Y-141112390D01*
X190326228Y-141112390D02*
X190326228Y-141493342D01*
X189802419Y-140017152D02*
X189802419Y-140493342D01*
X189802419Y-140493342D02*
X190278609Y-140540961D01*
X190278609Y-140540961D02*
X190230990Y-140493342D01*
X190230990Y-140493342D02*
X190183371Y-140398104D01*
X190183371Y-140398104D02*
X190183371Y-140160009D01*
X190183371Y-140160009D02*
X190230990Y-140064771D01*
X190230990Y-140064771D02*
X190278609Y-140017152D01*
X190278609Y-140017152D02*
X190373847Y-139969533D01*
X190373847Y-139969533D02*
X190611942Y-139969533D01*
X190611942Y-139969533D02*
X190707180Y-140017152D01*
X190707180Y-140017152D02*
X190754800Y-140064771D01*
X190754800Y-140064771D02*
X190802419Y-140160009D01*
X190802419Y-140160009D02*
X190802419Y-140398104D01*
X190802419Y-140398104D02*
X190754800Y-140493342D01*
X190754800Y-140493342D02*
X190707180Y-140540961D01*
X129685642Y-130059580D02*
X129638023Y-130107200D01*
X129638023Y-130107200D02*
X129495166Y-130154819D01*
X129495166Y-130154819D02*
X129399928Y-130154819D01*
X129399928Y-130154819D02*
X129257071Y-130107200D01*
X129257071Y-130107200D02*
X129161833Y-130011961D01*
X129161833Y-130011961D02*
X129114214Y-129916723D01*
X129114214Y-129916723D02*
X129066595Y-129726247D01*
X129066595Y-129726247D02*
X129066595Y-129583390D01*
X129066595Y-129583390D02*
X129114214Y-129392914D01*
X129114214Y-129392914D02*
X129161833Y-129297676D01*
X129161833Y-129297676D02*
X129257071Y-129202438D01*
X129257071Y-129202438D02*
X129399928Y-129154819D01*
X129399928Y-129154819D02*
X129495166Y-129154819D01*
X129495166Y-129154819D02*
X129638023Y-129202438D01*
X129638023Y-129202438D02*
X129685642Y-129250057D01*
X130638023Y-130154819D02*
X130066595Y-130154819D01*
X130352309Y-130154819D02*
X130352309Y-129154819D01*
X130352309Y-129154819D02*
X130257071Y-129297676D01*
X130257071Y-129297676D02*
X130161833Y-129392914D01*
X130161833Y-129392914D02*
X130066595Y-129440533D01*
X130971357Y-129154819D02*
X131638023Y-129154819D01*
X131638023Y-129154819D02*
X131209452Y-130154819D01*
X169904819Y-120047619D02*
X169428628Y-120380952D01*
X169904819Y-120619047D02*
X168904819Y-120619047D01*
X168904819Y-120619047D02*
X168904819Y-120238095D01*
X168904819Y-120238095D02*
X168952438Y-120142857D01*
X168952438Y-120142857D02*
X169000057Y-120095238D01*
X169000057Y-120095238D02*
X169095295Y-120047619D01*
X169095295Y-120047619D02*
X169238152Y-120047619D01*
X169238152Y-120047619D02*
X169333390Y-120095238D01*
X169333390Y-120095238D02*
X169381009Y-120142857D01*
X169381009Y-120142857D02*
X169428628Y-120238095D01*
X169428628Y-120238095D02*
X169428628Y-120619047D01*
X168904819Y-119761904D02*
X168904819Y-119190476D01*
X169904819Y-119476190D02*
X168904819Y-119476190D01*
X169238152Y-118428571D02*
X169904819Y-118428571D01*
X168857200Y-118666666D02*
X169571485Y-118904761D01*
X169571485Y-118904761D02*
X169571485Y-118285714D01*
X129274819Y-117088047D02*
X128798628Y-117421380D01*
X129274819Y-117659475D02*
X128274819Y-117659475D01*
X128274819Y-117659475D02*
X128274819Y-117278523D01*
X128274819Y-117278523D02*
X128322438Y-117183285D01*
X128322438Y-117183285D02*
X128370057Y-117135666D01*
X128370057Y-117135666D02*
X128465295Y-117088047D01*
X128465295Y-117088047D02*
X128608152Y-117088047D01*
X128608152Y-117088047D02*
X128703390Y-117135666D01*
X128703390Y-117135666D02*
X128751009Y-117183285D01*
X128751009Y-117183285D02*
X128798628Y-117278523D01*
X128798628Y-117278523D02*
X128798628Y-117659475D01*
X129274819Y-116135666D02*
X129274819Y-116707094D01*
X129274819Y-116421380D02*
X128274819Y-116421380D01*
X128274819Y-116421380D02*
X128417676Y-116516618D01*
X128417676Y-116516618D02*
X128512914Y-116611856D01*
X128512914Y-116611856D02*
X128560533Y-116707094D01*
X128370057Y-115754713D02*
X128322438Y-115707094D01*
X128322438Y-115707094D02*
X128274819Y-115611856D01*
X128274819Y-115611856D02*
X128274819Y-115373761D01*
X128274819Y-115373761D02*
X128322438Y-115278523D01*
X128322438Y-115278523D02*
X128370057Y-115230904D01*
X128370057Y-115230904D02*
X128465295Y-115183285D01*
X128465295Y-115183285D02*
X128560533Y-115183285D01*
X128560533Y-115183285D02*
X128703390Y-115230904D01*
X128703390Y-115230904D02*
X129274819Y-115802332D01*
X129274819Y-115802332D02*
X129274819Y-115183285D01*
X128751009Y-114421380D02*
X128798628Y-114278523D01*
X128798628Y-114278523D02*
X128846247Y-114230904D01*
X128846247Y-114230904D02*
X128941485Y-114183285D01*
X128941485Y-114183285D02*
X129084342Y-114183285D01*
X129084342Y-114183285D02*
X129179580Y-114230904D01*
X129179580Y-114230904D02*
X129227200Y-114278523D01*
X129227200Y-114278523D02*
X129274819Y-114373761D01*
X129274819Y-114373761D02*
X129274819Y-114754713D01*
X129274819Y-114754713D02*
X128274819Y-114754713D01*
X128274819Y-114754713D02*
X128274819Y-114421380D01*
X128274819Y-114421380D02*
X128322438Y-114326142D01*
X128322438Y-114326142D02*
X128370057Y-114278523D01*
X128370057Y-114278523D02*
X128465295Y-114230904D01*
X128465295Y-114230904D02*
X128560533Y-114230904D01*
X128560533Y-114230904D02*
X128655771Y-114278523D01*
X128655771Y-114278523D02*
X128703390Y-114326142D01*
X128703390Y-114326142D02*
X128751009Y-114421380D01*
X128751009Y-114421380D02*
X128751009Y-114754713D01*
X129274819Y-113230904D02*
X129274819Y-113802332D01*
X129274819Y-113516618D02*
X128274819Y-113516618D01*
X128274819Y-113516618D02*
X128417676Y-113611856D01*
X128417676Y-113611856D02*
X128512914Y-113707094D01*
X128512914Y-113707094D02*
X128560533Y-113802332D01*
X112685980Y-149314366D02*
X112733600Y-149361985D01*
X112733600Y-149361985D02*
X112781219Y-149504842D01*
X112781219Y-149504842D02*
X112781219Y-149600080D01*
X112781219Y-149600080D02*
X112733600Y-149742937D01*
X112733600Y-149742937D02*
X112638361Y-149838175D01*
X112638361Y-149838175D02*
X112543123Y-149885794D01*
X112543123Y-149885794D02*
X112352647Y-149933413D01*
X112352647Y-149933413D02*
X112209790Y-149933413D01*
X112209790Y-149933413D02*
X112019314Y-149885794D01*
X112019314Y-149885794D02*
X111924076Y-149838175D01*
X111924076Y-149838175D02*
X111828838Y-149742937D01*
X111828838Y-149742937D02*
X111781219Y-149600080D01*
X111781219Y-149600080D02*
X111781219Y-149504842D01*
X111781219Y-149504842D02*
X111828838Y-149361985D01*
X111828838Y-149361985D02*
X111876457Y-149314366D01*
X111781219Y-148409604D02*
X111781219Y-148885794D01*
X111781219Y-148885794D02*
X112257409Y-148933413D01*
X112257409Y-148933413D02*
X112209790Y-148885794D01*
X112209790Y-148885794D02*
X112162171Y-148790556D01*
X112162171Y-148790556D02*
X112162171Y-148552461D01*
X112162171Y-148552461D02*
X112209790Y-148457223D01*
X112209790Y-148457223D02*
X112257409Y-148409604D01*
X112257409Y-148409604D02*
X112352647Y-148361985D01*
X112352647Y-148361985D02*
X112590742Y-148361985D01*
X112590742Y-148361985D02*
X112685980Y-148409604D01*
X112685980Y-148409604D02*
X112733600Y-148457223D01*
X112733600Y-148457223D02*
X112781219Y-148552461D01*
X112781219Y-148552461D02*
X112781219Y-148790556D01*
X112781219Y-148790556D02*
X112733600Y-148885794D01*
X112733600Y-148885794D02*
X112685980Y-148933413D01*
X164238095Y-156654819D02*
X164238095Y-155654819D01*
X164238095Y-156131009D02*
X164809523Y-156131009D01*
X164809523Y-156654819D02*
X164809523Y-155654819D01*
X165190476Y-155654819D02*
X165809523Y-155654819D01*
X165809523Y-155654819D02*
X165476190Y-156035771D01*
X165476190Y-156035771D02*
X165619047Y-156035771D01*
X165619047Y-156035771D02*
X165714285Y-156083390D01*
X165714285Y-156083390D02*
X165761904Y-156131009D01*
X165761904Y-156131009D02*
X165809523Y-156226247D01*
X165809523Y-156226247D02*
X165809523Y-156464342D01*
X165809523Y-156464342D02*
X165761904Y-156559580D01*
X165761904Y-156559580D02*
X165714285Y-156607200D01*
X165714285Y-156607200D02*
X165619047Y-156654819D01*
X165619047Y-156654819D02*
X165333333Y-156654819D01*
X165333333Y-156654819D02*
X165238095Y-156607200D01*
X165238095Y-156607200D02*
X165190476Y-156559580D01*
X123362142Y-133107580D02*
X123314523Y-133155200D01*
X123314523Y-133155200D02*
X123171666Y-133202819D01*
X123171666Y-133202819D02*
X123076428Y-133202819D01*
X123076428Y-133202819D02*
X122933571Y-133155200D01*
X122933571Y-133155200D02*
X122838333Y-133059961D01*
X122838333Y-133059961D02*
X122790714Y-132964723D01*
X122790714Y-132964723D02*
X122743095Y-132774247D01*
X122743095Y-132774247D02*
X122743095Y-132631390D01*
X122743095Y-132631390D02*
X122790714Y-132440914D01*
X122790714Y-132440914D02*
X122838333Y-132345676D01*
X122838333Y-132345676D02*
X122933571Y-132250438D01*
X122933571Y-132250438D02*
X123076428Y-132202819D01*
X123076428Y-132202819D02*
X123171666Y-132202819D01*
X123171666Y-132202819D02*
X123314523Y-132250438D01*
X123314523Y-132250438D02*
X123362142Y-132298057D01*
X124314523Y-133202819D02*
X123743095Y-133202819D01*
X124028809Y-133202819D02*
X124028809Y-132202819D01*
X124028809Y-132202819D02*
X123933571Y-132345676D01*
X123933571Y-132345676D02*
X123838333Y-132440914D01*
X123838333Y-132440914D02*
X123743095Y-132488533D01*
X125171666Y-132536152D02*
X125171666Y-133202819D01*
X124933571Y-132155200D02*
X124695476Y-132869485D01*
X124695476Y-132869485D02*
X125314523Y-132869485D01*
X120822142Y-130059580D02*
X120774523Y-130107200D01*
X120774523Y-130107200D02*
X120631666Y-130154819D01*
X120631666Y-130154819D02*
X120536428Y-130154819D01*
X120536428Y-130154819D02*
X120393571Y-130107200D01*
X120393571Y-130107200D02*
X120298333Y-130011961D01*
X120298333Y-130011961D02*
X120250714Y-129916723D01*
X120250714Y-129916723D02*
X120203095Y-129726247D01*
X120203095Y-129726247D02*
X120203095Y-129583390D01*
X120203095Y-129583390D02*
X120250714Y-129392914D01*
X120250714Y-129392914D02*
X120298333Y-129297676D01*
X120298333Y-129297676D02*
X120393571Y-129202438D01*
X120393571Y-129202438D02*
X120536428Y-129154819D01*
X120536428Y-129154819D02*
X120631666Y-129154819D01*
X120631666Y-129154819D02*
X120774523Y-129202438D01*
X120774523Y-129202438D02*
X120822142Y-129250057D01*
X121774523Y-130154819D02*
X121203095Y-130154819D01*
X121488809Y-130154819D02*
X121488809Y-129154819D01*
X121488809Y-129154819D02*
X121393571Y-129297676D01*
X121393571Y-129297676D02*
X121298333Y-129392914D01*
X121298333Y-129392914D02*
X121203095Y-129440533D01*
X122107857Y-129154819D02*
X122726904Y-129154819D01*
X122726904Y-129154819D02*
X122393571Y-129535771D01*
X122393571Y-129535771D02*
X122536428Y-129535771D01*
X122536428Y-129535771D02*
X122631666Y-129583390D01*
X122631666Y-129583390D02*
X122679285Y-129631009D01*
X122679285Y-129631009D02*
X122726904Y-129726247D01*
X122726904Y-129726247D02*
X122726904Y-129964342D01*
X122726904Y-129964342D02*
X122679285Y-130059580D01*
X122679285Y-130059580D02*
X122631666Y-130107200D01*
X122631666Y-130107200D02*
X122536428Y-130154819D01*
X122536428Y-130154819D02*
X122250714Y-130154819D01*
X122250714Y-130154819D02*
X122155476Y-130107200D01*
X122155476Y-130107200D02*
X122107857Y-130059580D01*
X175625066Y-96929219D02*
X175625066Y-97643504D01*
X175625066Y-97643504D02*
X175577447Y-97786361D01*
X175577447Y-97786361D02*
X175482209Y-97881600D01*
X175482209Y-97881600D02*
X175339352Y-97929219D01*
X175339352Y-97929219D02*
X175244114Y-97929219D01*
X176053638Y-97024457D02*
X176101257Y-96976838D01*
X176101257Y-96976838D02*
X176196495Y-96929219D01*
X176196495Y-96929219D02*
X176434590Y-96929219D01*
X176434590Y-96929219D02*
X176529828Y-96976838D01*
X176529828Y-96976838D02*
X176577447Y-97024457D01*
X176577447Y-97024457D02*
X176625066Y-97119695D01*
X176625066Y-97119695D02*
X176625066Y-97214933D01*
X176625066Y-97214933D02*
X176577447Y-97357790D01*
X176577447Y-97357790D02*
X176006019Y-97929219D01*
X176006019Y-97929219D02*
X176625066Y-97929219D01*
X125461733Y-162193219D02*
X125128400Y-161717028D01*
X124890305Y-162193219D02*
X124890305Y-161193219D01*
X124890305Y-161193219D02*
X125271257Y-161193219D01*
X125271257Y-161193219D02*
X125366495Y-161240838D01*
X125366495Y-161240838D02*
X125414114Y-161288457D01*
X125414114Y-161288457D02*
X125461733Y-161383695D01*
X125461733Y-161383695D02*
X125461733Y-161526552D01*
X125461733Y-161526552D02*
X125414114Y-161621790D01*
X125414114Y-161621790D02*
X125366495Y-161669409D01*
X125366495Y-161669409D02*
X125271257Y-161717028D01*
X125271257Y-161717028D02*
X124890305Y-161717028D01*
X126080781Y-161193219D02*
X126176019Y-161193219D01*
X126176019Y-161193219D02*
X126271257Y-161240838D01*
X126271257Y-161240838D02*
X126318876Y-161288457D01*
X126318876Y-161288457D02*
X126366495Y-161383695D01*
X126366495Y-161383695D02*
X126414114Y-161574171D01*
X126414114Y-161574171D02*
X126414114Y-161812266D01*
X126414114Y-161812266D02*
X126366495Y-162002742D01*
X126366495Y-162002742D02*
X126318876Y-162097980D01*
X126318876Y-162097980D02*
X126271257Y-162145600D01*
X126271257Y-162145600D02*
X126176019Y-162193219D01*
X126176019Y-162193219D02*
X126080781Y-162193219D01*
X126080781Y-162193219D02*
X125985543Y-162145600D01*
X125985543Y-162145600D02*
X125937924Y-162097980D01*
X125937924Y-162097980D02*
X125890305Y-162002742D01*
X125890305Y-162002742D02*
X125842686Y-161812266D01*
X125842686Y-161812266D02*
X125842686Y-161574171D01*
X125842686Y-161574171D02*
X125890305Y-161383695D01*
X125890305Y-161383695D02*
X125937924Y-161288457D01*
X125937924Y-161288457D02*
X125985543Y-161240838D01*
X125985543Y-161240838D02*
X126080781Y-161193219D01*
X176504819Y-120047619D02*
X176028628Y-120380952D01*
X176504819Y-120619047D02*
X175504819Y-120619047D01*
X175504819Y-120619047D02*
X175504819Y-120238095D01*
X175504819Y-120238095D02*
X175552438Y-120142857D01*
X175552438Y-120142857D02*
X175600057Y-120095238D01*
X175600057Y-120095238D02*
X175695295Y-120047619D01*
X175695295Y-120047619D02*
X175838152Y-120047619D01*
X175838152Y-120047619D02*
X175933390Y-120095238D01*
X175933390Y-120095238D02*
X175981009Y-120142857D01*
X175981009Y-120142857D02*
X176028628Y-120238095D01*
X176028628Y-120238095D02*
X176028628Y-120619047D01*
X175504819Y-119761904D02*
X175504819Y-119190476D01*
X176504819Y-119476190D02*
X175504819Y-119476190D01*
X175504819Y-118428571D02*
X175504819Y-118619047D01*
X175504819Y-118619047D02*
X175552438Y-118714285D01*
X175552438Y-118714285D02*
X175600057Y-118761904D01*
X175600057Y-118761904D02*
X175742914Y-118857142D01*
X175742914Y-118857142D02*
X175933390Y-118904761D01*
X175933390Y-118904761D02*
X176314342Y-118904761D01*
X176314342Y-118904761D02*
X176409580Y-118857142D01*
X176409580Y-118857142D02*
X176457200Y-118809523D01*
X176457200Y-118809523D02*
X176504819Y-118714285D01*
X176504819Y-118714285D02*
X176504819Y-118523809D01*
X176504819Y-118523809D02*
X176457200Y-118428571D01*
X176457200Y-118428571D02*
X176409580Y-118380952D01*
X176409580Y-118380952D02*
X176314342Y-118333333D01*
X176314342Y-118333333D02*
X176076247Y-118333333D01*
X176076247Y-118333333D02*
X175981009Y-118380952D01*
X175981009Y-118380952D02*
X175933390Y-118428571D01*
X175933390Y-118428571D02*
X175885771Y-118523809D01*
X175885771Y-118523809D02*
X175885771Y-118714285D01*
X175885771Y-118714285D02*
X175933390Y-118809523D01*
X175933390Y-118809523D02*
X175981009Y-118857142D01*
X175981009Y-118857142D02*
X176076247Y-118904761D01*
X166604819Y-120047619D02*
X166128628Y-120380952D01*
X166604819Y-120619047D02*
X165604819Y-120619047D01*
X165604819Y-120619047D02*
X165604819Y-120238095D01*
X165604819Y-120238095D02*
X165652438Y-120142857D01*
X165652438Y-120142857D02*
X165700057Y-120095238D01*
X165700057Y-120095238D02*
X165795295Y-120047619D01*
X165795295Y-120047619D02*
X165938152Y-120047619D01*
X165938152Y-120047619D02*
X166033390Y-120095238D01*
X166033390Y-120095238D02*
X166081009Y-120142857D01*
X166081009Y-120142857D02*
X166128628Y-120238095D01*
X166128628Y-120238095D02*
X166128628Y-120619047D01*
X165604819Y-119761904D02*
X165604819Y-119190476D01*
X166604819Y-119476190D02*
X165604819Y-119476190D01*
X165604819Y-118952380D02*
X165604819Y-118333333D01*
X165604819Y-118333333D02*
X165985771Y-118666666D01*
X165985771Y-118666666D02*
X165985771Y-118523809D01*
X165985771Y-118523809D02*
X166033390Y-118428571D01*
X166033390Y-118428571D02*
X166081009Y-118380952D01*
X166081009Y-118380952D02*
X166176247Y-118333333D01*
X166176247Y-118333333D02*
X166414342Y-118333333D01*
X166414342Y-118333333D02*
X166509580Y-118380952D01*
X166509580Y-118380952D02*
X166557200Y-118428571D01*
X166557200Y-118428571D02*
X166604819Y-118523809D01*
X166604819Y-118523809D02*
X166604819Y-118809523D01*
X166604819Y-118809523D02*
X166557200Y-118904761D01*
X166557200Y-118904761D02*
X166509580Y-118952380D01*
X185442266Y-152411619D02*
X185442266Y-153125904D01*
X185442266Y-153125904D02*
X185394647Y-153268761D01*
X185394647Y-153268761D02*
X185299409Y-153364000D01*
X185299409Y-153364000D02*
X185156552Y-153411619D01*
X185156552Y-153411619D02*
X185061314Y-153411619D01*
X185823219Y-152411619D02*
X186442266Y-152411619D01*
X186442266Y-152411619D02*
X186108933Y-152792571D01*
X186108933Y-152792571D02*
X186251790Y-152792571D01*
X186251790Y-152792571D02*
X186347028Y-152840190D01*
X186347028Y-152840190D02*
X186394647Y-152887809D01*
X186394647Y-152887809D02*
X186442266Y-152983047D01*
X186442266Y-152983047D02*
X186442266Y-153221142D01*
X186442266Y-153221142D02*
X186394647Y-153316380D01*
X186394647Y-153316380D02*
X186347028Y-153364000D01*
X186347028Y-153364000D02*
X186251790Y-153411619D01*
X186251790Y-153411619D02*
X185966076Y-153411619D01*
X185966076Y-153411619D02*
X185870838Y-153364000D01*
X185870838Y-153364000D02*
X185823219Y-153316380D01*
X113272819Y-122655857D02*
X112796628Y-122989190D01*
X113272819Y-123227285D02*
X112272819Y-123227285D01*
X112272819Y-123227285D02*
X112272819Y-122846333D01*
X112272819Y-122846333D02*
X112320438Y-122751095D01*
X112320438Y-122751095D02*
X112368057Y-122703476D01*
X112368057Y-122703476D02*
X112463295Y-122655857D01*
X112463295Y-122655857D02*
X112606152Y-122655857D01*
X112606152Y-122655857D02*
X112701390Y-122703476D01*
X112701390Y-122703476D02*
X112749009Y-122751095D01*
X112749009Y-122751095D02*
X112796628Y-122846333D01*
X112796628Y-122846333D02*
X112796628Y-123227285D01*
X112272819Y-122322523D02*
X112272819Y-121703476D01*
X112272819Y-121703476D02*
X112653771Y-122036809D01*
X112653771Y-122036809D02*
X112653771Y-121893952D01*
X112653771Y-121893952D02*
X112701390Y-121798714D01*
X112701390Y-121798714D02*
X112749009Y-121751095D01*
X112749009Y-121751095D02*
X112844247Y-121703476D01*
X112844247Y-121703476D02*
X113082342Y-121703476D01*
X113082342Y-121703476D02*
X113177580Y-121751095D01*
X113177580Y-121751095D02*
X113225200Y-121798714D01*
X113225200Y-121798714D02*
X113272819Y-121893952D01*
X113272819Y-121893952D02*
X113272819Y-122179666D01*
X113272819Y-122179666D02*
X113225200Y-122274904D01*
X113225200Y-122274904D02*
X113177580Y-122322523D01*
X112749009Y-120941571D02*
X112796628Y-120798714D01*
X112796628Y-120798714D02*
X112844247Y-120751095D01*
X112844247Y-120751095D02*
X112939485Y-120703476D01*
X112939485Y-120703476D02*
X113082342Y-120703476D01*
X113082342Y-120703476D02*
X113177580Y-120751095D01*
X113177580Y-120751095D02*
X113225200Y-120798714D01*
X113225200Y-120798714D02*
X113272819Y-120893952D01*
X113272819Y-120893952D02*
X113272819Y-121274904D01*
X113272819Y-121274904D02*
X112272819Y-121274904D01*
X112272819Y-121274904D02*
X112272819Y-120941571D01*
X112272819Y-120941571D02*
X112320438Y-120846333D01*
X112320438Y-120846333D02*
X112368057Y-120798714D01*
X112368057Y-120798714D02*
X112463295Y-120751095D01*
X112463295Y-120751095D02*
X112558533Y-120751095D01*
X112558533Y-120751095D02*
X112653771Y-120798714D01*
X112653771Y-120798714D02*
X112701390Y-120846333D01*
X112701390Y-120846333D02*
X112749009Y-120941571D01*
X112749009Y-120941571D02*
X112749009Y-121274904D01*
X113272819Y-119751095D02*
X113272819Y-120322523D01*
X113272819Y-120036809D02*
X112272819Y-120036809D01*
X112272819Y-120036809D02*
X112415676Y-120132047D01*
X112415676Y-120132047D02*
X112510914Y-120227285D01*
X112510914Y-120227285D02*
X112558533Y-120322523D01*
X131305405Y-158604019D02*
X131305405Y-157604019D01*
X131305405Y-157604019D02*
X131543500Y-157604019D01*
X131543500Y-157604019D02*
X131686357Y-157651638D01*
X131686357Y-157651638D02*
X131781595Y-157746876D01*
X131781595Y-157746876D02*
X131829214Y-157842114D01*
X131829214Y-157842114D02*
X131876833Y-158032590D01*
X131876833Y-158032590D02*
X131876833Y-158175447D01*
X131876833Y-158175447D02*
X131829214Y-158365923D01*
X131829214Y-158365923D02*
X131781595Y-158461161D01*
X131781595Y-158461161D02*
X131686357Y-158556400D01*
X131686357Y-158556400D02*
X131543500Y-158604019D01*
X131543500Y-158604019D02*
X131305405Y-158604019D01*
X132829214Y-158604019D02*
X132257786Y-158604019D01*
X132543500Y-158604019D02*
X132543500Y-157604019D01*
X132543500Y-157604019D02*
X132448262Y-157746876D01*
X132448262Y-157746876D02*
X132353024Y-157842114D01*
X132353024Y-157842114D02*
X132257786Y-157889733D01*
X120342819Y-122655857D02*
X119866628Y-122989190D01*
X120342819Y-123227285D02*
X119342819Y-123227285D01*
X119342819Y-123227285D02*
X119342819Y-122846333D01*
X119342819Y-122846333D02*
X119390438Y-122751095D01*
X119390438Y-122751095D02*
X119438057Y-122703476D01*
X119438057Y-122703476D02*
X119533295Y-122655857D01*
X119533295Y-122655857D02*
X119676152Y-122655857D01*
X119676152Y-122655857D02*
X119771390Y-122703476D01*
X119771390Y-122703476D02*
X119819009Y-122751095D01*
X119819009Y-122751095D02*
X119866628Y-122846333D01*
X119866628Y-122846333D02*
X119866628Y-123227285D01*
X119342819Y-122322523D02*
X119342819Y-121655857D01*
X119342819Y-121655857D02*
X120342819Y-122084428D01*
X119819009Y-120941571D02*
X119866628Y-120798714D01*
X119866628Y-120798714D02*
X119914247Y-120751095D01*
X119914247Y-120751095D02*
X120009485Y-120703476D01*
X120009485Y-120703476D02*
X120152342Y-120703476D01*
X120152342Y-120703476D02*
X120247580Y-120751095D01*
X120247580Y-120751095D02*
X120295200Y-120798714D01*
X120295200Y-120798714D02*
X120342819Y-120893952D01*
X120342819Y-120893952D02*
X120342819Y-121274904D01*
X120342819Y-121274904D02*
X119342819Y-121274904D01*
X119342819Y-121274904D02*
X119342819Y-120941571D01*
X119342819Y-120941571D02*
X119390438Y-120846333D01*
X119390438Y-120846333D02*
X119438057Y-120798714D01*
X119438057Y-120798714D02*
X119533295Y-120751095D01*
X119533295Y-120751095D02*
X119628533Y-120751095D01*
X119628533Y-120751095D02*
X119723771Y-120798714D01*
X119723771Y-120798714D02*
X119771390Y-120846333D01*
X119771390Y-120846333D02*
X119819009Y-120941571D01*
X119819009Y-120941571D02*
X119819009Y-121274904D01*
X120342819Y-119751095D02*
X120342819Y-120322523D01*
X120342819Y-120036809D02*
X119342819Y-120036809D01*
X119342819Y-120036809D02*
X119485676Y-120132047D01*
X119485676Y-120132047D02*
X119580914Y-120227285D01*
X119580914Y-120227285D02*
X119628533Y-120322523D01*
X169025219Y-141715533D02*
X169739504Y-141715533D01*
X169739504Y-141715533D02*
X169882361Y-141763152D01*
X169882361Y-141763152D02*
X169977600Y-141858390D01*
X169977600Y-141858390D02*
X170025219Y-142001247D01*
X170025219Y-142001247D02*
X170025219Y-142096485D01*
X170025219Y-141239342D02*
X169025219Y-141239342D01*
X169025219Y-141239342D02*
X169025219Y-140858390D01*
X169025219Y-140858390D02*
X169072838Y-140763152D01*
X169072838Y-140763152D02*
X169120457Y-140715533D01*
X169120457Y-140715533D02*
X169215695Y-140667914D01*
X169215695Y-140667914D02*
X169358552Y-140667914D01*
X169358552Y-140667914D02*
X169453790Y-140715533D01*
X169453790Y-140715533D02*
X169501409Y-140763152D01*
X169501409Y-140763152D02*
X169549028Y-140858390D01*
X169549028Y-140858390D02*
X169549028Y-141239342D01*
X169453790Y-140096485D02*
X169406171Y-140191723D01*
X169406171Y-140191723D02*
X169358552Y-140239342D01*
X169358552Y-140239342D02*
X169263314Y-140286961D01*
X169263314Y-140286961D02*
X169215695Y-140286961D01*
X169215695Y-140286961D02*
X169120457Y-140239342D01*
X169120457Y-140239342D02*
X169072838Y-140191723D01*
X169072838Y-140191723D02*
X169025219Y-140096485D01*
X169025219Y-140096485D02*
X169025219Y-139906009D01*
X169025219Y-139906009D02*
X169072838Y-139810771D01*
X169072838Y-139810771D02*
X169120457Y-139763152D01*
X169120457Y-139763152D02*
X169215695Y-139715533D01*
X169215695Y-139715533D02*
X169263314Y-139715533D01*
X169263314Y-139715533D02*
X169358552Y-139763152D01*
X169358552Y-139763152D02*
X169406171Y-139810771D01*
X169406171Y-139810771D02*
X169453790Y-139906009D01*
X169453790Y-139906009D02*
X169453790Y-140096485D01*
X169453790Y-140096485D02*
X169501409Y-140191723D01*
X169501409Y-140191723D02*
X169549028Y-140239342D01*
X169549028Y-140239342D02*
X169644266Y-140286961D01*
X169644266Y-140286961D02*
X169834742Y-140286961D01*
X169834742Y-140286961D02*
X169929980Y-140239342D01*
X169929980Y-140239342D02*
X169977600Y-140191723D01*
X169977600Y-140191723D02*
X170025219Y-140096485D01*
X170025219Y-140096485D02*
X170025219Y-139906009D01*
X170025219Y-139906009D02*
X169977600Y-139810771D01*
X169977600Y-139810771D02*
X169929980Y-139763152D01*
X169929980Y-139763152D02*
X169834742Y-139715533D01*
X169834742Y-139715533D02*
X169644266Y-139715533D01*
X169644266Y-139715533D02*
X169549028Y-139763152D01*
X169549028Y-139763152D02*
X169501409Y-139810771D01*
X169501409Y-139810771D02*
X169453790Y-139906009D01*
X183154819Y-120047619D02*
X182678628Y-120380952D01*
X183154819Y-120619047D02*
X182154819Y-120619047D01*
X182154819Y-120619047D02*
X182154819Y-120238095D01*
X182154819Y-120238095D02*
X182202438Y-120142857D01*
X182202438Y-120142857D02*
X182250057Y-120095238D01*
X182250057Y-120095238D02*
X182345295Y-120047619D01*
X182345295Y-120047619D02*
X182488152Y-120047619D01*
X182488152Y-120047619D02*
X182583390Y-120095238D01*
X182583390Y-120095238D02*
X182631009Y-120142857D01*
X182631009Y-120142857D02*
X182678628Y-120238095D01*
X182678628Y-120238095D02*
X182678628Y-120619047D01*
X182154819Y-119761904D02*
X182154819Y-119190476D01*
X183154819Y-119476190D02*
X182154819Y-119476190D01*
X182583390Y-118714285D02*
X182535771Y-118809523D01*
X182535771Y-118809523D02*
X182488152Y-118857142D01*
X182488152Y-118857142D02*
X182392914Y-118904761D01*
X182392914Y-118904761D02*
X182345295Y-118904761D01*
X182345295Y-118904761D02*
X182250057Y-118857142D01*
X182250057Y-118857142D02*
X182202438Y-118809523D01*
X182202438Y-118809523D02*
X182154819Y-118714285D01*
X182154819Y-118714285D02*
X182154819Y-118523809D01*
X182154819Y-118523809D02*
X182202438Y-118428571D01*
X182202438Y-118428571D02*
X182250057Y-118380952D01*
X182250057Y-118380952D02*
X182345295Y-118333333D01*
X182345295Y-118333333D02*
X182392914Y-118333333D01*
X182392914Y-118333333D02*
X182488152Y-118380952D01*
X182488152Y-118380952D02*
X182535771Y-118428571D01*
X182535771Y-118428571D02*
X182583390Y-118523809D01*
X182583390Y-118523809D02*
X182583390Y-118714285D01*
X182583390Y-118714285D02*
X182631009Y-118809523D01*
X182631009Y-118809523D02*
X182678628Y-118857142D01*
X182678628Y-118857142D02*
X182773866Y-118904761D01*
X182773866Y-118904761D02*
X182964342Y-118904761D01*
X182964342Y-118904761D02*
X183059580Y-118857142D01*
X183059580Y-118857142D02*
X183107200Y-118809523D01*
X183107200Y-118809523D02*
X183154819Y-118714285D01*
X183154819Y-118714285D02*
X183154819Y-118523809D01*
X183154819Y-118523809D02*
X183107200Y-118428571D01*
X183107200Y-118428571D02*
X183059580Y-118380952D01*
X183059580Y-118380952D02*
X182964342Y-118333333D01*
X182964342Y-118333333D02*
X182773866Y-118333333D01*
X182773866Y-118333333D02*
X182678628Y-118380952D01*
X182678628Y-118380952D02*
X182631009Y-118428571D01*
X182631009Y-118428571D02*
X182583390Y-118523809D01*
X125015666Y-96824819D02*
X125015666Y-97539104D01*
X125015666Y-97539104D02*
X124968047Y-97681961D01*
X124968047Y-97681961D02*
X124872809Y-97777200D01*
X124872809Y-97777200D02*
X124729952Y-97824819D01*
X124729952Y-97824819D02*
X124634714Y-97824819D01*
X126015666Y-97824819D02*
X125444238Y-97824819D01*
X125729952Y-97824819D02*
X125729952Y-96824819D01*
X125729952Y-96824819D02*
X125634714Y-96967676D01*
X125634714Y-96967676D02*
X125539476Y-97062914D01*
X125539476Y-97062914D02*
X125444238Y-97110533D01*
X126407942Y-153056780D02*
X126360323Y-153104400D01*
X126360323Y-153104400D02*
X126217466Y-153152019D01*
X126217466Y-153152019D02*
X126122228Y-153152019D01*
X126122228Y-153152019D02*
X125979371Y-153104400D01*
X125979371Y-153104400D02*
X125884133Y-153009161D01*
X125884133Y-153009161D02*
X125836514Y-152913923D01*
X125836514Y-152913923D02*
X125788895Y-152723447D01*
X125788895Y-152723447D02*
X125788895Y-152580590D01*
X125788895Y-152580590D02*
X125836514Y-152390114D01*
X125836514Y-152390114D02*
X125884133Y-152294876D01*
X125884133Y-152294876D02*
X125979371Y-152199638D01*
X125979371Y-152199638D02*
X126122228Y-152152019D01*
X126122228Y-152152019D02*
X126217466Y-152152019D01*
X126217466Y-152152019D02*
X126360323Y-152199638D01*
X126360323Y-152199638D02*
X126407942Y-152247257D01*
X126788895Y-152247257D02*
X126836514Y-152199638D01*
X126836514Y-152199638D02*
X126931752Y-152152019D01*
X126931752Y-152152019D02*
X127169847Y-152152019D01*
X127169847Y-152152019D02*
X127265085Y-152199638D01*
X127265085Y-152199638D02*
X127312704Y-152247257D01*
X127312704Y-152247257D02*
X127360323Y-152342495D01*
X127360323Y-152342495D02*
X127360323Y-152437733D01*
X127360323Y-152437733D02*
X127312704Y-152580590D01*
X127312704Y-152580590D02*
X126741276Y-153152019D01*
X126741276Y-153152019D02*
X127360323Y-153152019D01*
X127931752Y-152580590D02*
X127836514Y-152532971D01*
X127836514Y-152532971D02*
X127788895Y-152485352D01*
X127788895Y-152485352D02*
X127741276Y-152390114D01*
X127741276Y-152390114D02*
X127741276Y-152342495D01*
X127741276Y-152342495D02*
X127788895Y-152247257D01*
X127788895Y-152247257D02*
X127836514Y-152199638D01*
X127836514Y-152199638D02*
X127931752Y-152152019D01*
X127931752Y-152152019D02*
X128122228Y-152152019D01*
X128122228Y-152152019D02*
X128217466Y-152199638D01*
X128217466Y-152199638D02*
X128265085Y-152247257D01*
X128265085Y-152247257D02*
X128312704Y-152342495D01*
X128312704Y-152342495D02*
X128312704Y-152390114D01*
X128312704Y-152390114D02*
X128265085Y-152485352D01*
X128265085Y-152485352D02*
X128217466Y-152532971D01*
X128217466Y-152532971D02*
X128122228Y-152580590D01*
X128122228Y-152580590D02*
X127931752Y-152580590D01*
X127931752Y-152580590D02*
X127836514Y-152628209D01*
X127836514Y-152628209D02*
X127788895Y-152675828D01*
X127788895Y-152675828D02*
X127741276Y-152771066D01*
X127741276Y-152771066D02*
X127741276Y-152961542D01*
X127741276Y-152961542D02*
X127788895Y-153056780D01*
X127788895Y-153056780D02*
X127836514Y-153104400D01*
X127836514Y-153104400D02*
X127931752Y-153152019D01*
X127931752Y-153152019D02*
X128122228Y-153152019D01*
X128122228Y-153152019D02*
X128217466Y-153104400D01*
X128217466Y-153104400D02*
X128265085Y-153056780D01*
X128265085Y-153056780D02*
X128312704Y-152961542D01*
X128312704Y-152961542D02*
X128312704Y-152771066D01*
X128312704Y-152771066D02*
X128265085Y-152675828D01*
X128265085Y-152675828D02*
X128217466Y-152628209D01*
X128217466Y-152628209D02*
X128122228Y-152580590D01*
X122162819Y-116611857D02*
X121686628Y-116945190D01*
X122162819Y-117183285D02*
X121162819Y-117183285D01*
X121162819Y-117183285D02*
X121162819Y-116802333D01*
X121162819Y-116802333D02*
X121210438Y-116707095D01*
X121210438Y-116707095D02*
X121258057Y-116659476D01*
X121258057Y-116659476D02*
X121353295Y-116611857D01*
X121353295Y-116611857D02*
X121496152Y-116611857D01*
X121496152Y-116611857D02*
X121591390Y-116659476D01*
X121591390Y-116659476D02*
X121639009Y-116707095D01*
X121639009Y-116707095D02*
X121686628Y-116802333D01*
X121686628Y-116802333D02*
X121686628Y-117183285D01*
X121591390Y-116040428D02*
X121543771Y-116135666D01*
X121543771Y-116135666D02*
X121496152Y-116183285D01*
X121496152Y-116183285D02*
X121400914Y-116230904D01*
X121400914Y-116230904D02*
X121353295Y-116230904D01*
X121353295Y-116230904D02*
X121258057Y-116183285D01*
X121258057Y-116183285D02*
X121210438Y-116135666D01*
X121210438Y-116135666D02*
X121162819Y-116040428D01*
X121162819Y-116040428D02*
X121162819Y-115849952D01*
X121162819Y-115849952D02*
X121210438Y-115754714D01*
X121210438Y-115754714D02*
X121258057Y-115707095D01*
X121258057Y-115707095D02*
X121353295Y-115659476D01*
X121353295Y-115659476D02*
X121400914Y-115659476D01*
X121400914Y-115659476D02*
X121496152Y-115707095D01*
X121496152Y-115707095D02*
X121543771Y-115754714D01*
X121543771Y-115754714D02*
X121591390Y-115849952D01*
X121591390Y-115849952D02*
X121591390Y-116040428D01*
X121591390Y-116040428D02*
X121639009Y-116135666D01*
X121639009Y-116135666D02*
X121686628Y-116183285D01*
X121686628Y-116183285D02*
X121781866Y-116230904D01*
X121781866Y-116230904D02*
X121972342Y-116230904D01*
X121972342Y-116230904D02*
X122067580Y-116183285D01*
X122067580Y-116183285D02*
X122115200Y-116135666D01*
X122115200Y-116135666D02*
X122162819Y-116040428D01*
X122162819Y-116040428D02*
X122162819Y-115849952D01*
X122162819Y-115849952D02*
X122115200Y-115754714D01*
X122115200Y-115754714D02*
X122067580Y-115707095D01*
X122067580Y-115707095D02*
X121972342Y-115659476D01*
X121972342Y-115659476D02*
X121781866Y-115659476D01*
X121781866Y-115659476D02*
X121686628Y-115707095D01*
X121686628Y-115707095D02*
X121639009Y-115754714D01*
X121639009Y-115754714D02*
X121591390Y-115849952D01*
X121639009Y-114897571D02*
X121686628Y-114754714D01*
X121686628Y-114754714D02*
X121734247Y-114707095D01*
X121734247Y-114707095D02*
X121829485Y-114659476D01*
X121829485Y-114659476D02*
X121972342Y-114659476D01*
X121972342Y-114659476D02*
X122067580Y-114707095D01*
X122067580Y-114707095D02*
X122115200Y-114754714D01*
X122115200Y-114754714D02*
X122162819Y-114849952D01*
X122162819Y-114849952D02*
X122162819Y-115230904D01*
X122162819Y-115230904D02*
X121162819Y-115230904D01*
X121162819Y-115230904D02*
X121162819Y-114897571D01*
X121162819Y-114897571D02*
X121210438Y-114802333D01*
X121210438Y-114802333D02*
X121258057Y-114754714D01*
X121258057Y-114754714D02*
X121353295Y-114707095D01*
X121353295Y-114707095D02*
X121448533Y-114707095D01*
X121448533Y-114707095D02*
X121543771Y-114754714D01*
X121543771Y-114754714D02*
X121591390Y-114802333D01*
X121591390Y-114802333D02*
X121639009Y-114897571D01*
X121639009Y-114897571D02*
X121639009Y-115230904D01*
X122162819Y-113707095D02*
X122162819Y-114278523D01*
X122162819Y-113992809D02*
X121162819Y-113992809D01*
X121162819Y-113992809D02*
X121305676Y-114088047D01*
X121305676Y-114088047D02*
X121400914Y-114183285D01*
X121400914Y-114183285D02*
X121448533Y-114278523D01*
D12*
%TO.C,C7*%
X111406400Y-144683433D02*
X111406400Y-144975967D01*
X110386400Y-144683433D02*
X110386400Y-144975967D01*
%TO.C,DISCH Timer*%
X134581200Y-147691600D02*
X140081200Y-147691600D01*
X134581200Y-149641600D02*
X134581200Y-147691600D01*
X135631200Y-150191600D02*
X136231200Y-150191600D01*
X135931200Y-149891600D02*
X135631200Y-150191600D01*
X136231200Y-150191600D02*
X135931200Y-149891600D01*
X140081200Y-147691600D02*
X140081200Y-149641600D01*
X140081200Y-149641600D02*
X134581200Y-149641600D01*
%TO.C,C4*%
X114454400Y-150980433D02*
X114454400Y-151272967D01*
X113434400Y-150980433D02*
X113434400Y-151272967D01*
%TO.C,JP2*%
X105394000Y-102851000D02*
X105394000Y-105651000D01*
X103394000Y-102851000D02*
X105394000Y-102851000D01*
X105394000Y-105651000D02*
X103394000Y-105651000D01*
X103394000Y-105651000D02*
X103394000Y-102851000D01*
%TO.C,C24*%
X180192000Y-136855252D02*
X180192000Y-135432748D01*
X182012000Y-136855252D02*
X182012000Y-135432748D01*
%TO.C,C22*%
X139344348Y-140110800D02*
X140766852Y-140110800D01*
X139344348Y-141930800D02*
X140766852Y-141930800D01*
%TO.C,C3*%
X119487733Y-151382000D02*
X119780267Y-151382000D01*
X119487733Y-152402000D02*
X119780267Y-152402000D01*
%TO.C,RT7*%
X178438000Y-116017064D02*
X178438000Y-114562936D01*
X180258000Y-116017064D02*
X180258000Y-114562936D01*
%TO.C,C31*%
X173985600Y-148742348D02*
X173985600Y-150164852D01*
X172165600Y-148742348D02*
X172165600Y-150164852D01*
%TO.C,R30*%
X184002000Y-136921864D02*
X184002000Y-135467736D01*
X185822000Y-136921864D02*
X185822000Y-135467736D01*
%TO.C,R10B1*%
X124354000Y-114741936D02*
X124354000Y-116196064D01*
X122534000Y-114741936D02*
X122534000Y-116196064D01*
%TO.C,C8*%
X114454400Y-142497933D02*
X114454400Y-142790467D01*
X113434400Y-142497933D02*
X113434400Y-142790467D01*
%TO.C,C12*%
X119933767Y-131828000D02*
X119641233Y-131828000D01*
X119933767Y-130808000D02*
X119641233Y-130808000D01*
%TO.C,R31*%
X170590800Y-136871064D02*
X170590800Y-135416936D01*
X172410800Y-136871064D02*
X172410800Y-135416936D01*
%TO.C,R9B1*%
X122576000Y-120811936D02*
X122576000Y-122266064D01*
X120756000Y-120811936D02*
X120756000Y-122266064D01*
%TO.C,IPA-SCK*%
X167859200Y-126651200D02*
X167859200Y-121151200D01*
X169809200Y-126651200D02*
X167859200Y-126651200D01*
X170359200Y-125601200D02*
X170359200Y-125001200D01*
X170059200Y-125301200D02*
X170359200Y-125601200D01*
X170359200Y-125001200D02*
X170059200Y-125301200D01*
X167859200Y-121151200D02*
X169809200Y-121151200D01*
X169809200Y-121151200D02*
X169809200Y-126651200D01*
%TO.C,JP6*%
X192344800Y-145838200D02*
X192344800Y-143038200D01*
X194344800Y-145838200D02*
X192344800Y-145838200D01*
X192344800Y-143038200D02*
X194344800Y-143038200D01*
X194344800Y-143038200D02*
X194344800Y-145838200D01*
%TO.C,R2B1*%
X110130000Y-114741936D02*
X110130000Y-116196064D01*
X108310000Y-114741936D02*
X108310000Y-116196064D01*
%TO.C,C19*%
X134665767Y-128780000D02*
X134373233Y-128780000D01*
X134665767Y-127760000D02*
X134373233Y-127760000D01*
%TO.C,C11*%
X111406400Y-136301433D02*
X111406400Y-136593967D01*
X110386400Y-136301433D02*
X110386400Y-136593967D01*
%TO.C,C23*%
X141083848Y-144733600D02*
X142506352Y-144733600D01*
X141083848Y-146553600D02*
X142506352Y-146553600D01*
%TO.C,R6B1*%
X117242000Y-114741936D02*
X117242000Y-116196064D01*
X115422000Y-114741936D02*
X115422000Y-116196064D01*
%TO.C,C29*%
X194356400Y-148437548D02*
X194356400Y-149860052D01*
X192536400Y-148437548D02*
X192536400Y-149860052D01*
%TO.C,RT1*%
X159158000Y-115991064D02*
X159158000Y-114536936D01*
X160978000Y-115991064D02*
X160978000Y-114536936D01*
%TO.C,R1B1*%
X108352000Y-120785936D02*
X108352000Y-122240064D01*
X106532000Y-120785936D02*
X106532000Y-122240064D01*
%TO.C,RT9*%
X185018000Y-116017064D02*
X185018000Y-114562936D01*
X186838000Y-116017064D02*
X186838000Y-114562936D01*
%TO.C,C32*%
X170582000Y-148742348D02*
X170582000Y-150164852D01*
X168762000Y-148742348D02*
X168762000Y-150164852D01*
%TO.C,R13B1*%
X129688000Y-120837936D02*
X129688000Y-122292064D01*
X127868000Y-120837936D02*
X127868000Y-122292064D01*
%TO.C,R5B1*%
X115464000Y-120785936D02*
X115464000Y-122240064D01*
X113644000Y-120785936D02*
X113644000Y-122240064D01*
%TO.C,JP7*%
X172024800Y-145838200D02*
X172024800Y-143038200D01*
X174024800Y-145838200D02*
X172024800Y-145838200D01*
X172024800Y-143038200D02*
X174024800Y-143038200D01*
X174024800Y-143038200D02*
X174024800Y-145838200D01*
%TO.C,C27*%
X179014800Y-135432748D02*
X179014800Y-136855252D01*
X177194800Y-135432748D02*
X177194800Y-136855252D01*
%TO.C,J4*%
X195022800Y-119275000D02*
X196022800Y-120275000D01*
X185892800Y-119275000D02*
X195022800Y-119275000D01*
X196022800Y-120275000D02*
X196022800Y-128645000D01*
X196022800Y-128645000D02*
X195022800Y-129645000D01*
X195022800Y-129645000D02*
X185892800Y-129645000D01*
X185892800Y-129645000D02*
X185892800Y-119275000D01*
%TO.C,OP1*%
X145372000Y-137294000D02*
X145372000Y-147694000D01*
X145372000Y-147694000D02*
X155872000Y-147694000D01*
X148372000Y-137354000D02*
X148372000Y-147634000D01*
X148372000Y-147634000D02*
X152872000Y-147634000D01*
X149622000Y-137354000D02*
X148372000Y-137354000D01*
X152872000Y-137354000D02*
X151622000Y-137354000D01*
X152872000Y-147634000D02*
X152872000Y-137354000D01*
X155872000Y-137294000D02*
X145372000Y-137294000D01*
X155872000Y-147694000D02*
X155872000Y-137294000D01*
X149622000Y-137354000D02*
G75*
G03*
X151622000Y-137354000I1000000J0D01*
G01*
%TO.C,C6*%
X114454400Y-146715433D02*
X114454400Y-147007967D01*
X113434400Y-146715433D02*
X113434400Y-147007967D01*
%TO.C,R24*%
X174299200Y-136871064D02*
X174299200Y-135416936D01*
X176119200Y-136871064D02*
X176119200Y-135416936D01*
%TO.C,C15*%
X126183267Y-128780000D02*
X125890733Y-128780000D01*
X126183267Y-127760000D02*
X125890733Y-127760000D01*
%TO.C,R15B1*%
X133244000Y-120837936D02*
X133244000Y-122292064D01*
X131424000Y-120837936D02*
X131424000Y-122292064D01*
%TO.C,C18*%
X132633767Y-131828000D02*
X132341233Y-131828000D01*
X132633767Y-130808000D02*
X132341233Y-130808000D01*
%TO.C,RT5*%
X171858000Y-116017064D02*
X171858000Y-114562936D01*
X173678000Y-116017064D02*
X173678000Y-114562936D01*
%TO.C,R11B1*%
X126132000Y-120837936D02*
X126132000Y-122292064D01*
X124312000Y-120837936D02*
X124312000Y-122292064D01*
%TO.C,RT2*%
X162206000Y-115965064D02*
X162206000Y-114510936D01*
X164026000Y-115965064D02*
X164026000Y-114510936D01*
%TO.C,R22*%
X137702936Y-159059200D02*
X139157064Y-159059200D01*
X137702936Y-160879200D02*
X139157064Y-160879200D01*
%TO.C,R14B1*%
X131466000Y-114715936D02*
X131466000Y-116170064D01*
X129646000Y-114715936D02*
X129646000Y-116170064D01*
%TO.C,J6*%
X173505400Y-154046800D02*
X174925400Y-154046800D01*
X173505400Y-159796800D02*
X173505400Y-154046800D01*
X173505400Y-161336800D02*
X173505400Y-161636800D01*
X173505400Y-161636800D02*
X180875400Y-161636800D01*
X174925400Y-154046800D02*
X174925400Y-154546800D01*
X174925400Y-154546800D02*
X179455400Y-154546800D01*
X179455400Y-154046800D02*
X180875400Y-154046800D01*
X179455400Y-154546800D02*
X179455400Y-154046800D01*
X180875400Y-154046800D02*
X180875400Y-159796800D01*
X180875400Y-161636800D02*
X180875400Y-161336800D01*
%TO.C,C9*%
X111406400Y-140465933D02*
X111406400Y-140758467D01*
X110386400Y-140465933D02*
X110386400Y-140758467D01*
%TO.C,JP1*%
X103394000Y-110149000D02*
X103394000Y-107349000D01*
X105394000Y-110149000D02*
X103394000Y-110149000D01*
X103394000Y-107349000D02*
X105394000Y-107349000D01*
X105394000Y-107349000D02*
X105394000Y-110149000D01*
%TO.C,R4B1*%
X113686000Y-114741936D02*
X113686000Y-116196064D01*
X111866000Y-114741936D02*
X111866000Y-116196064D01*
%TO.C,R21*%
X187710400Y-136921864D02*
X187710400Y-135467736D01*
X189530400Y-136921864D02*
X189530400Y-135467736D01*
%TO.C,R16B1*%
X135022000Y-114741936D02*
X135022000Y-116196064D01*
X133202000Y-114741936D02*
X133202000Y-116196064D01*
%TO.C,U2*%
X150469600Y-129097600D02*
X148669600Y-129097600D01*
X150469600Y-129097600D02*
X151269600Y-129097600D01*
X150469600Y-132217600D02*
X149669600Y-132217600D01*
X150469600Y-132217600D02*
X151269600Y-132217600D01*
%TO.C,R18B1*%
X138578000Y-114741936D02*
X138578000Y-116196064D01*
X136758000Y-114741936D02*
X136758000Y-116196064D01*
%TO.C,C30*%
X191257600Y-148437548D02*
X191257600Y-149860052D01*
X189437600Y-148437548D02*
X189437600Y-149860052D01*
%TO.C,Q1*%
X145992800Y-117841600D02*
X145992800Y-111831600D01*
X152812800Y-115591600D02*
X152812800Y-111831600D01*
X145992800Y-111831600D02*
X147252800Y-111831600D01*
X152812800Y-111831600D02*
X151552800Y-111831600D01*
%TO.C,C2*%
X123705233Y-151382000D02*
X123997767Y-151382000D01*
X123705233Y-152402000D02*
X123997767Y-152402000D01*
%TO.C,U1*%
X132246000Y-136758000D02*
X131296000Y-136758000D01*
X131296000Y-136758000D02*
X131296000Y-135418000D01*
X122026000Y-136758000D02*
X122976000Y-136758000D01*
X132246000Y-137708000D02*
X132246000Y-136758000D01*
X122026000Y-137708000D02*
X122026000Y-136758000D01*
X132246000Y-146028000D02*
X132246000Y-146978000D01*
X122026000Y-146028000D02*
X122026000Y-146978000D01*
X132246000Y-146978000D02*
X131296000Y-146978000D01*
X122026000Y-146978000D02*
X122976000Y-146978000D01*
%TO.C,TR1*%
X175390700Y-142798800D02*
X176915700Y-142798800D01*
X175390700Y-149998800D02*
X175390700Y-142798800D01*
X176915700Y-149998800D02*
X175390700Y-149998800D01*
X176915700Y-151598800D02*
X176915700Y-149998800D01*
X186965700Y-149998800D02*
X188490700Y-149998800D01*
X188490700Y-142798800D02*
X186965700Y-142798800D01*
X188490700Y-149998800D02*
X188490700Y-142798800D01*
%TO.C,C10*%
X114454400Y-138333433D02*
X114454400Y-138625967D01*
X113434400Y-138333433D02*
X113434400Y-138625967D01*
%TO.C,R17B1*%
X137054000Y-120938936D02*
X137054000Y-122393064D01*
X135234000Y-120938936D02*
X135234000Y-122393064D01*
%TO.C,C26*%
X191571200Y-136906052D02*
X191571200Y-135483548D01*
X193391200Y-136906052D02*
X193391200Y-135483548D01*
%TO.C,IMA-CS*%
X173701200Y-130746800D02*
X173701200Y-125246800D01*
X175651200Y-130746800D02*
X173701200Y-130746800D01*
X176201200Y-129696800D02*
X176201200Y-129096800D01*
X175901200Y-129396800D02*
X176201200Y-129696800D01*
X176201200Y-129096800D02*
X175901200Y-129396800D01*
X173701200Y-125246800D02*
X175651200Y-125246800D01*
X175651200Y-125246800D02*
X175651200Y-130746800D01*
%TO.C,JP5*%
X189398400Y-145838200D02*
X189398400Y-143038200D01*
X191398400Y-145838200D02*
X189398400Y-145838200D01*
X189398400Y-143038200D02*
X191398400Y-143038200D01*
X191398400Y-143038200D02*
X191398400Y-145838200D01*
%TO.C,C17*%
X130474767Y-128780000D02*
X130182233Y-128780000D01*
X130474767Y-127760000D02*
X130182233Y-127760000D01*
%TO.C,RT4*%
X168556000Y-115965064D02*
X168556000Y-114510936D01*
X170376000Y-115965064D02*
X170376000Y-114510936D01*
%TO.C,R12B1*%
X127910000Y-114741936D02*
X127910000Y-116196064D01*
X126090000Y-114741936D02*
X126090000Y-116196064D01*
%TO.C,C5*%
X111406400Y-149001433D02*
X111406400Y-149293967D01*
X110386400Y-149001433D02*
X110386400Y-149293967D01*
%TO.C,C14*%
X124151267Y-131828000D02*
X123858733Y-131828000D01*
X124151267Y-130808000D02*
X123858733Y-130808000D01*
%TO.C,C13*%
X121611267Y-128780000D02*
X121318733Y-128780000D01*
X121611267Y-127760000D02*
X121318733Y-127760000D01*
%TO.C,J2*%
X158773400Y-99564400D02*
X159773400Y-98564400D01*
X158773400Y-108694400D02*
X158773400Y-99564400D01*
X159773400Y-98564400D02*
X192143400Y-98564400D01*
X192143400Y-98564400D02*
X193143400Y-99564400D01*
X193143400Y-99564400D02*
X193143400Y-108694400D01*
X193143400Y-108694400D02*
X158773400Y-108694400D01*
%TO.C,R0*%
X126355464Y-160828400D02*
X124901336Y-160828400D01*
X126355464Y-159008400D02*
X124901336Y-159008400D01*
%TO.C,C16*%
X128469267Y-131828000D02*
X128176733Y-131828000D01*
X128469267Y-130808000D02*
X128176733Y-130808000D01*
%TO.C,RT6*%
X175148000Y-116017064D02*
X175148000Y-114562936D01*
X176968000Y-116017064D02*
X176968000Y-114562936D01*
%TO.C,RT3*%
X165266000Y-115965064D02*
X165266000Y-114510936D01*
X167086000Y-115965064D02*
X167086000Y-114510936D01*
%TO.C,J3*%
X182090600Y-154046800D02*
X183510600Y-154046800D01*
X182090600Y-159796800D02*
X182090600Y-154046800D01*
X182090600Y-161336800D02*
X182090600Y-161636800D01*
X182090600Y-161636800D02*
X189460600Y-161636800D01*
X183510600Y-154046800D02*
X183510600Y-154546800D01*
X183510600Y-154546800D02*
X188040600Y-154546800D01*
X188040600Y-154046800D02*
X189460600Y-154046800D01*
X188040600Y-154546800D02*
X188040600Y-154046800D01*
X189460600Y-154046800D02*
X189460600Y-159796800D01*
X189460600Y-161636800D02*
X189460600Y-161336800D01*
%TO.C,R3B1*%
X111908000Y-120785936D02*
X111908000Y-122240064D01*
X110088000Y-120785936D02*
X110088000Y-122240064D01*
%TO.C,D1*%
X129583500Y-158834200D02*
X129583500Y-161104200D01*
X129583500Y-161104200D02*
X133643500Y-161104200D01*
X133643500Y-158834200D02*
X129583500Y-158834200D01*
%TO.C,R7B1*%
X119020000Y-120785936D02*
X119020000Y-122240064D01*
X117200000Y-120785936D02*
X117200000Y-122240064D01*
%TO.C,JP8*%
X168672000Y-145889000D02*
X168672000Y-143089000D01*
X170672000Y-145889000D02*
X168672000Y-145889000D01*
X168672000Y-143089000D02*
X170672000Y-143089000D01*
X170672000Y-143089000D02*
X170672000Y-145889000D01*
%TO.C,RT8*%
X181728000Y-116017064D02*
X181728000Y-114562936D01*
X183548000Y-116017064D02*
X183548000Y-114562936D01*
%TO.C,J1*%
X108164000Y-99460000D02*
X109164000Y-98460000D01*
X108164000Y-108590000D02*
X108164000Y-99460000D01*
X109164000Y-98460000D02*
X141534000Y-98460000D01*
X141534000Y-98460000D02*
X142534000Y-99460000D01*
X142534000Y-99460000D02*
X142534000Y-108590000D01*
X142534000Y-108590000D02*
X108164000Y-108590000D01*
%TO.C,C28*%
X126904533Y-153617200D02*
X127197067Y-153617200D01*
X126904533Y-154637200D02*
X127197067Y-154637200D01*
%TO.C,R8B1*%
X120798000Y-114741936D02*
X120798000Y-116196064D01*
X118978000Y-114741936D02*
X118978000Y-116196064D01*
%TD*%
M02*
